<?xml version="1.0" encoding="utf-8"?>
<!-- Generator: Adobe Illustrator 21.1.0, SVG Export Plug-In . SVG Version: 6.00 Build 0)  -->
<svg version="1.1" id="레이어_1" xmlns="http://www.w3.org/2000/svg" xmlns:xlink="http://www.w3.org/1999/xlink" x="0px"
	 y="0px" viewBox="0 0 256.5 256.5" style="enable-background:new 0 0 256.5 256.5;" xml:space="preserve">
<style type="text/css">
	.st0{fill:#263545;}
	.st1{fill:#FFFFFF;}
</style>
<g>
	<g>
		<g>
			<path class="st0" d="M235.1,126.2l-1.6-2.1l2.7-0.6l2.1,1.9l6.1-1.4l-4.3-9l3-0.6l6.8,8.4l5.9-1.4c0.3-0.1,0.5-0.1,0.8,0
				C252.7,53.7,196.8,0,128.3,0C59.7,0,3.7,53.8,0.2,121.5c11.7,3.4,35.5,9.4,68.6,13C107.2,138.6,165.4,140,235.1,126.2z"/>
			<path class="st0" d="M250.5,126.3l-2.7,10.4l-3,0.6l0.2-10l-6.1,1.2l-1.1,2.6l-2.7,0.6l0.7-2.8c-42.3,8.4-80.4,11.2-112.5,11.2
				c-21.1,0-39.6-1.2-55-2.9c-32.6-3.5-56.2-9.4-68.3-12.9c0,1.3-0.1,2.6-0.1,3.8c0,70.8,57.4,128.3,128.3,128.3
				c70.8,0,128.3-57.4,128.3-128.3c0-1,0-2.1,0-3.1c0,0,0,0-0.1,0L250.5,126.3z"/>
		</g>
		<path class="st1" d="M123.4,140.1c32.1,0,70.2-2.8,112.5-11.2l0.3-1.4l-1-1.3c-69.7,13.7-127.9,12.4-166.3,8.3
			c-33-3.5-56.8-9.5-68.6-13c0,1-0.1,1.9-0.1,2.9c12.1,3.5,35.7,9.4,68.3,12.9C83.7,138.9,102.2,140.1,123.4,140.1z"/>
		<path class="st1" d="M255.6,121.3l-5.9,1.4l-6.8-8.4l-3,0.6l4.3,9l-6.1,1.4l-2.1-1.9l-2.7,0.6l1.6,2.1c7-1.4,14.1-2.9,21.3-4.6
			c0-0.1,0-0.2,0-0.4C256.1,121.2,255.8,121.3,255.6,121.3z"/>
		<path class="st1" d="M235.8,129l-0.7,2.8l2.7-0.6l1.1-2.6l6.1-1.2l-0.2,10l3-0.6l2.7-10.4l5.9-1.2c0,0,0,0,0.1,0
			c0-0.2,0-0.4,0-0.6C249.5,126.1,242.6,127.6,235.8,129z"/>
		<path class="st1" d="M236.1,127.6l-0.3,1.4c6.8-1.3,13.7-2.8,20.7-4.5c0-0.9-0.1-1.9-0.1-2.9c-7.2,1.7-14.3,3.2-21.3,4.6
			L236.1,127.6z"/>
	</g>
	<g>
		<path class="st1" d="M47.3,104.9c0,5.5-2.6,8.2-7.9,8.2c-4.9,0-7.6-2.2-8-6.5v-0.1c0-0.7,0.4-1.1,1.1-1.1h0.7c0.7,0,1,0.3,1.1,1.1
			c0.2,2.5,1.9,3.8,5,3.8c1.9,0,3.3-0.4,4.1-1.3c0.7-0.8,1.1-2.2,1.1-4.2V87.2c0-0.7,0.3-1.1,1.1-1.1h0.7c0.7,0,1.1,0.4,1.1,1.1
			V104.9z"/>
		<path class="st1" d="M87.8,111.7c0,0.7-0.4,1-1.2,1h-0.8c-0.5,0-0.9-0.2-1.1-0.7l-3.2-7.4H69.4l-3.3,7.4c-0.3,0.4-0.6,0.6-1,0.6
			h-0.9c-0.7,0-1.1-0.3-1.1-1c0-0.1,0-0.3,0.2-0.5l0,0l10.9-24.4c0.3-0.4,0.6-0.7,1-0.7h1c0.5,0,0.8,0.2,1,0.7l10.5,24.4
			C87.8,111.4,87.8,111.6,87.8,111.7z M80.4,101.9L75.6,91l-4.9,10.9H80.4z"/>
		<path class="st1" d="M127.5,91.2c0,0.4-0.2,0.7-0.5,0.9l-0.6,0.4v0l-0.3,0.2c-0.1,0.1-0.2,0.1-0.3,0.1c-0.4,0-0.7-0.2-0.9-0.5
			c-1.5-2.3-4.1-3.4-7.9-3.4c-3.3,0-5.9,1-7.8,2.9c-1.9,1.9-2.9,4.5-2.9,7.8c0,3.2,0.9,5.8,2.8,7.7c1.8,1.9,4.3,2.9,7.5,2.9
			c3.7,0,6.4-1.2,8.1-3.6c0.2-0.3,0.5-0.4,0.9-0.4c0.3,0,0.6,0.1,0.7,0.2l0,0l0.8,0.6l0.2,1c0,0.2,0,0.3-0.1,0.5
			c-2.3,3.1-5.8,4.7-10.4,4.7c-4.1,0-7.3-1.2-9.7-3.6c-2.4-2.4-3.5-5.7-3.5-9.8c0-4.2,1.2-7.6,3.7-10.1c2.4-2.5,5.8-3.7,9.9-3.7
			c4.8,0,8.3,1.6,10.4,4.6l0-0.1C127.4,90.6,127.5,90.9,127.5,91.2z"/>
		<path class="st1" d="M168.1,111.7c0,0.7-0.4,1.1-1.1,1.1h-1c-0.3,0-0.6-0.1-0.8-0.3l-13-12.8l-4.5,3.6v8.5c0,0.3-0.1,0.5-0.3,0.8
			c-0.2,0.2-0.5,0.3-0.8,0.3H146c-0.3,0-0.6-0.1-0.8-0.3c-0.2-0.2-0.3-0.5-0.3-0.8V87.3c0-0.3,0.1-0.5,0.3-0.8
			c0.2-0.2,0.5-0.3,0.8-0.3h0.7c0.3,0,0.5,0.1,0.8,0.3c0.2,0.2,0.3,0.5,0.3,0.8v12.3l17-13.4h1.5c0.7,0,1.1,0.4,1.1,1.1
			c0,0.4-0.1,0.7-0.4,0.9l-12.3,9.6l13.1,13.1C168,111.1,168.1,111.4,168.1,111.7z"/>
		<path class="st1" d="M186.1,111.7c0,0.7-0.4,1.1-1.1,1.1h-0.4c-0.9,0-1.4-0.4-1.4-1.1V87.3c0-0.7,0.5-1.1,1.4-1.1h0.4
			c0.7,0,1.1,0.4,1.1,1.1V111.7z"/>
		<path class="st1" d="M223.2,111.7c0,0.3-0.1,0.5-0.3,0.8c-0.2,0.2-0.5,0.3-0.7,0.3H205c-0.7,0-1.1-0.4-1.1-1.1V87.3
			c0-0.7,0.4-1.1,1.1-1.1h17c0.3,0,0.5,0.1,0.7,0.3c0.2,0.2,0.3,0.5,0.3,0.8V88c0,0.3-0.1,0.5-0.3,0.8c-0.2,0.2-0.5,0.3-0.7,0.3
			h-15.2v8.4h13.3c0.7,0,1.1,0.4,1.1,1.1v0.6c0,0.3-0.1,0.6-0.3,0.8c-0.2,0.2-0.5,0.4-0.8,0.4h-13.3v9.5h15.4c0.3,0,0.5,0.1,0.7,0.3
			c0.2,0.2,0.3,0.5,0.3,0.8V111.7z"/>
		<path class="st1" d="M54.8,162.5c0,2.6-1,4.6-3,5.9c-1.7,1.2-3.9,1.8-6.6,1.8h-8.4v10c0,0.7-0.4,1.1-1.1,1.1H35
			c-0.3,0-0.5-0.1-0.8-0.3c-0.2-0.2-0.3-0.5-0.3-0.8v-24.4c0-0.3,0.1-0.6,0.3-0.8c0.2-0.2,0.5-0.3,0.8-0.3h10.5
			C51.7,154.7,54.8,157.3,54.8,162.5z M51.8,162.5c0-3.3-2-5-6.1-5h-9v9.7h9c1.7,0,3-0.4,4.1-1.1C51.2,165.3,51.8,164.1,51.8,162.5z
			"/>
		<path class="st1" d="M86.8,180.2c0,0.7-0.4,1.1-1.1,1.1H70.2c-0.7,0-1.1-0.4-1.1-1.1v-24.4c0-0.7,0.4-1.1,1.1-1.1H71
			c0.7,0,1.1,0.4,1.1,1.1v22.6h13.7c0.3,0,0.5,0.1,0.8,0.3c0.2,0.2,0.3,0.5,0.3,0.8V180.2z"/>
		<path class="st1" d="M128.5,180.2c0,0.7-0.4,1.1-1.2,1.1h-0.8c-0.5,0-0.9-0.2-1-0.7l-3.2-7.4h-12.2l-3.3,7.4
			c-0.3,0.4-0.6,0.6-1,0.6h-0.9c-0.7,0-1.1-0.3-1.1-1.1c0-0.1,0-0.3,0.2-0.5l0,0l10.9-24.4c0.3-0.5,0.6-0.7,1-0.7h1
			c0.5,0,0.8,0.2,1,0.7l10.5,24.4C128.4,179.9,128.5,180.1,128.5,180.2z M121.1,170.4l-4.8-10.9l-4.9,10.9H121.1z"/>
		<path class="st1" d="M167.5,180.2c0,0.3-0.1,0.5-0.3,0.8c-0.2,0.2-0.5,0.3-0.7,0.3h-1.1c-0.4,0-0.7-0.2-0.9-0.5v0l-16.2-21.1v20.4
			c0,0.3-0.1,0.5-0.3,0.8c-0.2,0.2-0.5,0.3-0.8,0.3h-0.7c-0.3,0-0.5-0.1-0.8-0.3c-0.2-0.2-0.3-0.5-0.3-0.8v-24.4
			c0-0.3,0.1-0.6,0.3-0.8c0.2-0.2,0.5-0.3,0.8-0.3h1.1c0.3,0,0.5,0.2,0.9,0.5v0c2.1,2.8,5.1,6.7,9.1,11.8l4,5.1
			c1.2,1.5,2.2,2.9,3.1,4.1v-20.3c0-0.7,0.4-1.1,1.1-1.1h0.7c0.3,0,0.5,0.1,0.7,0.3c0.2,0.2,0.3,0.5,0.3,0.8V180.2z"/>
		<path class="st1" d="M225,156.5c0,0.3-0.1,0.5-0.3,0.8c-0.2,0.2-0.5,0.3-0.8,0.3h-8v22.6c0,0.7-0.4,1.1-1.1,1.1h-0.7
			c-0.7,0-1.1-0.4-1.1-1.1v-22.6h-8c-0.7,0-1.1-0.4-1.1-1.1v-0.7c0-0.7,0.4-1.1,1.1-1.1h19c0.3,0,0.5,0.1,0.8,0.3
			c0.2,0.2,0.3,0.5,0.3,0.8V156.5z"/>
		<path class="st1" d="M182.8,161.9c0,0.8-0.6,1.4-1.4,1.4c-0.8,0-1.4-0.6-1.4-1.4c0-0.8,0.6-1.4,1.4-1.4
			C182.2,160.4,182.8,161.1,182.8,161.9z"/>
		<path class="st1" d="M194.9,161.9c0,0.8-0.6,1.4-1.4,1.4c-0.8,0-1.4-0.6-1.4-1.4c0-0.8,0.6-1.4,1.4-1.4
			C194.3,160.4,194.9,161.1,194.9,161.9z"/>
		<g>
			<path class="st1" d="M182.8,175.5c-3,0-5.4-1.4-5.4-3.3c0-1.8,2.3-3.2,5.4-3.2c2.9,0,5.1,2.7,5.2,2.8l0.3,0.4l-0.3,0.4
				C187.9,172.8,185.7,175.5,182.8,175.5z M182.8,170.3c-2.4,0-4,1-4,1.9c0,0.9,1.7,1.9,4,1.9c1.6,0,3.1-1.2,3.8-1.9
				C185.9,171.6,184.4,170.3,182.8,170.3z"/>
			<path class="st1" d="M192.2,175.5c-2.9,0-5.1-2.7-5.2-2.8l-0.3-0.4l0.3-0.4c0.1-0.1,2.3-2.8,5.2-2.8c3,0,5.4,1.4,5.4,3.2
				C197.5,174.1,195.2,175.5,192.2,175.5z M188.4,172.2c0.7,0.7,2.1,1.9,3.8,1.9c2.4,0,4-1,4-1.9c0-0.9-1.6-1.9-4-1.9
				C190.5,170.3,189.1,171.6,188.4,172.2z"/>
		</g>
	</g>
</g>
</svg>
