<?xml version="1.0" encoding="utf-8"?>
<!-- Generator: Adobe Illustrator 21.1.0, SVG Export Plug-In . SVG Version: 6.00 Build 0)  -->
<svg version="1.1" id="레이어_1" xmlns="http://www.w3.org/2000/svg" xmlns:xlink="http://www.w3.org/1999/xlink" x="0px"
	 y="0px" viewBox="0 0 999.7 837.9" style="enable-background:new 0 0 999.7 837.9;" xml:space="preserve">
<style type="text/css">
	.st0{fill:#FAC668;}
	.st1{fill:#FCFCFC;}
	.st2{fill:#E8E9EC;}
	.st3{fill:#CDCCCA;}
	.st4{fill:#494A4A;}
	.st5{fill:#73553A;}
	.st6{fill:#59422D;}
	.st7{fill:#E1E1E4;}
	.st8{fill:#D9D8DB;}
	.st9{fill:#896748;}
	.st10{fill:#10BB67;}
	.st11{fill:#0DA656;}
	.st12{fill:#CDC3D3;}
	.st13{fill:#A8A1AD;}
	.st14{fill:#FEA832;}
	.st15{fill:#FE8821;}
	.st16{fill:#FD4E26;}
	.st17{fill:#FD3018;}
	.st18{fill:#CC392E;}
</style>
<path class="st0" d="M999.7,541.6h-3.4v-2.5h-1.6V534h5V541.6z M990.3,541.6h-6v-5h6V541.6z M978.3,541.6h-6v-5h6V541.6z
	 M966.3,541.6h-6v-5h6V541.6z M954.3,541.6h-6v-5h6V541.6z M942.3,541.6h-6v-5h6V541.6z M930.3,541.6h-6v-5h6V541.6z M918.3,541.6
	h-6v-5h6V541.6z M906.3,541.6h-6v-5h6V541.6z M894.3,541.6h-6v-5h6V541.6z M882.3,541.6h-6v-5h6V541.6z M870.3,541.6h-6v-5h6V541.6z
	 M858.3,541.6h-6v-5h6V541.6z M846.3,541.6h-6v-5h6V541.6z M834.3,541.6h-6v-5h6V541.6z M822.3,541.6h-6v-5h6V541.6z M810.3,541.6
	h-6v-5h6V541.6z M798.3,541.6h-6v-5h6V541.6z M786.3,541.6h-6v-5h6V541.6z M774.3,541.6h-6v-5h6V541.6z M762.3,541.6h-6v-5h6V541.6z
	 M750.3,541.6h-6v-5h6V541.6z M738.3,541.6h-6v-5h6V541.6z M726.3,541.6h-6v-5h6V541.6z M714.3,541.6h-6v-5h6V541.6z M702.3,541.6
	h-6v-5h6V541.6z M690.3,541.6h-6v-5h6V541.6z M678.3,541.6h-6v-5h6V541.6z M666.3,541.6h-6v-5h6V541.6z M654.3,541.6h-6v-5h6V541.6z
	 M642.3,541.6h-6v-5h6V541.6z M630.3,541.6h-6v-5h6V541.6z M618.3,541.6h-6v-5h6V541.6z M606.3,541.6h-6v-5h6V541.6z M594.3,541.6
	h-6v-5h6V541.6z M582.3,541.6h-6v-5h6V541.6z M570.3,541.6h-6v-5h6V541.6z M558.3,541.6h-6v-5h6V541.6z M546.3,541.6h-6v-5h6V541.6z
	 M534.3,541.6h-6v-5h6V541.6z M522.3,541.6h-6v-5h6V541.6z M510.3,541.6h-6v-5h6V541.6z M498.3,541.6h-6v-5h6V541.6z M486.3,541.6
	h-6v-5h6V541.6z M474.3,541.6h-6v-5h6V541.6z M462.3,541.6h-6v-5h6V541.6z M450.3,541.6h-6v-5h6V541.6z M438.3,541.6h-6v-5h6V541.6z
	 M426.3,541.6h-6v-5h6V541.6z M414.3,541.6h-6v-5h6V541.6z M402.3,541.6h-6v-5h6V541.6z M390.3,541.6h-6v-5h6V541.6z M378.3,541.6
	h-6v-5h6V541.6z M366.3,541.6h-6v-5h6V541.6z M354.3,541.6h-6v-5h6V541.6z M342.3,541.6h-6v-5h6V541.6z M330.3,541.6h-4.2v-5h4.2
	V541.6z M999.7,528h-5v-6h5V528z M999.7,516h-5v-6h5V516z M999.7,504h-5v-6h5V504z M999.7,492h-5v-6h5V492z M999.7,480h-5v-6h5V480z
	 M999.7,468h-5v-6h5V468z M999.7,456h-5v-6h5V456z M999.7,444h-5v-6h5V444z M999.7,432h-5v-6h5V432z M999.7,420h-5v-6h5V420z
	 M999.7,408h-5v-6h5V408z M999.7,396h-5v-6h5V396z M999.7,384h-5v-6h5V384z M999.7,372h-5v-6h5V372z M999.7,360h-5v-6h5V360z
	 M999.7,348h-5v-6h5V348z M999.7,336h-5v-6h5V336z M999.7,324h-5v-6h5V324z M999.7,312h-5v-6h5V312z M999.7,300h-5v-6h5V300z
	 M999.7,288h-5v-6h5V288z M999.7,276h-5v-6h5V276z M999.7,264h-5v-6h5V264z M999.7,252h-5v-6h5V252z M999.7,240h-5v-6h5V240z
	 M999.7,228h-5v-6h5V228z M98.6,224.3l0-5l6,0l0,5L98.6,224.3z M110.6,224.2l0-5l6,0l0,5L110.6,224.2z M122.6,224.2l0-5l6,0l0,5
	L122.6,224.2z M134.6,224.2l0-5l6,0l0,5L134.6,224.2z M146.6,224.2l0-5l6,0l0,5L146.6,224.2z M158.6,224.2l0-5l6,0l0,5L158.6,224.2z
	 M170.6,224.2l0-5l6,0l0,5L170.6,224.2z M182.6,224.2l0-5l6,0l0,5L182.6,224.2z M194.6,224.1l0-5l6,0l0,5L194.6,224.1z M206.6,224.1
	l0-5l6,0l0,5L206.6,224.1z M218.6,224.1l0-5l6,0l0,5L218.6,224.1z M230.6,224.1l0-5l6,0l0,5L230.6,224.1z M242.6,224.1l0-5l6,0l0,5
	L242.6,224.1z M254.6,224.1l0-5l6,0l0,5L254.6,224.1z M266.6,224l0-5l6,0l0,5L266.6,224z M278.6,224l0-5l6,0l0,5L278.6,224z
	 M290.6,224l0-5l6,0l0,5L290.6,224z M302.6,224l0-5l6,0l0,5L302.6,224z M314.6,224l0-5l6,0l0,5L314.6,224z M326.6,224l0-5l6,0l0,5
	L326.6,224z M338.6,224l0-5l6,0l0,5L338.6,224z M350.6,223.9l0-5l6,0l0,5L350.6,223.9z M362.6,223.9l0-5l6,0l0,5L362.6,223.9z
	 M374.6,223.9l0-5l6,0l0,5L374.6,223.9z M386.6,223.9l0-5l6,0l0,5L386.6,223.9z M398.6,223.9l0-5l6,0l0,5L398.6,223.9z M410.6,223.9
	l0-5l6,0l0,5L410.6,223.9z M422.6,223.8l0-5l6,0l0,5L422.6,223.8z M434.6,223.8l0-5l6,0l0,5L434.6,223.8z M446.6,223.8l0-5l6,0l0,5
	L446.6,223.8z M458.6,223.8l0-5l6,0l0,5L458.6,223.8z M470.6,223.8l0-5l6,0l0,5L470.6,223.8z M482.6,223.8l0-5l6,0l0,5L482.6,223.8z
	 M494.6,223.8l0-5l6,0l0,5L494.6,223.8z M506.6,223.7l0-5l6,0l0,5L506.6,223.7z M518.6,223.7l0-5l6,0l0,5L518.6,223.7z M530.6,223.7
	l0-5l6,0l0,5L530.6,223.7z M542.6,223.7l0-5l6,0l0,5L542.6,223.7z M554.6,223.7l0-5l6,0l0,5L554.6,223.7z M566.6,223.7l0-5l6,0l0,5
	L566.6,223.7z M578.6,223.6l0-5l6,0l0,5L578.6,223.6z M590.6,223.6l0-5l6,0l0,5L590.6,223.6z M602.6,223.6l0-5l6,0l0,5L602.6,223.6z
	 M614.6,223.6l0-5l6,0l0,5L614.6,223.6z M626.6,223.6l0-5l6,0l0,5L626.6,223.6z M638.6,223.6l0-5l6,0l0,5L638.6,223.6z M650.6,223.6
	l0-5l6,0l0,5L650.6,223.6z M662.6,223.5l0-5l6,0l0,5L662.6,223.5z M674.6,223.5l0-5l6,0l0,5L674.6,223.5z M686.6,223.5l0-5l6,0l0,5
	L686.6,223.5z M698.6,223.5l0-5l6,0l0,5L698.6,223.5z M710.6,223.5l0-5l6,0l0,5L710.6,223.5z M722.6,223.5l0-5l6,0l0,5L722.6,223.5z
	 M734.6,223.5l0-5l6,0l0,5L734.6,223.5z M746.6,223.4l0-5l6,0l0,5L746.6,223.4z M758.6,223.4l0-5l6,0l0,5L758.6,223.4z M770.6,223.4
	l0-5l6,0l0,5L770.6,223.4z M782.6,223.4l0-5l6,0l0,5L782.6,223.4z M794.6,223.4l0-5l6,0l0,5L794.6,223.4z M806.6,223.4l0-5l6,0l0,5
	L806.6,223.4z M818.6,223.3l0-5l6,0l0,5L818.6,223.3z M830.6,223.3l0-5l6,0l0,5L830.6,223.3z M842.6,223.3l0-5l6,0l0,5L842.6,223.3z
	 M854.6,223.3l0-5l6,0l0,5L854.6,223.3z M866.6,223.3l0-5l6,0l0,5L866.6,223.3z M878.6,223.3l0-5l6,0l0,5L878.6,223.3z M890.6,223.3
	l0-5l6,0l0,5L890.6,223.3z M902.6,223.2l0-5l6,0l0,5L902.6,223.2z M914.6,223.2l0-5l6,0l0,5L914.6,223.2z M926.6,223.2l0-5l6,0l0,5
	L926.6,223.2z M938.6,223.2l0-5l6,0l0,5L938.6,223.2z M950.6,223.2l0-5l6,0l0,5L950.6,223.2z M962.6,223.2l0-5l6,0l0,5L962.6,223.2z
	 M974.6,223.1l0-5l6,0l0,5L974.6,223.1z M986.6,223.1l0-5l6,0l0,5L986.6,223.1z"/>
<g>
	<path class="st1" d="M6.9,408.8c2.4,0,4.3,2.1,4.3,4.5v8.5c0,2.4-1.9,4.5-4.4,4.5H5.9c-2.5,0-4.6-2-4.6-4.5v-8.5
		c0-2.5,2-4.5,4.6-4.5H6.9z M5.9,411.4c-1.1,0-1.9,0.8-1.9,1.9v8.5c0,1,0.9,1.9,1.9,1.9h0.8c1,0,1.8-0.9,1.8-1.9v-8.5
		c0-1-0.8-1.9-1.8-1.9H5.9z M16.2,426.3h-2.9v-17.5h2.9V426.3z"/>
	<path class="st1" d="M35.3,417.4h-1.9v8.9H18.7v-2.5h4v-2.4c-1.8-0.4-3.1-1.8-3.1-3.4v-1.7c0-2,2-3.5,4.4-3.5
		c2.4,0,4.4,1.6,4.4,3.5v1.7c0,1.6-1.3,2.9-3.1,3.4v2.4h5.5v-15h2.6v6.2h1.9V417.4z M22.7,409.5v-1.4h2.6v1.4h3.6v2.3h-9.7v-2.3
		H22.7z M22.1,417.6c0,0.9,0.8,1.6,1.9,1.6c1,0,1.9-0.7,1.9-1.6v-0.9c0-0.9-0.8-1.6-1.9-1.6c-1,0-1.9,0.7-1.9,1.6V417.6z"/>
	<path class="st1" d="M46,413.2v0.2H49v-4.7h2.8v17.5H49V421H46v0.7c0,2.5-2,4.5-4.6,4.5c-2.5,0-4.6-2-4.6-4.5v-8.5
		c0-2.5,2-4.5,4.6-4.5C44,408.8,46,410.8,46,413.2z M39.6,413.2v8.5c0,1,0.9,1.9,1.9,1.9c1.1,0,1.9-0.8,1.9-1.9v-8.5
		c0-1-0.9-1.9-1.9-1.9C40.4,411.4,39.6,412.2,39.6,413.2z M46,418.5H49v-2.6H46V418.5z"/>
	<path class="st1" d="M60.9,416.9l3.1,9.3h-2.9l-1.7-5.3l-1.9,5.3h-2.9l5.3-14.8h-5.2v-2.6h8.2v2.6L60.9,416.9z M66.5,426.3v-17.5
		H69v6h1.9v2.4H69v9.1H66.5z"/>
	<path class="st1" d="M72.5,408.8h7.2v2.5h-4.5v12.4h4.8v2.5h-7.6V408.8z M81.3,408.8h2.5v6.1h1.4v-6.1h2.6v17.5h-2.6v-8.9h-1.4v8.9
		h-2.5V408.8z"/>
	<path class="st1" d="M96.1,409.4h3.4v2.2h-2.3c1,0.6,1.7,1.6,1.7,2.7v1.2c0,1.8-2,3.3-4.2,3.3c-2.3,0-4.1-1.5-4.1-3.3v-1.1
		c0-1.2,0.7-2.2,1.7-2.8h-2.3v-2.2h3.4v-1.3h2.6V409.4z M106.4,414.6h-1.9v7.6l-0.7,4h-2.5l0.7-4H91v-2.2h10.8v-11.3h2.8v3.4h1.9
		V414.6z M96.6,414.8c0-0.9-0.8-1.6-1.7-1.6s-1.8,0.7-1.8,1.6v0.3c0,0.9,0.8,1.6,1.8,1.6s1.7-0.7,1.7-1.6V414.8z"/>
	<path class="st1" d="M109.9,423.8V417h2.7v6.8h1.6V417h2.7v6.8h1.5l1-12.4h-10.7v-2.5h13.5v2.5l-1,12.4h2.2v2.5h-15.9v-2.5H109.9z"
		/>
	<path class="st1" d="M140.8,408.8v2.6l-2.5,1.9l2.6,2v3.1l-4.5-3.5l-4.7,3.6v-3.1l5.3-4h-5.3v-2.6H140.8z M147.9,414.6H146v7.5
		l-0.7,4.2h-2.5l0.7-4.2h-11v-2.2h10.8v-11.1h2.8v3.4h1.9V414.6z"/>
	<path class="st1" d="M154.3,417v-3.2h2.7v3.2h3.3l0.7-5.6h-10.8v-2.6h13.5v2.6L163,417h1.9v2.4H149V417H154.3z M163.9,422.8
		l-0.7,3.5h-2.8l0.7-3.5H150v-2.2h13.9V422.8z"/>
	<path class="st1" d="M169.2,415.6h2.7v8.3h6.8v-15.2h2.8v5.4h1.9v2.5h-1.9v9.6h-14.8v-2.4h2.5V415.6z M176.6,408.8v12.3h-2.7v-9.9
		h-6.6v-2.4H176.6z"/>
	<path class="st1" d="M63.9,454.7h-6.7v-2.4h15.9v2.4h-6.6v5.2h-2.6V454.7z M72.7,450.5h-3.4l-4-5l-4,5h-3.5l6.3-8.1h2.2L72.7,450.5
		z"/>
	<path class="st1" d="M85.2,451.7h-2.9l-2.1-6.5l-2.4,6.5h-2.9l3.4-9.2H82L85.2,451.7z M87.6,453.6v-5.3h-2.7v-2.5h2.7v-3.3h2.6
		v13.5l-0.7,4.1h-2.8l0.7-4.1H76.2v-2.3H87.6z"/>
	<path class="st1" d="M99.3,449.3v-1.5h2.8v1.5h6.6v1.9H92.7v-1.9H99.3z M97.8,444.6h-4.4v-2.1h14.5v2.1h-4.4l4.4,1.7v2.5l-7.3-2.8
		l-7.2,2.8v-2.5L97.8,444.6z M107.6,457H96.2v0.9h11.4v2H93.8V455h11.4v-0.9H93.8v-2h13.8V457z"/>
	<path class="st1" d="M125.7,442.4v17.5h-14v-7.2h2.6v1.6h8.8v-6.1h-3.3c-0.3,1.8-2.3,3.2-4.6,3.2c-2.5,0-4.4-1.5-4.4-3.6v-1.8
		c0-2.3,2.4-3.6,4.3-3.6h0.1c2.3,0,4.3,1.4,4.5,3.2h3.3v-3.3H125.7z M117.3,446.5c0-0.9-0.9-1.7-1.9-1.7c-1,0-1.9,0.8-1.9,1.7v0.9
		c0,0.9,0.9,1.7,1.9,1.7c1.1,0,1.9-0.7,1.9-1.7V446.5z M123.2,456.4h-8.8v1.3h8.8V456.4z"/>
</g>
<g>
	<path class="st1" d="M542.8,408.8v2.6l-2.5,1.9l2.6,2v3.1l-4.5-3.5l-4.7,3.6v-3.1l5.3-4h-5.3v-2.6H542.8z M549.9,414.6H548v7.5
		l-0.7,4.2h-2.5l0.7-4.2h-11v-2.2h10.8v-11.1h2.8v3.4h1.9V414.6z"/>
	<path class="st1" d="M556.3,417v-3.2h2.7v3.2h3.3l0.7-5.6h-10.8v-2.6h13.5v2.6L565,417h1.9v2.4H551V417H556.3z M565.9,422.8
		l-0.7,3.5h-2.8l0.7-3.5H552v-2.2h13.9V422.8z"/>
	<path class="st1" d="M590.6,423.8v2.4h-15.9v-2.4H590.6z M589.9,419.5h-14.5V417h2.5v-5.6h-2.5v-2.5h14.5v2.5h-2.3v5.6h2.3V419.5z
		 M580.7,417h4v-5.6h-4V417z"/>
	<path class="st1" d="M602.1,408.8v10h-6.4v4.9h6.6v2.4h-9.2v-10h6.4v-4.8h-6.4v-2.5H602.1z M607.7,426.3h-2.6v-17.5h2.6V426.3z"/>
	<path class="st1" d="M617.7,408.8v5.9h-5v1.8h5v2.2h-7.4v-6h5V411h-5v-2.1H617.7z M619,408.8h2.5v3.8h1.4v-3.8h2.6v17.5h-14v-6h2.7
		v3.5h8.8V415h-1.4v6.4H619V408.8z"/>
	<path class="st1" d="M635.7,426.2l-2.4-11.2l-2.4,11.2h-2.7l3.9-17.3h2.5l3.9,17.3H635.7z M643.3,426.3h-2.6V417h-3.1v-2.5h3.1
		v-5.7h2.6V426.3z"/>
	<path class="st1" d="M657.9,408.1v1.3h3.4v2H660c0.3,0.4,0.5,0.9,0.5,1.5c0,1.4-1.1,2.4-2.6,2.8v0.6h5.8v-7.6h2.7v3.5h1.9v2.1h-1.9
		v4h-14.8v-2.1h3.6v-0.6c-1.5-0.4-2.6-1.4-2.6-2.8c0-0.6,0.2-1.1,0.5-1.5h-1.3v-2h3.4v-1.3H657.9z M666.5,423.6h-11.2v0.6h11.2v2
		h-13.6v-4.6h11.2V421h-11.2v-2h13.6V423.6z M656.6,414c0.9,0,1.5-0.4,1.5-1.1c0-0.7-0.6-1.1-1.5-1.1c-0.9,0-1.5,0.4-1.5,1.1
		C655.1,413.6,655.7,414,656.6,414z"/>
	<path class="st1" d="M684.1,408.8v2.3h-10.6v1.6h10.6v2.3h-5.4v1.6h6.6v2.2h-15.9v-2.2h6.6V415h-5.4v-6.2H684.1z M681.3,419.9
		c1.8,0,3.3,1.4,3.3,3.2c0,1.8-1.5,3.2-3.3,3.2h-7.8c-1.8,0-3.3-1.4-3.3-3.2c0-1.8,1.5-3.2,3.3-3.2H681.3z M673.5,422.3
		c-0.4,0-0.8,0.4-0.8,0.8s0.4,0.8,0.8,0.8h7.8c0.4,0,0.8-0.4,0.8-0.8s-0.4-0.8-0.8-0.8H673.5z"/>
</g>
<g>
	<path class="st1" d="M637.2,757.4h6.6v2.2h-15.9v-2.2h6.6v-1.8h2.7V757.4z M633.3,751.8h-4.7v-2.1h14.5v2.1h-4.7l4.6,2.4v2.8
		l-7.2-3.9l-7.2,3.9v-2.8L633.3,751.8z M639.8,760.7c1.8,0,3.3,1.3,3.3,3.2c0,1.9-1.5,3.2-3.3,3.2H632c-1.8,0-3.3-1.3-3.3-3.2
		c0-1.9,1.5-3.2,3.3-3.2H639.8z M632,763c-0.6,0-1,0.4-1,0.9c0,0.5,0.4,0.9,1,0.9h7.8c0.6,0,1-0.4,1-0.9c0-0.5-0.4-0.9-1-0.9H632z"
		/>
	<path class="st1" d="M652.4,764.6v-3.3h-5.5v-6.9h11v-2.2h-11v-2.5h13.5v7h-11v2.1h11.2v2.5h-5.6v3.3h6.7v2.5h-15.9v-2.5H652.4z"/>
	<path class="st1" d="M674.2,764.7l1-12.4h-10.6v-2.5H678v2.5l-1,12.4h2.4v2.4h-15.9v-2.4H674.2z"/>
	<path class="st1" d="M690.8,749.7v6.2h-6.6v1.4h6.8v2.3h-9.4v-6.2h6.6v-1.3h-6.6v-2.4H690.8z M685.1,764.6h8.7v-15h2.6v17.5h-14
		v-5.7h2.7V764.6z"/>
	<path class="st1" d="M706,759.5h-2.9l0.6-3.1h-4.5v-2.3h4.9l0.4-1.9H699v-2.5h8.4v2.4L706,759.5z M711.5,760.7V756H708v-2.5h3.4
		v-3.9h2.8v17.5h-14.1v-6.4H711.5z M702.9,764.7h8.6v-1.5h-8.6V764.7z"/>
	<path class="st1" d="M732.6,759.9v2.3h-3.5v4.8h-2.6v-4.8h-3.7v4.8h-2.6v-4.8h-3.5v-2.3H732.6z M731.9,758.5h-14.5V756h2.5v-3.8
		h-2.5v-2.5h14.5v2.5h-2.3v3.8h2.3V758.5z M722.7,756h4v-3.8h-4V756z"/>
	<path class="st1" d="M735,749.7h8.3v2.5h-5.5v4.7h5.1v2.5h-5.1v5.2h5.8v2.5H735V749.7z M749.8,767.1h-2.6v-7.7h-2.9v-2.6h2.9v-7.2
		h2.6V767.1z"/>
	<path class="st1" d="M761.9,754v8.6c0,2.5-2.1,4.4-4.6,4.4s-4.6-2-4.6-4.4V754c0-2.5,2-4.4,4.6-4.4S761.9,751.5,761.9,754z
		 M755.4,754v8.6c0,1,0.9,1.9,1.9,1.9c1.1,0,1.9-0.8,1.9-1.9V754c0-1-0.9-1.9-1.9-1.9C756.2,752.2,755.4,753,755.4,754z M767,756.9
		h1.9v2.5H767v7.7h-2.6v-17.5h2.6V756.9z"/>
	<path class="st1" d="M785.9,764.7v2.4H770v-2.4H785.9z M785.1,749.7v2.5h-11.3v2.1h11.3v2.5h-11.3v2h11.3v2.5h-14.2v-11.6H785.1z"
		/>
	<path class="st1" d="M794.2,750.2h3.4v2.2h-2.3c1,0.6,1.7,1.6,1.7,2.7v1.2c0,1.8-2,3.3-4.2,3.3c-2.3,0-4.1-1.5-4.1-3.3v-1.1
		c0-1.2,0.7-2.2,1.7-2.8h-2.3v-2.2h3.4V749h2.6V750.2z M804.5,755.4h-1.9v7.6l-0.7,4h-2.5l0.7-4h-11v-2.2h10.8v-11.3h2.8v3.3h1.9
		V755.4z M794.6,755.6c0-0.9-0.8-1.6-1.7-1.6c-1,0-1.8,0.7-1.8,1.6v0.3c0,0.9,0.8,1.6,1.8,1.6c1,0,1.7-0.7,1.7-1.6V755.6z"/>
	<path class="st1" d="M810.4,760.5h-4.8v-2.4h12.7v-2.8h-2.4v-2.5h2.4v-3.3h2.6v13.6h-2.6v-2.7h-5.3v2.5h-2.5V760.5z M810.5,749.6
		c2.2,0,4.2,1.5,4.2,3.3v1.2c0,1.8-2,3.3-4.2,3.3c-2.3,0-4.1-1.5-4.1-3.3V753c0-2.1,2.2-3.4,4-3.4H810.5z M820.8,767.1h-14.4v-4.2
		h2.6v1.8h11.8V767.1z M812.3,753.4c0-0.9-0.8-1.6-1.7-1.6s-1.8,0.7-1.8,1.6v0.4c0,0.9,0.8,1.6,1.8,1.6s1.7-0.7,1.7-1.6V753.4z"/>
	<path class="st1" d="M575.4,783.3h9.4v2.6h-6.6v12.2h6.6v2.5h-9.4V783.3z M587.5,800.7v-17.5h2.6v17.5H587.5z"/>
	<path class="st1" d="M600,791.4l3.5,9.3h-2.9l-2.2-5.9l-2.7,5.9h-3l6.8-14.8H593v-2.5h9.6v2.5L600,791.4z M607.8,800.7h-2.6v-17.5
		h2.6V800.7z"/>
	<path class="st1" d="M610.6,783.3h8.2v2.1h-5.5v1.1h5.2v2h-5.2v1h5.8v2.1h-8.5V783.3z M623.1,792.6v-4h-3.2v-2.1h3.2v-3.2h2.5v14.4
		h-11.4v1h11.4v2.2h-14v-5.1H623v-0.9h-11.4v-2.1H623.1z"/>
	<path class="st1" d="M628.7,783.3h9.4v2.6h-6.6v12.2h6.6v2.5h-9.4V783.3z M640.8,800.7v-17.5h2.6v17.5H640.8z"/>
	<path class="st1" d="M652.5,791.4l3.1,9.3h-2.9l-1.7-5.3l-1.9,5.3h-2.9l5.3-14.8h-5.2v-2.6h8.2v2.6L652.5,791.4z M658.2,800.7
		v-17.5h2.5v6h1.9v2.4h-1.9v9.1H658.2z"/>
	<path class="st1" d="M669.5,783.3c2.2,0,4,1.8,4,4v1.9c0,2.2-1.8,4-4,4h-1.5c-2.2,0-4-1.8-4-4v-1.9c0-2.2,1.8-4,4-4H669.5z
		 M667.5,798.2h8.8v-15h2.6v17.5h-14V795h2.6V798.2z M668.1,785.9c-0.8,0-1.5,0.7-1.5,1.5v1.9c0,0.8,0.7,1.5,1.5,1.5h1.5
		c0.8,0,1.5-0.7,1.5-1.5v-1.9c0-0.8-0.7-1.5-1.5-1.5H668.1z"/>
	<path class="st1" d="M685.8,783.2c-1.5,2.7-2.2,5.6-2.2,8.5c0,2.9,0.7,5.8,2.2,8.4h-2.5c-1.5-2.6-2.3-5.5-2.3-8.4
		c0-2.9,0.8-5.8,2.3-8.5H685.8z"/>
	<path class="st1" d="M687.6,793.1v-9.7h2.6v2.8h3.6v-2.8h2.5v9.7H687.6z M691,798.4h8.3v-15.2h2.6v4.1h1.9v2.5h-1.9v10.9h-13.5
		v-6.1h2.6V798.4z M693.8,790.5v-2h-3.6v2H693.8z"/>
	<path class="st1" d="M720.8,791.1v2.3h-15.9v-2.3H720.8z M709,794.5h7.8c1.8,0,3.3,1.3,3.3,3.1c0,1.8-1.5,3.1-3.3,3.1H709
		c-1.8,0-3.3-1.3-3.3-3.1C705.7,795.8,707.1,794.5,709,794.5z M709,790c-1.8,0-3.1-1.3-3.1-3.4c0-2,1.4-3.3,3.1-3.3h7.8
		c1.7,0,3.1,1.2,3.1,3.3c0,2.1-1.4,3.4-3.1,3.4H709z M709,798.5h7.8c0.4,0,0.8-0.4,0.8-0.9s-0.4-0.9-0.8-0.9H709
		c-0.4,0-0.8,0.4-0.8,0.9S708.5,798.5,709,798.5z M716.6,787.5c0.5,0,0.7-0.4,0.7-0.9c0-0.5-0.3-0.9-0.7-0.9H709
		c-0.5,0-0.7,0.4-0.7,0.9c0,0.4,0.3,0.9,0.7,0.9H716.6z"/>
	<path class="st1" d="M729,783.9h3.4v2.2h-3.1c1.4,0.5,2.4,1.6,2.4,2.8v1.3c0,1.7-1.9,3.1-4.1,3.1s-4-1.4-4-3.1v-1.3
		c0-1.3,1-2.4,2.3-2.9H723v-2.2h3.4v-1.3h2.6V783.9z M734.7,794.8c1.8,0,3.3,1.1,3.3,3c0,1.8-1.5,3-3.3,3h-7.6c-1.8,0-3.3-1.1-3.3-3
		c0-1.8,1.5-3,3.3-3H734.7z M729.4,789.3c0-0.8-0.8-1.4-1.7-1.4c-0.9,0-1.7,0.6-1.7,1.4v0.4c0,0.8,0.8,1.4,1.7,1.4
		c0.9,0,1.7-0.6,1.7-1.4V789.3z M727.2,797c-0.4,0-0.8,0.4-0.8,0.8s0.4,0.8,0.8,0.8h7.4c0.4,0,0.8-0.4,0.8-0.8s-0.4-0.8-0.8-0.8
		H727.2z M737.9,793.7h-2.6v-2.4h-1.9V789h1.9v-1.5h-1.9v-2.3h1.9v-2h2.6V793.7z"/>
	<path class="st1" d="M749.9,792.6h-4.1v1.1h-2.5v-1.1h-2.9v-1.9h9.5V788h-1.3v-2.1h1.3v-2.7h2.2v10.5h-2.2V792.6z M743.3,790
		c-1.5,0-2.6-1.4-2.6-2.9v-0.9c0-1.4,1.1-2.9,2.6-2.9h2.2c1.5,0,2.6,1.6,2.6,2.9v0.9c0,1.4-1.1,2.9-2.6,2.9H743.3z M744.2,794.3v1.1
		h9.2v-12.2h2.3v17.5h-13.8v-6.4H744.2z M743,786.9c0,0.6,0.4,1.1,1,1.1h0.8c0.6,0,1-0.6,1-1.1v-0.6c0-0.5-0.4-1.1-1-1.1H744
		c-0.7,0-1,0.7-1,1.1V786.9z M753.4,797.5h-9.2v1h9.2V797.5z"/>
	<path class="st1" d="M760.3,783.2c1.5,2.7,2.3,5.6,2.3,8.5c0,2.9-0.8,5.8-2.3,8.4h-2.5c1.5-2.6,2.2-5.5,2.2-8.4
		c0-2.9-0.7-5.8-2.2-8.5H760.3z"/>
	<path class="st1" d="M766.4,790.1h2.7v8.3h6.8v-15.2h2.8v5.4h1.9v2.5h-1.9v9.6h-14.8v-2.4h2.5V790.1z M773.7,783.3v12.3H771v-9.9
		h-6.6v-2.4H773.7z"/>
	<path class="st1" d="M791.3,783.3v2.4l-2.6,2l2.6,2v2.9l-4.4-3.5l-4.7,3.6v-2.9l5.3-4.2h-5.3v-2.4H791.3z M793.7,794.1
		c1.8,0,3.3,1.5,3.3,3.3c0,1.8-1.5,3.3-3.3,3.3h-7.6c-1.8,0-3.3-1.5-3.3-3.3c0-1.8,1.5-3.3,3.3-3.3H793.7z M786.2,796.6
		c-0.4,0-0.8,0.4-0.8,0.8s0.4,0.8,0.8,0.8h7.6c0.4,0,0.8-0.4,0.8-0.8s-0.4-0.8-0.8-0.8H786.2z M794.4,786.7v-3.4h2.6v9.8h-2.6v-3.8
		h-2.2v-2.5H794.4z"/>
	<path class="st1" d="M821.3,794.1v2.3h-6.7v4.3H812v-4.3h-6.7v-2.3H821.3z M806.1,786.9c0-2,1.6-3.6,3.7-3.6h7.1
		c2,0,3.7,1.6,3.7,3.6v1.1c0,2-1.6,3.6-3.7,3.6h-7.1c-2,0-3.7-1.6-3.7-3.6V786.9z M810.3,789.2h6c1,0,1.6-0.8,1.6-1.7
		c0-0.9-0.6-1.7-1.6-1.7h-6c-1,0-1.6,0.8-1.6,1.7C808.7,788.4,809.3,789.2,810.3,789.2z"/>
	<path class="st1" d="M829.8,795.6h-6.7v-2.4h15.9v2.4h-6.6v5.2h-2.6V795.6z M838.6,791.4h-3.4l-3-5h-2l-3,5h-3.5l5.1-8.1h4.8
		L838.6,791.4z"/>
	<path class="st1" d="M847.6,795.6h-6.7v-2.4h15.9v2.4h-6.6v5.2h-2.6V795.6z M856.4,791.4H853l-4-5l-4,5h-3.5l6.3-8.1h2.2
		L856.4,791.4z"/>
	<path class="st1" d="M862.5,798.3V795h-2.6v-7h10.7v-2.1h-10.7v-2.6h13.5v7.1h-10.7v2h10.8v2.6h-2.4v3.2h3.4v2.5h-15.9v-2.5H862.5z
		 M865.2,798.3h3.1V795h-3.1V798.3z"/>
	<path class="st1" d="M660,816.9c-1.5,2.7-2.2,5.6-2.2,8.5c0,2.9,0.7,5.8,2.2,8.4h-2.5c-1.5-2.6-2.3-5.5-2.3-8.4
		c0-2.9,0.8-5.8,2.3-8.5H660z"/>
	<path class="st1" d="M670.3,825.3l-0.1,0.2l0.1,0.1c0.4,0.4,0.7,0.9,0.9,1.4c0.6,1.4,0.6,2.8,0,4.2c-0.4,1-1.1,1.8-2.1,2.3
		c-1.4,0.6-2.8,0.5-4.3,0.5c-2.2,0-4.1-1.9-4.1-4.1v-0.5h2.5c0,0.2,0,0.5,0.1,0.7c0.4,1,1.8,1.2,2.7,1.2c0.6,0,1.4-0.1,1.9-0.5
		c0.7-0.5,0.9-1.6,0.6-2.5c-0.2-0.8-0.8-1.3-1.7-1.5c-0.4-0.1-0.9-0.1-1.5-0.1h-0.8v-2.4h0.8c0.6,0,1.1,0,1.5-0.1
		c0.4-0.1,0.8-0.2,1.1-0.4c0.8-0.6,0.9-1.9,0-2.7c-1-0.9-4.7-0.9-4.7,1.4h-2.5v-0.5c0-2.7,2.4-4.1,4.8-4.1c1.2,0,1.3,0,1.4,0
		c0.4,0,0.8,0.1,1.1,0.1c0.7,0.1,1.4,0.5,1.9,0.9c0.6,0.5,1.1,1.1,1.3,1.9C671.8,822.4,671.6,824.1,670.3,825.3z"/>
	<path class="st1" d="M677.5,819.5h-4.7V817h7.4v2.5l-2.1,14.8h-2.8L677.5,819.5z M681.7,834.4v-17.5h2.6v6.1h1.6v-6.1h2.6v17.5H686
		v-8.9h-1.6v8.9H681.7z"/>
	<path class="st1" d="M706,831.7h-11.3v0.7H706v1.9h-13.7v-4.5h11.3v-0.6h-11.3v-1.9h11.1v-1.7h-6.1v1.3h-2.5v-1.3h-4v-1.9h12.7
		v-2.2h-1.9v-2.1h1.9v-2.6h2.6V831.7z M694.1,823.2c-1.5,0-2.6-1.5-2.6-3v-0.4c0-1.4,1.1-2.9,2.6-2.9h3.7c1.5,0,2.6,1.6,2.6,2.9v0.4
		c0,1.4-1.1,3-2.6,3H694.1z M694.9,821h2.1c0.6,0,0.9-0.6,0.9-0.9c0-0.3-0.3-0.9-0.9-0.9h-2.1c-0.7,0-0.9,0.7-0.9,0.9
		C694,820.4,694.3,821,694.9,821z"/>
	<path class="st1" d="M708.3,834.8l0.4-3h2.7l-0.6,3H708.3z"/>
	<path class="st1" d="M727.8,825.3l-0.1,0.2l0.1,0.1c0.4,0.4,0.7,0.9,0.9,1.4c0.6,1.4,0.6,2.8,0,4.2c-0.4,1-1.1,1.8-2.1,2.3
		c-1.4,0.6-2.8,0.5-4.3,0.5c-2.2,0-4.1-1.9-4.1-4.1v-0.5h2.5c0,0.2,0,0.5,0.1,0.7c0.4,1,1.8,1.2,2.7,1.2c0.6,0,1.4-0.1,1.9-0.5
		c0.7-0.5,0.9-1.6,0.6-2.5c-0.2-0.8-0.8-1.3-1.7-1.5c-0.4-0.1-0.9-0.1-1.5-0.1h-0.8v-2.4h0.8c0.6,0,1.1,0,1.5-0.1
		c0.4-0.1,0.8-0.2,1.1-0.4c0.8-0.6,0.9-1.9,0-2.7c-1-0.9-4.7-0.9-4.7,1.4h-2.5v-0.5c0-2.7,2.4-4.1,4.8-4.1c1.2,0,1.3,0,1.4,0
		c0.4,0,0.8,0.1,1.1,0.1c0.7,0.1,1.4,0.5,1.9,0.9c0.6,0.5,1.1,1.1,1.3,1.9C729.3,822.4,729.1,824.1,727.8,825.3z"/>
	<path class="st1" d="M730.2,830.3c2.2-1.6,4.2-3.4,6-5.1c1-0.9,1.4-1.4,1.4-2.8c0-1.1-0.9-1.9-1.9-1.9h-1.3c-1,0-1.9,0.9-1.9,1.9
		v0.6H730v-1c0-2.3,1.9-4.1,4.1-4.1h2c2.3,0,4.1,1.9,4.1,4.1v0.4c0,1.9-0.3,3-1.8,4.4c-1.8,1.7-3.7,3.4-5.7,4.8h7.2v2.4h-9.8V830.3z
		"/>
	<path class="st1" d="M748.2,818c2.4,0,4.3,1.9,4.3,4.3v7.2c0,2.4-1.9,4.3-4.3,4.3h-2.4c-2.4,0-4.3-1.9-4.3-4.3v-7.2
		c0-2.4,1.9-4.3,4.3-4.3H748.2z M749.9,822.8c0-1.1-0.9-2-1.9-2h-1.7c-1.1,0-1.9,0.9-1.9,2v6.3c0,1.1,0.9,2,1.9,2h1.7
		c1.1,0,1.9-0.9,1.9-2V822.8z"/>
	<path class="st1" d="M762.3,834.3l-2.6-11.3l-2.6,11.3h-2.7l4-17.3h2.5l4,17.3H762.3z M769.7,834.4h-2.6v-17.5h2.6V834.4z"/>
	<path class="st1" d="M772.1,817h8.6v2.5l-0.8,6.9h-2.8l0.8-6.9h-5.8V817z M773.9,834.4v-5.6h2.6v3.2h7.7v-15.1h2.7v4.5h1.9v2.2
		h-1.9v10.8H773.9z"/>
	<path class="st1" d="M792.1,816.9c1.5,2.7,2.3,5.6,2.3,8.5c0,2.9-0.8,5.8-2.3,8.4h-2.5c1.5-2.6,2.2-5.5,2.2-8.4
		c0-2.9-0.7-5.8-2.2-8.5H792.1z"/>
</g>
<g>
	<path class="st1" d="M236.1,757.4h6.6v2.2h-15.9v-2.2h6.6v-1.8h2.7V757.4z M232.2,751.8h-4.7v-2.1H242v2.1h-4.7l4.6,2.4v2.8
		l-7.2-3.9l-7.2,3.9v-2.8L232.2,751.8z M238.6,760.7c1.8,0,3.3,1.3,3.3,3.2c0,1.9-1.5,3.2-3.3,3.2h-7.8c-1.8,0-3.3-1.3-3.3-3.2
		c0-1.9,1.5-3.2,3.3-3.2H238.6z M230.9,763c-0.6,0-1,0.4-1,0.9c0,0.5,0.4,0.9,1,0.9h7.8c0.6,0,1-0.4,1-0.9c0-0.5-0.4-0.9-1-0.9
		H230.9z"/>
	<path class="st1" d="M251.2,764.6v-3.3h-5.5v-6.9h11v-2.2h-11v-2.5h13.5v7h-11v2.1h11.2v2.5h-5.6v3.3h6.7v2.5h-15.9v-2.5H251.2z"/>
	<path class="st1" d="M273.1,764.7l1-12.4h-10.6v-2.5h13.4v2.5l-1,12.4h2.4v2.4h-15.9v-2.4H273.1z"/>
	<path class="st1" d="M289.7,749.7v6.2h-6.6v1.4h6.8v2.3h-9.4v-6.2h6.6v-1.3h-6.6v-2.4H289.7z M284,764.6h8.7v-15h2.6v17.5h-14v-5.7
		h2.7V764.6z"/>
	<path class="st1" d="M304.9,759.5H302l0.6-3.1h-4.5v-2.3h4.9l0.4-1.9h-5.5v-2.5h8.4v2.4L304.9,759.5z M310.3,760.7V756h-3.4v-2.5
		h3.4v-3.9h2.8v17.5h-14.1v-6.4H310.3z M301.8,764.7h8.6v-1.5h-8.6V764.7z"/>
	<path class="st1" d="M331.5,759.9v2.3H328v4.8h-2.6v-4.8h-3.7v4.8h-2.6v-4.8h-3.5v-2.3H331.5z M330.8,758.5h-14.5V756h2.5v-3.8
		h-2.5v-2.5h14.5v2.5h-2.3v3.8h2.3V758.5z M321.6,756h4v-3.8h-4V756z"/>
	<path class="st1" d="M333.8,749.7h8.3v2.5h-5.5v4.7h5.1v2.5h-5.1v5.2h5.8v2.5h-8.6V749.7z M348.6,767.1H346v-7.7h-2.9v-2.6h2.9
		v-7.2h2.6V767.1z"/>
	<path class="st1" d="M360.7,754v8.6c0,2.5-2.1,4.4-4.6,4.4c-2.5,0-4.6-2-4.6-4.4V754c0-2.5,2-4.4,4.6-4.4
		C358.7,749.6,360.7,751.5,360.7,754z M354.2,754v8.6c0,1,0.9,1.9,1.9,1.9c1.1,0,1.9-0.8,1.9-1.9V754c0-1-0.9-1.9-1.9-1.9
		C355.1,752.2,354.2,753,354.2,754z M365.9,756.9h1.9v2.5h-1.9v7.7h-2.6v-17.5h2.6V756.9z"/>
	<path class="st1" d="M384.8,764.7v2.4h-15.9v-2.4H384.8z M384,749.7v2.5h-11.3v2.1H384v2.5h-11.3v2H384v2.5h-14.2v-11.6H384z"/>
	<path class="st1" d="M393.1,750.2h3.4v2.2h-2.3c1,0.6,1.7,1.6,1.7,2.7v1.2c0,1.8-2,3.3-4.2,3.3c-2.3,0-4.1-1.5-4.1-3.3v-1.1
		c0-1.2,0.7-2.2,1.7-2.8H387v-2.2h3.4V749h2.6V750.2z M403.3,755.4h-1.9v7.6l-0.7,4h-2.5l0.7-4h-11v-2.2h10.8v-11.3h2.8v3.3h1.9
		V755.4z M393.5,755.6c0-0.9-0.8-1.6-1.7-1.6c-1,0-1.8,0.7-1.8,1.6v0.3c0,0.9,0.8,1.6,1.8,1.6c1,0,1.7-0.7,1.7-1.6V755.6z"/>
	<path class="st1" d="M409.3,760.5h-4.8v-2.4h12.7v-2.8h-2.4v-2.5h2.4v-3.3h2.6v13.6h-2.6v-2.7h-5.3v2.5h-2.5V760.5z M409.4,749.6
		c2.2,0,4.2,1.5,4.2,3.3v1.2c0,1.8-2,3.3-4.2,3.3c-2.3,0-4.1-1.5-4.1-3.3V753c0-2.1,2.2-3.4,4-3.4H409.4z M419.7,767.1h-14.4v-4.2
		h2.6v1.8h11.8V767.1z M411.2,753.4c0-0.9-0.8-1.6-1.7-1.6c-1,0-1.8,0.7-1.8,1.6v0.4c0,0.9,0.8,1.6,1.8,1.6c1,0,1.7-0.7,1.7-1.6
		V753.4z"/>
	<path class="st1" d="M215.6,783.3h9.4v2.6h-6.6v12.2h6.6v2.5h-9.4V783.3z M227.6,800.7v-17.5h2.6v17.5H227.6z"/>
	<path class="st1" d="M240.2,791.4l3.5,9.3h-2.9l-2.2-5.9l-2.7,5.9h-3l6.8-14.8h-6.5v-2.5h9.6v2.5L240.2,791.4z M248,800.7h-2.6
		v-17.5h2.6V800.7z"/>
	<path class="st1" d="M250.8,783.3h8.2v2.1h-5.5v1.1h5.2v2h-5.2v1h5.8v2.1h-8.5V783.3z M263.2,792.6v-4H260v-2.1h3.2v-3.2h2.5v14.4
		h-11.4v1h11.4v2.2h-14v-5.1h11.4v-0.9h-11.4v-2.1H263.2z"/>
	<path class="st1" d="M268.9,783.3h9.4v2.6h-6.6v12.2h6.6v2.5h-9.4V783.3z M280.9,800.7v-17.5h2.6v17.5H280.9z"/>
	<path class="st1" d="M292.7,791.4l3.1,9.3h-2.9l-1.7-5.3l-1.9,5.3h-2.9l5.3-14.8h-5.2v-2.6h8.2v2.6L292.7,791.4z M298.3,800.7
		v-17.5h2.5v6h1.9v2.4h-1.9v9.1H298.3z"/>
	<path class="st1" d="M309.7,783.3c2.2,0,4,1.8,4,4v1.9c0,2.2-1.8,4-4,4h-1.5c-2.2,0-4-1.8-4-4v-1.9c0-2.2,1.8-4,4-4H309.7z
		 M307.6,798.2h8.8v-15h2.6v17.5h-14V795h2.6V798.2z M308.2,785.9c-0.8,0-1.5,0.7-1.5,1.5v1.9c0,0.8,0.7,1.5,1.5,1.5h1.5
		c0.8,0,1.5-0.7,1.5-1.5v-1.9c0-0.8-0.7-1.5-1.5-1.5H308.2z"/>
	<path class="st1" d="M327.9,783.9h3.4v2.2h-3.1c1.4,0.5,2.4,1.6,2.4,2.8v1.3c0,1.7-1.9,3.1-4.1,3.1c-2.2,0-4-1.4-4-3.1v-1.3
		c0-1.3,1-2.4,2.3-2.9h-2.9v-2.2h3.4v-1.3h2.6V783.9z M333.4,794.3c1.8,0,3.3,1.4,3.3,3.2c0,1.8-1.5,3.2-3.3,3.2h-7.6
		c-1.8,0-3.3-1.4-3.3-3.2c0-1.8,1.5-3.2,3.3-3.2H333.4z M328.3,789.3c0-0.8-0.8-1.4-1.7-1.4s-1.7,0.6-1.7,1.4v0.4
		c0,0.8,0.8,1.4,1.7,1.4s1.7-0.6,1.7-1.4V789.3z M325.8,796.7c-0.4,0-0.8,0.4-0.8,0.8s0.4,0.8,0.8,0.8h7.6c0.4,0,0.8-0.4,0.8-0.8
		s-0.4-0.8-0.8-0.8H325.8z M333.5,793.2v-10h2.8v2h1.9v2.2h-1.9v1.6h1.9v2.2h-1.9v2H333.5z"/>
	<path class="st1" d="M349.5,791.8h-2.9l-2.1-5.8l-2.4,5.8h-2.9l3.4-8.5h3.7L349.5,791.8z M343.6,794.1h7.5c1.8,0,3.3,1.5,3.3,3.3
		c0,1.8-1.5,3.3-3.3,3.3h-7.5c-1.8,0-3.3-1.5-3.3-3.3C340.3,795.6,341.8,794.1,343.6,794.1z M343.7,798.4h7.5c0.5,0,0.8-0.5,0.8-1
		s-0.3-1-0.8-1h-7.5c-0.5,0-0.8,0.5-0.8,1S343.2,798.4,343.7,798.4z M351.5,792.4v-9.2h2.6v3.3h1.9v2.5h-1.9v3.4H351.5z"/>
	<path class="st1" d="M359.5,790.1h2.7v8.3h6.8v-15.2h2.8v5.4h1.9v2.5h-1.9v9.6h-14.8v-2.4h2.5V790.1z M366.9,783.3v12.3h-2.7v-9.9
		h-6.6v-2.4H366.9z"/>
	<path class="st1" d="M384.4,783.3v2.4l-2.6,2l2.6,2v2.9l-4.4-3.5l-4.7,3.6v-2.9l5.3-4.2h-5.3v-2.4H384.4z M386.9,794.1
		c1.8,0,3.3,1.5,3.3,3.3c0,1.8-1.5,3.3-3.3,3.3h-7.6c-1.8,0-3.3-1.5-3.3-3.3c0-1.8,1.5-3.3,3.3-3.3H386.9z M379.3,796.6
		c-0.4,0-0.8,0.4-0.8,0.8s0.4,0.8,0.8,0.8h7.6c0.4,0,0.8-0.4,0.8-0.8s-0.4-0.8-0.8-0.8H379.3z M387.5,786.7v-3.4h2.6v9.8h-2.6v-3.8
		h-2.2v-2.5H387.5z"/>
	<path class="st1" d="M405.2,795.6h-6.7v-2.4h15.9v2.4h-6.6v5.2h-2.6V795.6z M414,791.4h-3.4l-4-5l-4,5h-3.5l6.3-8.1h2.2L414,791.4z
		"/>
	<path class="st1" d="M420.1,798.3V795h-2.6v-7h10.7v-2.1h-10.7v-2.6H431v7.1h-10.7v2h10.8v2.6h-2.4v3.2h3.4v2.5h-15.9v-2.5H420.1z
		 M422.9,798.3h3.1V795h-3.1V798.3z"/>
	<path class="st1" d="M257.2,816.9c-1.5,2.7-2.2,5.6-2.2,8.5c0,2.9,0.7,5.8,2.2,8.4h-2.5c-1.5-2.6-2.3-5.5-2.3-8.4
		c0-2.9,0.8-5.8,2.3-8.5H257.2z"/>
	<path class="st1" d="M256.4,835.4h0.5c1.1,0,1.7-0.7,1.7-1.7v-11.6h2.7v11.5c0,2.6-1.3,4.3-4.3,4.3h-0.5V835.4z M261.2,820.8h-2.6
		v-2.7h2.6V820.8z"/>
	<path class="st1" d="M269.7,818.1c2.5,0,4.6,2.1,4.6,4.6v6.6c0,0.7-0.2,1.4-0.5,2.1l2,2.5h-2.7l-0.7-0.9c-0.7,0.5-1.7,0.9-2.7,0.9
		h-1.8c-2.5,0-4.6-2.1-4.6-4.6v-6.6c0-2.5,2.1-4.6,4.6-4.6H269.7z M271.5,828.4v-5.5c0-1.1-0.7-2-1.7-2h-1.8c-1.1,0-1.8,0.9-1.8,2
		v6.3c0,1.1,0.7,2,1.8,2h1.8c0.4,0,0.7-0.1,0.9-0.3l-3.1-3.9h2.8L271.5,828.4z"/>
	<path class="st1" d="M282,831.2c1.5,0,1.9-0.8,1.9-1.8v-7.4h2.7v11.8H284v-0.3c-0.5,0.2-1.1,0.3-1.7,0.3h-1.2c-2.8,0-4.1-2-4.1-4
		v-7.7h2.7v7.2c0,1.1,0.3,1.9,1.9,1.9H282z"/>
	<path class="st1" d="M288.3,826.3c0-2.3,1.9-4.2,3.8-4.2h2.6c2.4,0,3.8,2.2,3.8,4.1v3H291v0.6c0,1.1,0.7,1.5,1.7,1.5h5.4v2.6h-6
		c-2.1,0-3.8-1.7-3.8-4V826.3z M291,827h4.8v-0.1c0-1.2-0.7-2.1-1.7-2.1h-1.4c-1,0-1.6,1-1.6,2.1V827z"/>
	<path class="st1" d="M308,822.3h0.3v2.9H308c-2.2,0-4.9,2-4.9,3.8v4.9h-2.9V822h2.9v2.5C304,823,306.1,822.3,308,822.3z"/>
	<path class="st1" d="M314.4,837.9h-2.6l1.2-4.1l-3.6-11.7h2.6l2.3,7.5l2.2-7.5h2.6L314.4,837.9z"/>
	<path class="st1" d="M320.1,834.8l0.4-3h2.7l-0.6,3H320.1z"/>
	<path class="st1" d="M339.5,825.3l-0.1,0.2l0.1,0.1c0.4,0.4,0.7,0.9,0.9,1.4c0.6,1.4,0.6,2.8,0,4.2c-0.4,1-1.1,1.8-2.1,2.3
		c-1.4,0.6-2.8,0.5-4.3,0.5c-2.2,0-4.1-1.9-4.1-4.1v-0.5h2.5c0,0.2,0,0.5,0.1,0.7c0.4,1,1.8,1.2,2.7,1.2c0.6,0,1.4-0.1,1.9-0.5
		c0.7-0.5,0.9-1.6,0.6-2.5c-0.2-0.8-0.8-1.3-1.7-1.5c-0.4-0.1-0.9-0.1-1.5-0.1h-0.8v-2.4h0.8c0.6,0,1.1,0,1.5-0.1
		c0.4-0.1,0.8-0.2,1.1-0.4c0.8-0.6,0.9-1.9,0-2.7c-1-0.9-4.7-0.9-4.7,1.4H330v-0.5c0-2.7,2.4-4.1,4.8-4.1c1.2,0,1.3,0,1.4,0
		c0.4,0,0.8,0.1,1.1,0.1c0.7,0.1,1.4,0.5,1.9,0.9c0.6,0.5,1.1,1.1,1.3,1.9C341.1,822.4,340.9,824.1,339.5,825.3z"/>
	<path class="st1" d="M348.8,818c2.4,0,4.3,1.9,4.3,4.3v7.2c0,2.4-1.9,4.3-4.3,4.3h-2.4c-2.4,0-4.3-1.9-4.3-4.3v-7.2
		c0-2.4,1.9-4.3,4.3-4.3H348.8z M350.4,822.8c0-1.1-0.9-2-1.9-2h-1.7c-1.1,0-1.9,0.9-1.9,2v6.3c0,1.1,0.9,2,1.9,2h1.7
		c1.1,0,1.9-0.9,1.9-2V822.8z"/>
	<path class="st1" d="M362.9,834.3l-2.6-11.3l-2.6,11.3H355l4-17.3h2.5l4,17.3H362.9z M370.2,834.4h-2.6v-17.5h2.6V834.4z"/>
	<path class="st1" d="M372.7,817h8.6v2.5l-0.8,6.9h-2.8l0.8-6.9h-5.8V817z M374.5,834.4v-5.6h2.6v3.2h7.7v-15.1h2.7v4.5h1.9v2.2
		h-1.9v10.8H374.5z"/>
	<path class="st1" d="M392.6,816.9c1.5,2.7,2.3,5.6,2.3,8.5c0,2.9-0.8,5.8-2.3,8.4h-2.5c1.5-2.6,2.2-5.5,2.2-8.4
		c0-2.9-0.7-5.8-2.2-8.5H392.6z"/>
</g>
<g>
	<path class="st1" d="M283.5,16.7V8.8h2.9v7.9h3.7l1-13.2h-11.4V0.9h14.4v2.6l-1,13.2h2.4v2.6h-16.9v-2.6H283.5z"/>
	<path class="st1" d="M302.4,16.7V8.8h2.9v7.9h3.7l1-13.2h-11.4V0.9H313v2.6l-1,13.2h2.4v2.6h-16.9v-2.6H302.4z"/>
	<path class="st1" d="M316.6,10.9V0.8h2.7v2.9h2.2V0.8h2.7v10.2H316.6z M320.4,16.6h12.1v2.7h-14.9v-6.4h2.8V16.6z M321.5,8.2v-2
		h-2.2v2H321.5z M325.6,0.7h2.7v4h1.5v-4h2.7v13.5h-2.7V7.3h-1.5v6.9h-2.7V0.7z"/>
	<path class="st1" d="M351,3.2l-1.2,13.2h2.3v2.9h-16.9v-2.9h5.2v-3.5h2.9v3.5h3.6l0.5-5.8h-11.1V8h11.3l0.4-4.7h-11.8V0.8H351V3.2z
		"/>
	<path class="st1" d="M364.3,0.8v10.6h-6.8v5.2h7v2.6h-9.8V8.6h6.8V3.4h-6.8V0.8H364.3z M370.4,19.3h-2.7V0.7h2.7V19.3z"/>
	<path class="st1" d="M383.2,5.4v9.2c0,2.6-2.2,4.7-4.9,4.7c-2.7,0-4.8-2.1-4.8-4.7V5.4c0-2.6,2.2-4.7,4.8-4.7
		C381,0.7,383.2,2.8,383.2,5.4z M376.3,5.4v9.2c0,1.1,0.9,2,2,2c1.1,0,2-0.9,2-2V5.4c0-1.1-0.9-2-2-2C377.2,3.4,376.3,4.3,376.3,5.4
		z M388.7,8.4h2v2.7h-2v8.2H386V0.7h2.8V8.4z"/>
	<path class="st1" d="M285.5,55V36.6h9.7V55H285.5z M288.5,52.4h3.6V39.2h-3.6V52.4z M297.7,55.1V36.5h2.8v6.2h2v2.7h-2v9.8H297.7z"
		/>
	<path class="st1" d="M307.8,46.3h-4v-2.7h4.4l0.6-4.4h-5.1v-2.6h8.1v2.6l-0.6,4.4h2.3v-7.1h2.6v18.6h-2.6v-8.9h-2.6l-1.3,8.8h-3
		L307.8,46.3z M320.3,55.1h-2.6V36.5h2.6V55.1z"/>
	<path class="st1" d="M323,36.6h9.1v2.5h-5.9v1.4h5.6v2.4h-5.6v1.3h6.2v2.5H323V36.6z M327.4,48.1h8c1.9,0,3.5,1.6,3.5,3.5
		c0,1.9-1.6,3.5-3.5,3.5h-8c-1.9,0-3.5-1.6-3.5-3.5C323.9,49.7,325.4,48.1,327.4,48.1z M327.4,52.6h7.9c0.5,0,0.9-0.5,0.9-1
		s-0.4-1-0.9-1h-7.9c-0.5,0-0.9,0.5-0.9,1S326.9,52.6,327.4,52.6z M338.8,46.9h-2.7V36.5h2.7V46.9z"/>
	<path class="st1" d="M354.1,36.6c2.4,0,4.3,1.9,4.3,4.3v2c0,2.4-1.9,4.3-4.3,4.3h-1.6c-2.4,0-4.3-1.9-4.3-4.3v-2
		c0-2.4,1.9-4.3,4.3-4.3H354.1z M351.9,52.5h9.4v-16h2.8v18.6h-14.9V49h2.8V52.5z M352.6,39.3c-0.9,0-1.6,0.7-1.6,1.6v2
		c0,0.9,0.7,1.6,1.6,1.6h1.6c0.9,0,1.6-0.7,1.6-1.6v-2c0-0.9-0.7-1.6-1.6-1.6H352.6z"/>
	<path class="st1" d="M367.2,36.6h8.9v2.7h-6v1.6h5.6v2.5h-5.6v1.5h6.3v2.7h-9.3V36.6z M370.8,52.6h9.4v-9.6h-3.1v-2.6h3.1v-4h2.8
		v18.6H368v-6.2h2.8V52.6z"/>
</g>
<g>
	<path class="st1" d="M20.9,377.9c4.1-3,7.9-6.5,11.4-9.7c1.9-1.8,2.7-2.7,2.7-5.2c0-2-1.6-3.6-3.5-3.6H29c-2,0-3.6,1.6-3.6,3.6v1
		h-4.8v-2c0-4.3,3.5-7.8,7.8-7.8h3.8c4.3,0,7.8,3.5,7.8,7.8v0.7c0,3.6-0.5,5.6-3.3,8.3c-3.4,3.2-7.1,6.4-10.8,9.1h13.6v4.4H20.9
		V377.9z"/>
	<path class="st1" d="M55.1,354.6c4.5,0,8.2,3.6,8.2,8.2v13.7c0,4.5-3.7,8.2-8.2,8.2h-4.4c-4.5,0-8.1-3.6-8.1-8.2v-13.7
		c0-4.5,3.6-8.2,8.1-8.2H55.1z M58.2,363.7c0-2.1-1.6-3.7-3.7-3.7h-3.3c-2,0-3.7,1.7-3.7,3.7v11.8c0,2.1,1.6,3.7,3.7,3.7h3.3
		c2,0,3.7-1.7,3.7-3.7V363.7z"/>
	<path class="st1" d="M67,360.2l3.4-5.4h5.9v29.8h-5.1v-24.4H67z"/>
	<path class="st1" d="M90.4,384.7c-4.8,0-8.6-3.9-8.6-8.6v-1.4v-0.3v-11.2c0-4.8,3.9-8.7,8.6-8.7h3.7c4.5,0,7.8,3.5,8.2,7.9h-5.5
		c-0.3-1.5-1-2.7-2.8-2.7h-3.7c-2,0-3.3,1.7-3.3,3.8v3.2c1-0.4,2.1-0.7,3.3-0.7h3.4c4.8,0,8.6,3.9,8.6,8.7v1.4
		c0,4.8-3.9,8.6-8.6,8.6H90.4z M87.1,375.9c0.1,2,1.4,3.6,3.3,3.6h3.3c2,0,3.3-1.7,3.3-3.8v-0.8c0-2.1-1.3-3.8-3.3-3.8h-3.3
		c-2,0-3.3,1.7-3.3,3.7V375.9z"/>
	<path class="st1" d="M106.1,385.6v-5h5.2v5H106.1z"/>
	<path class="st1" d="M127,354.6c4.5,0,8.2,3.6,8.2,8.2v13.7c0,4.5-3.7,8.2-8.2,8.2h-4.4c-4.5,0-8.1-3.6-8.1-8.2v-13.7
		c0-4.5,3.6-8.2,8.1-8.2H127z M130.1,363.7c0-2.1-1.6-3.7-3.7-3.7h-3.3c-2,0-3.7,1.7-3.7,3.7v11.8c0,2.1,1.6,3.7,3.7,3.7h3.3
		c2,0,3.7-1.7,3.7-3.7V363.7z"/>
	<path class="st1" d="M138.1,377.9c4.1-3,7.9-6.5,11.4-9.7c1.9-1.8,2.7-2.7,2.7-5.2c0-2-1.6-3.6-3.5-3.6h-2.5c-2,0-3.6,1.6-3.6,3.6
		v1h-4.8v-2c0-4.3,3.5-7.8,7.8-7.8h3.8c4.3,0,7.8,3.5,7.8,7.8v0.7c0,3.6-0.5,5.6-3.3,8.3c-3.4,3.2-7.1,6.4-10.8,9.1h13.6v4.4h-18.6
		V377.9z"/>
</g>
<g>
	<path class="st1" d="M536.9,377.9c4.1-3,7.9-6.5,11.4-9.7c1.9-1.8,2.7-2.7,2.7-5.2c0-2-1.6-3.6-3.5-3.6H545c-2,0-3.6,1.6-3.6,3.6v1
		h-4.8v-2c0-4.3,3.5-7.8,7.8-7.8h3.8c4.3,0,7.8,3.5,7.8,7.8v0.7c0,3.6-0.5,5.6-3.3,8.3c-3.4,3.2-7.1,6.4-10.8,9.1h13.6v4.4h-18.6
		V377.9z"/>
	<path class="st1" d="M571.1,354.6c4.5,0,8.2,3.6,8.2,8.2v13.7c0,4.5-3.7,8.2-8.2,8.2h-4.4c-4.5,0-8.1-3.6-8.1-8.2v-13.7
		c0-4.5,3.6-8.2,8.1-8.2H571.1z M574.2,363.7c0-2.1-1.6-3.7-3.7-3.7h-3.3c-2,0-3.7,1.7-3.7,3.7v11.8c0,2.1,1.6,3.7,3.7,3.7h3.3
		c2,0,3.7-1.7,3.7-3.7V363.7z"/>
	<path class="st1" d="M583,360.2l3.4-5.4h5.9v29.8h-5.1v-24.4H583z"/>
	<path class="st1" d="M606.4,384.7c-4.8,0-8.6-3.9-8.6-8.6v-1.4v-0.3v-11.2c0-4.8,3.9-8.7,8.6-8.7h3.7c4.5,0,7.8,3.5,8.2,7.9h-5.5
		c-0.3-1.5-1-2.7-2.8-2.7h-3.7c-2,0-3.3,1.7-3.3,3.8v3.2c1-0.4,2.1-0.7,3.3-0.7h3.4c4.8,0,8.6,3.9,8.6,8.7v1.4
		c0,4.8-3.9,8.6-8.6,8.6H606.4z M603.1,375.9c0.1,2,1.4,3.6,3.3,3.6h3.3c2,0,3.3-1.7,3.3-3.8v-0.8c0-2.1-1.3-3.8-3.3-3.8h-3.3
		c-2,0-3.3,1.7-3.3,3.7V375.9z"/>
	<path class="st1" d="M622.1,385.6v-5h5.2v5H622.1z"/>
	<path class="st1" d="M643,354.6c4.5,0,8.2,3.6,8.2,8.2v13.7c0,4.5-3.7,8.2-8.2,8.2h-4.4c-4.5,0-8.1-3.6-8.1-8.2v-13.7
		c0-4.5,3.6-8.2,8.1-8.2H643z M646.1,363.7c0-2.1-1.6-3.7-3.7-3.7h-3.3c-2,0-3.7,1.7-3.7,3.7v11.8c0,2.1,1.6,3.7,3.7,3.7h3.3
		c2,0,3.7-1.7,3.7-3.7V363.7z"/>
	<path class="st1" d="M663.5,384.7c-4.8,0-8.6-3.9-8.6-8.6v-1.4v-0.3v-11.2c0-4.8,3.9-8.7,8.6-8.7h3.7c4.6,0,7.8,3.5,8.2,7.9H670
		c-0.3-1.5-1-2.7-2.8-2.7h-3.7c-2,0-3.3,1.7-3.3,3.8v3.2c1-0.4,2.1-0.7,3.3-0.7h3.4c4.8,0,8.6,3.9,8.6,8.7v1.4
		c0,4.8-3.9,8.6-8.6,8.6H663.5z M660.2,375.9c0.1,2,1.4,3.6,3.3,3.6h3.3c2,0,3.3-1.7,3.3-3.8v-0.8c0-2.1-1.3-3.8-3.3-3.8h-3.3
		c-2,0-3.3,1.7-3.3,3.7V375.9z"/>
</g>
<g>
	<path class="st1" d="M265.8,103.5c4.1-3,7.9-6.5,11.4-9.7c1.9-1.8,2.7-2.7,2.7-5.3c0-2-1.6-3.6-3.5-3.6h-2.5c-2,0-3.6,1.6-3.6,3.6
		v1h-4.8v-2c0-4.3,3.5-7.8,7.8-7.8h3.8c4.3,0,7.8,3.5,7.8,7.8v0.7c0,3.6-0.5,5.6-3.3,8.3c-3.4,3.2-7.1,6.4-10.8,9.1h13.6v4.4h-18.6
		V103.5z"/>
	<path class="st1" d="M300,80.1c4.5,0,8.2,3.6,8.2,8.2v13.7c0,4.5-3.7,8.2-8.2,8.2h-4.4c-4.5,0-8.1-3.6-8.1-8.2V88.3
		c0-4.5,3.6-8.2,8.1-8.2H300z M303.1,89.2c0-2.1-1.6-3.7-3.7-3.7h-3.3c-2,0-3.7,1.7-3.7,3.7V101c0,2.1,1.6,3.7,3.7,3.7h3.3
		c2,0,3.7-1.7,3.7-3.7V89.2z"/>
	<path class="st1" d="M312,85.7l3.4-5.4h5.9v29.8h-5.1V85.7H312z"/>
	<path class="st1" d="M335.4,110.3c-4.8,0-8.6-3.9-8.6-8.6v-1.4v-0.4V88.7c0-4.8,3.9-8.7,8.6-8.7h3.7c4.6,0,7.8,3.5,8.2,7.9h-5.5
		c-0.3-1.5-1-2.7-2.8-2.7h-3.7c-2,0-3.3,1.7-3.3,3.8v3.2c1-0.4,2.1-0.7,3.3-0.7h3.4c4.8,0,8.6,3.9,8.6,8.7v1.4
		c0,4.8-3.9,8.6-8.6,8.6H335.4z M332.1,101.5c0.1,2,1.4,3.6,3.3,3.6h3.3c2,0,3.3-1.7,3.3-3.8v-0.8c0-2.1-1.3-3.8-3.3-3.8h-3.3
		c-2,0-3.3,1.7-3.3,3.7V101.5z"/>
	<path class="st1" d="M351.1,111.1v-5h5.2v5H351.1z"/>
	<path class="st1" d="M372,80.1c4.5,0,8.2,3.6,8.2,8.2v13.7c0,4.5-3.7,8.2-8.2,8.2h-4.4c-4.5,0-8.1-3.6-8.1-8.2V88.3
		c0-4.5,3.6-8.2,8.1-8.2H372z M375,89.2c0-2.1-1.6-3.7-3.7-3.7h-3.3c-2,0-3.7,1.7-3.7,3.7V101c0,2.1,1.6,3.7,3.7,3.7h3.3
		c2,0,3.7-1.7,3.7-3.7V89.2z"/>
	<path class="st1" d="M400.6,93.8l-0.3,0.3l0.3,0.3c0.8,0.8,1.4,1.6,1.8,2.7c1.1,2.7,1.1,5.3,0,7.9c-0.7,1.9-2.2,3.4-4,4.3
		c-2.7,1.2-5.2,0.9-8.1,0.9c-4.2,0-7.7-3.5-7.7-7.8v-0.9h4.7c0,0.5,0.1,0.9,0.2,1.4c0.7,2,3.4,2.3,5.1,2.2c1.2-0.1,2.6-0.2,3.6-1
		c1.3-1,1.6-3,1.2-4.8c-0.4-1.5-1.5-2.5-3.2-2.8c-0.8-0.2-1.7-0.2-2.8-0.2h-1.5v-4.5h1.5c1.1,0,2-0.1,2.8-0.2c0.8-0.1,1.5-0.4,2-0.8
		c1.4-1.2,1.7-3.6,0-5c-1.9-1.6-9-1.6-9,2.7h-4.7v-0.9c0-5,4.6-7.7,9.1-7.7c2.2,0,2.5,0,2.6,0c0.7,0,1.5,0.1,2.2,0.2
		c1.3,0.3,2.7,0.9,3.7,1.8c1.1,0.9,2,2.2,2.5,3.5C403.5,88.5,403,91.6,400.6,93.8z"/>
</g>
<g>
	<rect x="95.4" y="237.9" class="st0" width="5" height="3"/>
	<path class="st0" d="M100.4,288.5h-5v-5.9h5V288.5z M100.4,276.6h-5v-5.9h5V276.6z M100.4,264.7h-5v-5.9h5V264.7z M100.4,252.8h-5
		v-5.9h5V252.8z"/>
	<rect x="95.4" y="294.5" class="st0" width="5" height="3"/>
	<g>
		<circle class="st0" cx="97.9" cy="296.9" r="10.5"/>
	</g>
</g>
<g>
	<rect x="606.6" y="255" class="st0" width="5" height="3"/>
	<path class="st0" d="M611.6,301.5h-5v-5.4h5V301.5z M611.6,290.6h-5v-5.4h5V290.6z M611.6,279.7h-5v-5.4h5V279.7z M611.6,268.9h-5
		v-5.4h5V268.9z"/>
	<rect x="606.6" y="306.9" class="st0" width="5" height="3"/>
	<g>
		<circle class="st0" cx="609.1" cy="309.4" r="10.5"/>
	</g>
</g>
<g>
	<path class="st1" d="M655.5,718.8c4.1-3,7.9-6.5,11.4-9.7c1.9-1.8,2.7-2.7,2.7-5.3c0-2-1.6-3.6-3.5-3.6h-2.5c-2,0-3.6,1.6-3.6,3.6
		v1h-4.8v-2c0-4.3,3.5-7.8,7.8-7.8h3.8c4.3,0,7.8,3.5,7.8,7.8v0.7c0,3.6-0.5,5.6-3.3,8.3c-3.4,3.2-7.1,6.4-10.8,9.1h13.6v4.4h-18.6
		V718.8z"/>
	<path class="st1" d="M689.7,695.4c4.5,0,8.2,3.6,8.2,8.2v13.7c0,4.5-3.7,8.2-8.2,8.2h-4.4c-4.5,0-8.1-3.6-8.1-8.2v-13.7
		c0-4.5,3.6-8.2,8.1-8.2H689.7z M692.7,704.5c0-2.1-1.6-3.7-3.7-3.7h-3.3c-2,0-3.7,1.7-3.7,3.7v11.8c0,2.1,1.6,3.7,3.7,3.7h3.3
		c2,0,3.7-1.7,3.7-3.7V704.5z"/>
	<path class="st1" d="M701.6,701l3.4-5.4h5.9v29.8h-5.1V701H701.6z"/>
	<path class="st1" d="M727.9,695.2c4.8,0,7.9,3.5,7.9,8.3v1.3c0,2.1-0.7,3.9-1.9,5.3c1.7,1.3,2.8,3.3,2.8,5.7v1.9
		c0,4.5-3.7,7.8-8.2,7.8h-4.4c-4.5,0-8.1-3.3-8.1-7.8v-1.9c0-2.5,1.1-4.5,2.8-5.8c-1.2-1.4-1.9-3.2-1.9-5.2v-1.3
		c0-4.8,3.2-8.3,7.9-8.3H727.9z M731.6,716.6c0-2.1-1.6-3.6-3.7-3.6h-0.4h-0.4h-1.6h-0.4h-0.5c-2,0-3.7,1.5-3.7,3.6v0.5
		c0,2.1,1.6,3.4,3.7,3.4h3.3c2,0,3.7-1.3,3.7-3.4V716.6z M730.6,703.9c0-2.1-0.9-3.8-3-3.8h-2.6c-2,0-3,1.7-3,3.8v0.7
		c0,2.1,0.9,3.8,3,3.8h2.6c2,0,3-1.7,3-3.8V703.9z"/>
	<path class="st1" d="M739.9,726.4v-5h5.2v5H739.9z"/>
	<path class="st1" d="M760.8,695.4c4.5,0,8.2,3.6,8.2,8.2v13.7c0,4.5-3.7,8.2-8.2,8.2h-4.4c-4.5,0-8.1-3.6-8.1-8.2v-13.7
		c0-4.5,3.6-8.2,8.1-8.2H760.8z M763.9,704.5c0-2.1-1.6-3.7-3.7-3.7H757c-2,0-3.7,1.7-3.7,3.7v11.8c0,2.1,1.6,3.7,3.7,3.7h3.3
		c2,0,3.7-1.7,3.7-3.7V704.5z"/>
	<path class="st1" d="M789.9,714.9h4.6v4.5h-4.6v6h-5.1v-5.9h-13.4v-4.6l9.7-19.3h8.9V714.9z M784.8,714.9v-15.2l-7.8,15.2H784.8z"
		/>
</g>
<g>
	<path class="st1" d="M255.8,718.8c4.1-3,7.9-6.5,11.4-9.7c1.9-1.8,2.7-2.7,2.7-5.3c0-2-1.6-3.6-3.5-3.6h-2.5c-2,0-3.6,1.6-3.6,3.6
		v1h-4.8v-2c0-4.3,3.5-7.8,7.8-7.8h3.8c4.3,0,7.8,3.5,7.8,7.8v0.7c0,3.6-0.5,5.6-3.3,8.3c-3.4,3.2-7.1,6.4-10.8,9.1h13.6v4.4h-18.6
		V718.8z"/>
	<path class="st1" d="M290,695.4c4.5,0,8.2,3.6,8.2,8.2v13.7c0,4.5-3.7,8.2-8.2,8.2h-4.4c-4.5,0-8.1-3.6-8.1-8.2v-13.7
		c0-4.5,3.6-8.2,8.1-8.2H290z M293.1,704.5c0-2.1-1.6-3.7-3.7-3.7h-3.3c-2,0-3.7,1.7-3.7,3.7v11.8c0,2.1,1.6,3.7,3.7,3.7h3.3
		c2,0,3.7-1.7,3.7-3.7V704.5z"/>
	<path class="st1" d="M302,701l3.4-5.4h5.9v29.8h-5.1V701H302z"/>
	<path class="st1" d="M328.3,695.2c4.8,0,7.9,3.5,7.9,8.3v1.3c0,2.1-0.7,3.9-1.9,5.3c1.7,1.3,2.8,3.3,2.8,5.7v1.9
		c0,4.5-3.7,7.8-8.2,7.8h-4.4c-4.5,0-8.1-3.3-8.1-7.8v-1.9c0-2.5,1.1-4.5,2.8-5.8c-1.2-1.4-1.9-3.2-1.9-5.2v-1.3
		c0-4.8,3.2-8.3,7.9-8.3H328.3z M332,716.6c0-2.1-1.6-3.6-3.7-3.6h-0.4h-0.4h-1.6h-0.4h-0.5c-2,0-3.7,1.5-3.7,3.6v0.5
		c0,2.1,1.6,3.4,3.7,3.4h3.3c2,0,3.7-1.3,3.7-3.4V716.6z M331,703.9c0-2.1-0.9-3.8-3-3.8h-2.6c-2,0-3,1.7-3,3.8v0.7
		c0,2.1,0.9,3.8,3,3.8h2.6c2,0,3-1.7,3-3.8V703.9z"/>
	<path class="st1" d="M340.3,726.4v-5h5.2v5H340.3z"/>
	<path class="st1" d="M361.2,695.4c4.5,0,8.2,3.6,8.2,8.2v13.7c0,4.5-3.7,8.2-8.2,8.2h-4.4c-4.5,0-8.1-3.6-8.1-8.2v-13.7
		c0-4.5,3.6-8.2,8.1-8.2H361.2z M364.3,704.5c0-2.1-1.6-3.7-3.7-3.7h-3.3c-2,0-3.7,1.7-3.7,3.7v11.8c0,2.1,1.6,3.7,3.7,3.7h3.3
		c2,0,3.7-1.7,3.7-3.7V704.5z"/>
	<path class="st1" d="M390.3,714.9h4.6v4.5h-4.6v6h-5.1v-5.9h-13.4v-4.6l9.7-19.3h8.9V714.9z M385.2,714.9v-15.2l-7.8,15.2H385.2z"
		/>
</g>
<g>
	<rect x="724.9" y="588.7" class="st0" width="5" height="3"/>
	<path class="st0" d="M729.9,635.2h-5v-5.4h5V635.2z M729.9,624.3h-5v-5.4h5V624.3z M729.9,613.4h-5V608h5V613.4z M729.9,602.5h-5
		v-5.4h5V602.5z"/>
	<rect x="724.9" y="640.6" class="st0" width="5" height="3"/>
	<g>
		<circle class="st0" cx="727.4" cy="643.1" r="10.5"/>
	</g>
</g>
<g>
	<rect x="327.1" y="200.1" class="st0" width="5" height="3"/>
	<path class="st0" d="M332.1,194.7h-5v-5.4h5V194.7z M332.1,183.8h-5v-5.4h5V183.8z M332.1,172.9h-5v-5.4h5V172.9z M332.1,162h-5
		v-5.4h5V162z"/>
	<rect x="327.1" y="148.2" class="st0" width="5" height="3"/>
	<g>
		<circle class="st0" cx="329.6" cy="148.7" r="10.5"/>
	</g>
</g>
<g>
	<path class="st1" d="M786.6,19.2l-2.6-12l-2.6,12h-2.9l4.1-18.4h2.7l4.1,18.4H786.6z M794.7,19.3h-2.7V9.4h-3.3V6.8h3.3V0.7h2.7
		V19.3z"/>
	<path class="st1" d="M813.1,16.2H801v0.9h12.1v2.2h-14.7v-5.2h12.1v-0.9h-12.1v-2.1h5.9v-1.1h-7.1V7.9h16.9v2.1h-7.1v1.1h5.9V16.2z
		 M809.8,0.8c2,0,3.5,1.2,3.5,3.2c0,1.9-1.6,3.1-3.5,3.1h-8c-1.9,0-3.5-1.2-3.5-3.1c0-1.9,1.6-3.2,3.5-3.2H809.8z M801.8,3.1
		c-0.5,0-0.8,0.3-0.8,0.8c0,0.5,0.4,0.8,0.8,0.8h7.9c0.5,0,0.8-0.3,0.8-0.8c0-0.5-0.4-0.8-0.8-0.8H801.8z"/>
	<path class="st1" d="M827.7,16.7l1-13.2h-11.3V0.9h14.3v2.6l-1,13.2h2.5v2.6h-16.9v-2.6H827.7z"/>
	<path class="st1" d="M843.1,0.8V7h-5.3v1.9h5.3v2.3h-7.9V4.9h5.3V3h-5.3V0.8H843.1z M839.3,16.6h12.1v2.7h-14.9v-6.4h2.8V16.6z
		 M851.4,14.2h-2.7V7.3h-1.5v6.9h-2.7V0.7h2.7v4h1.5v-4h2.7V14.2z"/>
	<path class="st1" d="M871,16.7v2.6H854v-2.6H871z M869.6,0.8v2.5h-11.2v8.5h11.2v2.7h-14.2V0.8H869.6z"/>
	<path class="st1" d="M873.4,0.8h10.2v2.3h-1.6v4h1.6v2.3h-10.2V7.1h1.7v-4h-1.7V0.8z M889.2,16.1H877v1h12.2v2.2h-14.9v-5.2h12.2
		v-1h-12.2v-2.2h12.2V0.7h2.8V16.1z M877.7,7.1h1.8v-4h-1.8V7.1z"/>
	<path class="st1" d="M898.9,16.4v-5h-2.2c-2.4,0-4.3-1.9-4.3-4.3v-2c0-2.4,1.9-4.3,4.3-4.3h7.3c2.4,0,4.3,1.9,4.3,4.3v2
		c0,2.4-1.9,4.3-4.3,4.3h-2.2v5h7v2.9h-16.9v-2.9H898.9z M903.5,8.6c1.2,0,1.9-1,1.9-2.1V5.7c0-1.2-0.7-2.1-1.9-2.1h-6.4
		c-1.2,0-1.9,0.9-1.9,2.1v0.8c0,1.2,0.8,2.1,1.9,2.1H903.5z"/>
	<path class="st1" d="M914.9,10.5h-4V7.8h4.4l0.6-4.4h-5.1V0.8h8.1v2.6l-0.6,4.4h2.3V0.7h2.6v18.6h-2.6v-8.9h-2.6l-1.3,8.8h-3
		L914.9,10.5z M927.4,19.3h-2.6V0.7h2.6V19.3z"/>
	<path class="st1" d="M946.6,16.7v2.6h-16.9v-2.6H946.6z M942.5,13l-4.4-8.7l-4.4,8.7h-3.4l5.9-12.3h3.7l5.9,12.3H942.5z"/>
	<path class="st1" d="M965.5,16.7v2.6h-16.9v-2.6H965.5z M964.6,0.8v2.7h-12v2.3h12v2.7h-12v2.1h12v2.7h-15.1V0.8H964.6z"/>
	<path class="st1" d="M977.4,0.8v10.6h-6.5v5.2h6.7v2.6h-9.5V8.6h6.5V3.4h-6.5V0.8H977.4z M983.2,8.1h2v2.6h-2v8.6h-2.8V0.7h2.8V8.1
		z"/>
	<path class="st1" d="M803.8,44.5V41h2.9v3.5h3.9l0.8-5.3H800v-2.6h14.4v2.6l-0.8,5.3h2.2v2.2h-16.9v-2.2H803.8z M811.4,48.1
		c2,0,3.5,1.4,3.5,3.5c0,2.1-1.6,3.5-3.5,3.5h-8.3c-1.9,0-3.5-1.4-3.5-3.5c0-2.1,1.6-3.5,3.5-3.5H811.4z M803.1,50.5
		c-0.5,0-0.8,0.4-0.8,1c0,0.6,0.4,1,0.8,1h8.3c0.5,0,0.8-0.4,0.8-1c0-0.6-0.4-1-0.8-1H803.1z"/>
	<path class="st1" d="M833.9,36.5v18.6H819v-6.6h2.8v4h9.3v-7.2h-4.4c-0.9,0.9-2.3,1.4-3.8,1.4c-2.6,0-4.8-1.8-4.8-3.9v-2.3
		c0-2.2,2.3-4,4.7-4h0.1c1.7,0,3.2,0.7,4.1,1.8h4v-1.9H833.9z M825.1,41c0-1-0.9-1.8-2-1.8c-1.1,0-2,0.8-2,1.8v1.4
		c0,1,0.9,1.8,2,1.8c1.1,0,2-0.8,2-1.8V41z M827.9,43h3.2v-2.3h-3.2v2.1V43z"/>
	<path class="st1" d="M843.6,39.2h-7.1v-2.6h10.2v2.6L844.5,55h-3L843.6,39.2z M852.8,55.1h-3V36.5h3V55.1z"/>
	<path class="st1" d="M862.8,35.8v1.3h4.2v2.5h-1.1c0.2,0.4,0.3,0.8,0.3,1.3v1.4c0,1.6-1.6,3.1-3.4,3.3v0.8h6v-9.9h2.9v12.4h-16.3
		v-2.5h4.5v-0.8c-1.8-0.2-3.3-1.8-3.3-3.3v-1.4c0-0.4,0.1-0.8,0.3-1.3h-1.2v-2.5h4.3v-1.3H862.8z M871.7,52l-0.7,3.2h-2.9l0.8-3.2
		h-11.5v-2.3h14.4V52z M863.6,41.6c0-0.9-0.7-1.5-1.7-1.5h-0.8c-1,0-1.7,0.6-1.7,1.5v0c0,0.9,0.7,1.5,1.7,1.5h0.8
		C862.8,43.1,863.6,42.5,863.6,41.6L863.6,41.6z"/>
	<path class="st1" d="M882.7,37.2l-6,17.9h-2.8l6-17.9H882.7z"/>
	<path class="st1" d="M900.3,39.4h-2.6c1.1,0.5,1.8,1.3,1.8,2.4c0,1.9-1.6,3.2-3.5,3.2h-2v1h7.1v2.3h-16.9V46h7.1v-1h-2
		c-1.9,0-3.5-1.2-3.5-3.2c0-1.1,0.7-2,1.8-2.4h-2.6v-2.2h6.3v-1.4h2.9v1.4h6.3V39.4z M888.4,49.2h8.4c2.1,0,3.5,1.1,3.5,3
		s-1.4,3-3.5,3h-8.4c-2.1,0-3.5-1.1-3.5-3S886.3,49.2,888.4,49.2z M888.4,52.7h8.4c0.6,0,0.8-0.2,0.8-0.6s-0.2-0.6-0.8-0.6h-8.4
		c-0.6,0-0.8,0.2-0.8,0.6S887.8,52.7,888.4,52.7z M889.2,41c-0.5,0-0.8,0.4-0.8,0.8s0.4,0.8,0.8,0.8h6.7c0.5,0,0.8-0.4,0.8-0.8
		S896.4,41,896,41H889.2z"/>
	<path class="st1" d="M912.9,48.2v4.3h7v2.6H903v-2.6h7v-4.3h-6.2V36.5h3.1v4h9.3v-4h3.1v11.7H912.9z M916.1,45.5v-2.4h-9.3v2.4
		H916.1z"/>
	<path class="st1" d="M934.5,36.6c2.4,0,4.3,1.9,4.3,4.3v2c0,2.4-1.9,4.3-4.3,4.3H933c-2.4,0-4.3-1.9-4.3-4.3v-2
		c0-2.4,1.9-4.3,4.3-4.3H934.5z M932.3,52.5h9.4v-16h2.8v18.6h-14.9V49h2.8V52.5z M933,39.3c-0.9,0-1.6,0.7-1.6,1.6v2
		c0,0.9,0.7,1.6,1.6,1.6h1.6c0.9,0,1.6-0.7,1.6-1.6v-2c0-0.9-0.7-1.6-1.6-1.6H933z"/>
	<path class="st1" d="M947.6,36.6h8.9v2.7h-6v1.6h5.6v2.5h-5.6v1.5h6.3v2.7h-9.3V36.6z M951.2,52.6h9.4v-9.6h-3.1v-2.6h3.1v-4h2.8
		v18.6h-14.9v-6.2h2.8V52.6z"/>
</g>
<g>
	<path class="st1" d="M813.8,103.5c4.1-3,7.9-6.5,11.4-9.7c1.9-1.8,2.7-2.7,2.7-5.3c0-2-1.6-3.6-3.5-3.6h-2.5c-2,0-3.6,1.6-3.6,3.6
		v1h-4.8v-2c0-4.3,3.5-7.8,7.8-7.8h3.8c4.3,0,7.8,3.5,7.8,7.8v0.7c0,3.6-0.5,5.6-3.3,8.3c-3.4,3.2-7.1,6.4-10.8,9.1h13.6v4.4h-18.6
		V103.5z"/>
	<path class="st1" d="M848,80.1c4.5,0,8.2,3.6,8.2,8.2v13.7c0,4.5-3.7,8.2-8.2,8.2h-4.4c-4.5,0-8.1-3.6-8.1-8.2V88.3
		c0-4.5,3.6-8.2,8.1-8.2H848z M851.1,89.2c0-2.1-1.6-3.7-3.7-3.7h-3.3c-2,0-3.7,1.7-3.7,3.7V101c0,2.1,1.6,3.7,3.7,3.7h3.3
		c2,0,3.7-1.7,3.7-3.7V89.2z"/>
	<path class="st1" d="M859.9,85.7l3.4-5.4h5.9v29.8h-5.1V85.7H859.9z"/>
	<path class="st1" d="M874.3,80.7h20l-5.3,29.4h-5.6l4.2-24h-7.8v4.4h-5.5V80.7z"/>
	<path class="st1" d="M897.8,111.1v-5h5.2v5H897.8z"/>
	<path class="st1" d="M906.6,85.7l3.4-5.4h5.9v29.8h-5.1V85.7H906.6z"/>
	<path class="st1" d="M920.6,103.5c4.1-3,7.9-6.5,11.4-9.7c1.9-1.8,2.7-2.7,2.7-5.3c0-2-1.6-3.6-3.5-3.6h-2.5c-2,0-3.6,1.6-3.6,3.6
		v1h-4.8v-2c0-4.3,3.5-7.8,7.8-7.8h3.8c4.3,0,7.8,3.5,7.8,7.8v0.7c0,3.6-0.5,5.6-3.3,8.3c-3.4,3.2-7.1,6.4-10.8,9.1h13.6v4.4h-18.6
		V103.5z"/>
</g>
<g>
	<rect x="869.4" y="200.1" class="st0" width="5" height="3"/>
	<path class="st0" d="M874.4,194.7h-5v-5.4h5V194.7z M874.4,183.8h-5v-5.4h5V183.8z M874.4,172.9h-5v-5.4h5V172.9z M874.4,162h-5
		v-5.4h5V162z"/>
	<rect x="869.4" y="148.2" class="st0" width="5" height="3"/>
	<g>
		<circle class="st0" cx="871.9" cy="148.7" r="10.5"/>
	</g>
</g>
<g>
	<path class="st2" d="M85.7,182.7c-23.8,0-43.2,19.3-43.2,43.2v44.3h86.4v-44.3C128.9,202,109.6,182.7,85.7,182.7z"/>
	<path class="st3" d="M101,221.7c-0.8,0-1.6,0.1-2.4,0.3c-5.5,1.5-9.7,8.2-9.7,16.2v31.9H101h7.3h4.8h20.3v-48.4H101L101,221.7z"/>
	<path class="st2" d="M134,221.7c-1.1,0-2.2,0.1-3.3,0.3c-7.6,1.5-13.2,8.2-13.2,16.2v31.9H144h6.6v-31.9
		C150.6,229.1,143.1,221.7,134,221.7z"/>
	<path class="st4" d="M131.5,227.4L131.5,227.4c-5.9,1.2-10.3,6.4-10.3,12.6v30.2h20.6V240C141.8,233.7,137.3,228.5,131.5,227.4z"/>
	<path class="st3" d="M146.9,240c0-7.1-5.8-12.9-12.9-12.9c-0.9,0-1.7,0.1-2.6,0.3l0,0c5.9,1.2,10.3,6.4,10.3,12.6v30.2h5.1V240z"/>
</g>
<g>
	<path class="st5" d="M398.2,268.7c-0.7,1-1.7,1.6-2.8,1.6h-32.6l-5.9-22.8l5.5-4.2l4.6-4.6c0.6-0.7,1.4-1,2.3-1
		c0.8,0,1.7,0.3,2.3,1l4.2,4.2l10.5-1.2l12,24C398.8,266.5,398.8,267.8,398.2,268.7z"/>
	<path class="st6" d="M398.2,268.7c-0.7,1-1.7,1.6-2.8,1.6h-26v-32.6c0.8,0,1.7,0.3,2.3,1l4.2,4.2l10.5-1.2l12,24
		C398.8,266.5,398.8,267.8,398.2,268.7z"/>
	<path class="st7" d="M386.3,241.6l-8.2,8.1c-1.2,1.3-3.3,1.3-4.6,0l-4.2-4.2l-4.2,4.2c-0.6,0.7-1.4,1-2.3,1c-0.6,0-1.2-0.2-1.8-0.5
		l-4-2.7c-0.3-1-2.3-9.1-2.5-10l6.2-12.4c1.6-3.4,5-5.4,8.7-5.4c3.7,0,7.1,2,8.7,5.4C384.5,237.8,382.9,234.7,386.3,241.6z"/>
	<path class="st8" d="M386.3,241.6l-8.2,8.1c-1.2,1.3-3.3,1.3-4.6,0l-4.2-4.2v-25.8c3.7,0,7.1,2,8.7,5.4
		C384.5,237.8,382.9,234.7,386.3,241.6z"/>
	<path class="st9" d="M372.1,268.8c-0.7,0.9-1.6,1.4-2.7,1.4h-78.6c-1.1,0-2.1-0.5-2.7-1.4c-0.6-1-0.7-2.1-0.3-3.1l23.5-54.9
		l11.9-0.1l4.6-4.6c0.6-0.7,1.4-1,2.3-1c0.8,0,1.7,0.3,2.3,1l4.2,4.2l11.2-1.8l24.5,57.2C372.8,266.7,372.7,267.8,372.1,268.8z"/>
	<path class="st5" d="M372.1,268.8c-0.7,0.9-1.6,1.4-2.7,1.4h-39.3v-65.1c0.8,0,1.7,0.3,2.3,1l4.2,4.2l11.2-1.8l24.5,57.2
		C372.8,266.7,372.7,267.8,372.1,268.8z"/>
	<path class="st7" d="M347.8,208.5l-8.9,8.7c-1.2,1.3-3.3,1.3-4.6,0l-4.2-4.2l-4.2,4.2c-0.6,0.7-1.4,1-2.3,1c-0.7,0-1.2-0.2-1.8-0.5
		l-10.4-6.8c3.3-7.6,1.2-2.6,9.8-22.7c1.6-3.6,5-5.9,9-5.9c4,0,7.4,2.3,9,5.9C345.9,204,344.3,200.3,347.8,208.5z"/>
	<path class="st8" d="M347.8,208.5l-8.9,8.7c-1.2,1.3-3.3,1.3-4.6,0l-4.2-4.2v-30.8c4,0,7.4,2.3,9,5.9
		C345.9,204,344.3,200.3,347.8,208.5z"/>
</g>
<g>
	<rect x="578.2" y="239" class="st9" width="15.4" height="25.8"/>
	<rect x="585.9" y="239" class="st5" width="7.7" height="25.8"/>
	<path class="st10" d="M606,240.2l-8.9-14h4.2c0.9,0,1.8-0.5,2.3-1.3c0.4-0.8,0.4-1.8-0.1-2.6l-8.7-14.1h3.9c0.9,0,1.8-0.5,2.3-1.3
		c0.5-0.8,0.4-1.8-0.1-2.6L588,183.6c-0.5-0.8-1.3-1.1-2.2-1.1c-0.8,0-1.7,0.4-2.2,1.1l-12.8,20.7c-0.5,0.8-0.6,1.8-0.1,2.6
		c0.5,0.8,1.3,1.3,2.3,1.3h3.9l-8.7,14.1c-0.5,0.8-0.5,1.7-0.1,2.6c0.5,0.8,1.3,1.3,2.3,1.3h4.2l-8.9,14c-0.5,0.8-0.6,1.8-0.1,2.6
		c0.5,0.8,1.3,1.3,2.3,1.3h35.9c0.9,0,1.8-0.5,2.3-1.3C606.5,242,606.5,241,606,240.2z"/>
	<path class="st11" d="M606.1,242.8c-0.5,0.8-1.3,1.3-2.3,1.3h-18v-61.7c0.8,0,1.7,0.4,2.2,1.1l12.8,20.7c0.5,0.8,0.6,1.8,0.1,2.6
		c-0.5,0.8-1.3,1.3-2.3,1.3h-3.9l8.7,14.1c0.5,0.8,0.5,1.7,0.1,2.6c-0.5,0.8-1.3,1.3-2.3,1.3h-4.2l8.9,14
		C606.5,241,606.5,242,606.1,242.8z"/>
	<rect x="624.7" y="239" class="st9" width="15.4" height="25.8"/>
	<rect x="632.4" y="239" class="st5" width="7.7" height="25.8"/>
	<path class="st10" d="M652.5,240.2l-8.9-14h4.2c0.9,0,1.8-0.5,2.3-1.3c0.4-0.8,0.4-1.8-0.1-2.6l-8.7-14.1h3.9
		c0.9,0,1.8-0.5,2.3-1.3c0.5-0.8,0.4-1.8-0.1-2.6l-12.8-20.7c-0.5-0.8-1.3-1.1-2.2-1.1c-0.8,0-1.7,0.4-2.2,1.1l-12.8,20.7
		c-0.5,0.8-0.6,1.8-0.1,2.6c0.5,0.8,1.3,1.3,2.3,1.3h3.9l-8.7,14.1c-0.5,0.8-0.5,1.7-0.1,2.6c0.5,0.8,1.3,1.3,2.3,1.3h4.2l-8.9,14
		c-0.5,0.8-0.6,1.8-0.1,2.6c0.5,0.8,1.3,1.3,2.3,1.3h35.9c0.9,0,1.8-0.5,2.3-1.3C653,242,653,241,652.5,240.2z"/>
	<path class="st11" d="M652.6,242.8c-0.5,0.8-1.3,1.3-2.3,1.3h-18v-61.7c0.8,0,1.7,0.4,2.2,1.1l12.8,20.7c0.5,0.8,0.6,1.8,0.1,2.6
		c-0.5,0.8-1.3,1.3-2.3,1.3h-3.9l8.7,14.1c0.5,0.8,0.5,1.7,0.1,2.6c-0.5,0.8-1.3,1.3-2.3,1.3h-4.2l8.9,14
		C653,241,653,242,652.6,242.8z"/>
	<path class="st12" d="M652.9,261.2v8.8h-87.5v-8.8c0-2.2,1.8-2.3,3.6-3.4c5.5-3.7,12.7-3.7,18.2,0c3.8,2.5,8.7,2.5,12.6,0
		c2.8-1.8,6.2-2.8,9.4-2.8c3.2,0,6.6,0.9,9.4,2.8c3.8,2.5,8.7,2.5,12.6,0c5.5-3.7,12.7-3.7,18.2,0
		C651.1,258.9,652.9,259,652.9,261.2z"/>
	<path class="st13" d="M652.9,261.2v8.8h-43.8v-15c3.2,0,6.6,0.9,9.4,2.8c3.8,2.5,8.7,2.5,12.6,0c5.5-3.7,12.7-3.7,18.2,0
		C651.1,258.9,652.9,259,652.9,261.2z"/>
</g>
<g>
	<path class="st0" d="M731.6,560.3h47.8c1.8,0,3.3-1.1,4-2.7c0.7-1.6,0.3-3.5-0.9-4.7l-14.3-14.3l14.3-14.3c1.2-1.2,1.6-3.1,0.9-4.7
		c-0.7-1.6-2.3-2.7-4-2.7h-52.1c-2.4,0-4.3,1.9-4.3,4.3v39.1H731.6z"/>
	<path class="st9" d="M731.6,521.2V600c0,2.4-1.9,4.3-4.3,4.3c-2.4,0-4.3-1.9-4.3-4.3v-78.8c0-2.4,1.9-4.3,4.3-4.3
		C729.7,516.9,731.6,518.8,731.6,521.2z"/>
	<path class="st5" d="M731.6,521.2V600c0,2.4-1.9,4.3-4.3,4.3v-87.5C729.7,516.9,731.6,518.8,731.6,521.2z"/>
</g>
<g>
	<path class="st5" d="M884.5,224c0,1.4-1.1,2.6-2.6,2.6c-1.4,0-2.6-1.1-2.6-2.6c0-4.3-3.4-7.9-7.7-7.9c-4.3,0-7.7,3.6-7.7,7.9
		c0,1.4-1.1,2.6-2.6,2.6c-1.4,0-2.6-1.1-2.6-2.6c0-7.1,5.7-13,12.8-13C878.8,211.1,884.5,217,884.5,224z"/>
	<path class="st14" d="M874.3,188v25.6c0,1.4-1.1,2.6-2.6,2.6c-1.4,0-2.6-1.1-2.6-2.6V188c0-1.4,1.1-2.6,2.6-2.6
		C873.1,185.4,874.3,186.6,874.3,188z"/>
	<path class="st6" d="M884.5,224c0,1.4-1.1,2.6-2.6,2.6c-1.4,0-2.6-1.1-2.6-2.6c0-4.3-3.4-7.9-7.7-7.9v-5.1
		C878.8,211.1,884.5,217,884.5,224z"/>
	<path class="st15" d="M874.3,188v25.6c0,1.4-1.1,2.6-2.6,2.6v-30.7C873.1,185.4,874.3,186.6,874.3,188z"/>
	<path class="st9" d="M887.1,221.5h-30.7c-1.4,0-2.6,1.1-2.6,2.6c0,9.9,8,18.1,17.9,18.1c9.9,0,17.9-8.2,17.9-18.1
		C889.6,222.6,888.5,221.5,887.1,221.5z"/>
	<path class="st5" d="M871.7,242.1v-20.7h15.4c1.4,0,2.6,1.1,2.6,2.6C889.6,233.9,881.6,242.1,871.7,242.1z"/>
	<path class="st16" d="M889.6,255c0,4.3-3.4,7.7-7.7,7.7h-20.5c-4,0-7.7-3.2-7.7-7.7c0-0.8,0.1-1.6,0.4-2.4l5.1-9.1
		c0.5-0.8,1.3-1.3,2.3-1.3c0.9,0,1.8,0.5,2.2,1.3l2.4,4.1l3.2-8.6c0.3-1.1,1.2-1.9,2.5-1.9c1.2,0,2.1,0.7,2.5,2l3,8.5l0.6-0.8
		l1.8-3.3c0.5-0.8,1.4-1.1,2.3-1.3c0.9,0,1.8,0.5,2.2,1.3l4.8,8.4C889.5,253.1,889.6,254,889.6,255z"/>
	<path class="st17" d="M889.6,255c0,4.3-3.4,7.7-7.7,7.7h-10.2V237c1.2,0,2.1,0.7,2.5,2l3,8.5l0.6-0.8l1.8-3.3
		c0.5-0.8,1.4-1.1,2.3-1.3c0.9,0,1.8,0.5,2.2,1.3l4.8,8.4C889.5,253.1,889.6,254,889.6,255z"/>
	<path class="st9" d="M914.2,262.3c-1.2,0.7-2.8,0.3-3.5-1l-38.9-69.3l-38.9,69.3c-0.7,1.2-2.3,1.6-3.5,1c-1.2-0.7-1.6-2.3-1-3.5
		l40.5-71.9l-4.5-7.8c-0.7-1.3-0.3-2.8,1-3.5c1.3-0.7,2.8-0.3,3.5,1l2.9,5.2l2.9-5.2c0.7-1.2,2.3-1.6,3.5-1c1.2,0.7,1.6,2.3,1,3.5
		l-4.5,7.8l40.5,71.9C915.8,260.1,915.4,261.6,914.2,262.3z"/>
	<path class="st5" d="M914.2,262.3c-1.2,0.7-2.8,0.3-3.5-1l-38.9-69.3v-10.5l2.9-5.2c0.7-1.2,2.3-1.6,3.5-1c1.2,0.7,1.6,2.3,1,3.5
		l-4.5,7.8l40.5,71.9C915.8,260.1,915.4,261.6,914.2,262.3z"/>
</g>
<g>
	<rect x="313.9" y="588.7" class="st0" width="5" height="3"/>
	<path class="st0" d="M318.9,635.2h-5v-5.4h5V635.2z M318.9,624.3h-5v-5.4h5V624.3z M318.9,613.4h-5V608h5V613.4z M318.9,602.5h-5
		v-5.4h5V602.5z"/>
	<rect x="313.9" y="640.6" class="st0" width="5" height="3"/>
	<g>
		<circle class="st0" cx="316.4" cy="643.1" r="10.5"/>
	</g>
</g>
<g>
	<path class="st18" d="M320.7,560.3h47.8c1.8,0,3.3-1.1,4-2.7c0.7-1.6,0.3-3.5-0.9-4.7l-14.3-14.3l14.3-14.3
		c1.2-1.2,1.6-3.1,0.9-4.7c-0.7-1.6-2.3-2.7-4-2.7h-52.1c-2.4,0-4.3,1.9-4.3,4.3v39.1H320.7z"/>
	<path class="st9" d="M320.7,521.2V600c0,2.4-1.9,4.3-4.3,4.3c-2.4,0-4.3-1.9-4.3-4.3v-78.8c0-2.4,1.9-4.3,4.3-4.3
		C318.8,516.9,320.7,518.8,320.7,521.2z"/>
	<path class="st5" d="M320.7,521.2V600c0,2.4-1.9,4.3-4.3,4.3v-87.5C318.8,516.9,320.7,518.8,320.7,521.2z"/>
</g>
</svg>
