<?xml version="1.0" encoding="utf-8"?>
<!-- Generator: Adobe Illustrator 16.0.0, SVG Export Plug-In . SVG Version: 6.00 Build 0)  -->
<!DOCTYPE svg PUBLIC "-//W3C//DTD SVG 1.1//EN" "http://www.w3.org/Graphics/SVG/1.1/DTD/svg11.dtd">
<svg version="1.1" id="레이어_1" xmlns="http://www.w3.org/2000/svg" xmlns:xlink="http://www.w3.org/1999/xlink" x="0px"
	 y="0px" width="595.281px" height="263.832px" viewBox="0 289.136 595.281 263.832"
	 enable-background="new 0 289.136 595.281 263.832" xml:space="preserve">
<g>
	<path fill="#FFFFFF" d="M88.8,335.355c0,7.917-1.284,14.55-4.065,20.113s-6.419,10.057-11.127,13.48
		c-4.707,3.424-10.271,5.991-16.69,7.489s-13.052,2.354-20.542,2.354v27.175H0V291.918h36.376c7.275,0,14.122,0.856,20.542,2.354
		c6.419,1.498,11.769,4.065,16.69,7.489c4.708,3.424,8.559,7.917,11.127,13.48C87.516,320.804,88.8,327.438,88.8,335.355z
		 M72.324,335.355c0-5.136-0.856-9.629-2.568-13.267c-1.711-3.852-4.279-6.848-7.489-9.201c-3.21-2.354-7.062-4.279-11.341-5.35
		c-4.494-1.283-9.415-1.926-14.55-1.926H17.118v86.874h4.493v-27.389H36.59c5.135,0,9.843-0.642,14.336-1.712
		c4.494-1.283,8.131-2.995,11.341-5.35c3.209-2.354,5.777-5.563,7.489-9.2C71.254,344.984,72.324,340.49,72.324,335.355z
		 M67.402,335.355c0,4.921-0.856,8.986-2.568,12.41c-1.711,3.21-4.065,5.991-6.847,7.917s-6.205,3.424-9.843,4.279
		c-3.638,0.856-7.703,1.284-11.769,1.284H21.397v-51.354h14.979c4.065,0,7.917,0.429,11.769,1.284
		c3.638,0.856,7.061,2.354,9.843,4.279s5.136,4.494,6.847,7.917C66.546,326.368,67.402,330.433,67.402,335.355z M36.376,347.979
		h1.498c4.708,0,8.345-1.069,10.271-3.424c2.14-2.14,3.209-5.349,3.209-9.414c0-4.066-1.07-7.062-3.209-9.415
		c-2.14-2.14-5.563-3.424-10.271-3.424h-1.498V347.979z"/>
	<path fill="#FFFFFF" d="M97.359,291.918h39.372c7.275,0,14.123,1.07,20.328,2.996c6.206,1.926,11.555,4.707,16.262,8.559
		c4.494,3.852,8.131,8.345,10.699,13.908s3.852,11.983,3.852,19.044c0,5.777-0.856,10.485-2.354,14.551
		c-1.498,4.065-3.424,7.275-5.35,9.843c-2.354,2.995-4.921,5.563-7.703,7.489l21.397,37.659h-42.795l-17.118-28.887v28.887H97.573
		V291.918H97.359z M133.093,366.382c4.494,0,8.773-0.428,13.053-1.284l16.262,27.389h5.349l-17.118-28.673
		c6.206-2.14,11.127-5.563,14.765-10.057c3.637-4.493,5.563-10.271,5.563-17.546c0-4.921-1.07-9.415-2.996-13.267
		s-4.493-6.847-7.917-9.415c-3.423-2.567-7.275-4.493-11.982-5.777c-4.494-1.283-9.629-1.926-14.979-1.926h-18.402V392.7h4.494
		v-26.318H133.093z M118.97,362.316v-52.639h14.123c10.485,0,18.616,2.354,24.393,6.848s8.773,11.127,8.773,19.472
		s-2.996,14.979-8.773,19.472c-5.777,4.493-13.908,6.848-24.393,6.848H118.97z M133.949,347.979h1.926
		c4.28,0,7.917-1.069,11.127-2.995c2.996-1.926,4.493-5.136,4.493-9.843c0-4.494-1.498-7.918-4.493-9.844
		c-2.996-1.926-6.633-2.995-11.127-2.995h-1.926V347.979z"/>
	<path fill="#FFFFFF" d="M194.718,349.05c0-8.131,1.498-16.049,4.708-23.323c3.209-7.275,7.489-13.694,12.838-19.044
		c5.35-5.35,11.769-9.629,19.044-12.839c7.275-3.21,14.979-4.707,23.323-4.707c8.131,0,16.048,1.497,23.323,4.707
		c7.275,3.21,13.695,7.489,19.044,12.839s9.628,11.769,12.839,19.044c3.209,7.274,4.707,14.978,4.707,23.323
		c0,8.131-1.498,16.048-4.707,23.323c-3.211,7.275-7.49,13.694-12.839,19.044s-11.769,9.629-19.044,12.838
		c-7.275,3.21-14.978,4.708-23.323,4.708c-8.131,0-16.048-1.498-23.323-4.708c-7.275-3.209-13.694-7.488-19.044-12.838
		c-5.349-5.35-9.629-11.769-12.838-19.044S194.718,357.18,194.718,349.05z M210.766,349.05c0,5.991,1.07,11.769,3.423,17.118
		c2.354,5.349,5.35,10.057,9.415,13.908c4.065,4.065,8.559,7.062,13.909,9.415c5.349,2.354,10.913,3.424,17.118,3.424
		c5.992,0,11.769-1.07,17.118-3.424c5.35-2.354,10.057-5.35,13.908-9.415c4.066-4.065,7.062-8.56,9.415-13.908
		c2.354-5.35,3.423-10.913,3.423-17.118c0-5.991-1.069-11.769-3.423-17.118c-2.354-5.35-5.349-10.057-9.415-13.908
		c-4.065-4.065-8.559-7.062-13.908-9.415c-5.349-2.354-10.913-3.424-17.118-3.424c-5.991,0-11.769,1.07-17.118,3.424
		c-5.35,2.354-10.057,5.35-13.909,9.415c-4.065,4.065-7.061,8.559-9.415,13.908C211.836,337.281,210.766,343.058,210.766,349.05z
		 M254.631,388.421c-5.563,0-10.485-1.069-15.406-2.995c-4.708-2.14-8.987-4.922-12.411-8.56c-3.637-3.638-6.419-7.703-8.559-12.41
		c-2.14-4.708-2.996-9.843-2.996-15.406s1.07-10.485,2.996-15.406c2.14-4.708,4.921-8.987,8.559-12.411
		c3.638-3.638,7.703-6.419,12.411-8.559s9.843-2.996,15.406-2.996c5.563,0,10.485,1.07,15.406,2.996
		c4.708,2.14,8.987,4.921,12.411,8.559c3.638,3.638,6.419,7.703,8.559,12.411c2.14,4.707,2.996,9.843,2.996,15.406
		s-1.07,10.484-2.996,15.406c-2.14,4.707-4.921,8.986-8.559,12.41c-3.638,3.638-7.703,6.42-12.411,8.56
		C265.116,387.351,259.98,388.421,254.631,388.421z M230.666,349.05c0,3.209,0.642,6.419,1.926,9.415
		c1.284,2.995,2.996,5.349,5.136,7.703c2.14,2.14,4.708,3.852,7.703,5.135c2.996,1.284,5.991,1.926,9.415,1.926
		c3.209,0,6.419-0.642,9.415-1.926c2.996-1.283,5.35-2.995,7.703-5.135c2.14-2.14,3.852-4.708,5.136-7.703
		c1.284-2.996,1.926-5.991,1.926-9.415c0-3.21-0.642-6.42-1.926-9.415c-1.284-2.996-2.996-5.35-5.136-7.703
		c-2.14-2.14-4.708-3.852-7.703-5.136c-2.996-1.283-5.991-1.926-9.415-1.926c-3.21,0-6.419,0.643-9.415,1.926
		c-2.996,1.284-5.35,2.996-7.703,5.136c-2.14,2.14-3.852,4.707-5.136,7.703C231.308,342.63,230.666,345.84,230.666,349.05z"/>
	<path fill="#FFFFFF" d="M323.958,291.918h67.189v29.957h-30.813v12.624h30.385v28.459h-30.385v43.223h-36.377V291.918z
		 M345.357,392.272v-41.511h32.523v-4.065h-32.523v-37.019h34.236v-4.065h-38.73v86.874h4.494V392.272z"/>
	<path fill="#FFFFFF" d="M400.562,291.918h38.73V406.18h-38.73V291.918z M422.173,392.272v-86.66h-4.492v86.874h4.492V392.272z"/>
	<path fill="#FFFFFF" d="M451.275,291.918h38.088v84.307h31.453v29.956h-69.541V291.918z M511.187,392.272v-4.065h-38.301v-82.595
		h-4.494v86.874h42.795V392.272z"/>
	<path fill="#FFFFFF" d="M526.808,291.918h67.188v29.957h-30.813v12.624h30.385v28.459h-30.385v13.267h32.098v29.956h-68.473
		V291.918z M582.441,392.272v-4.065h-34.234v-37.445h32.523v-4.065h-32.523v-37.019h34.234v-4.065h-38.729v86.874h38.729V392.272z"
		/>
</g>
<rect x="34.664" y="451.758" fill="#FFFFFF" width="516.324" height="101.211"/>
<path fill="#263545" d="M131.167,487.92h-11.982v-5.777h21.825v5.777l-6.205,4.493l6.205,4.708v6.847l-10.913-7.917l-10.699,7.917
	v-7.274L131.167,487.92z M126.459,516.806h20.542v-21.184h-5.136v-5.777h5.136v-7.917h5.991v40.014h-32.096v-14.337h5.563V516.806z"
	/>
<path fill="#263545" d="M186.159,481.928c5.563,0,9.843,4.707,9.843,10.271v19.472c0,5.563-4.493,10.271-10.057,10.271h-2.14
	c-5.777,0-10.485-4.494-10.485-10.271v-19.258c0-5.777,4.708-10.271,10.485-10.271h2.354V481.928z M183.805,488.134
	c-2.354,0-4.494,1.926-4.494,4.279v19.472c0,2.354,1.926,4.28,4.494,4.28h1.926c2.354,0,4.279-1.926,4.279-4.28v-19.472
	c0-2.14-1.926-4.279-4.065-4.279H183.805z M207.342,522.156h-6.419v-40.228h6.419V522.156z"/>
<path fill="#263545" d="M232.591,482.142v14.122h-12.41v3.21h13.052v5.35h-18.83v-14.123h12.41v-2.995h-12.41v-5.563H232.591z
	 M242.006,489.632v-7.703h5.991v40.014h-32.096v-13.053h6.206v7.275h19.899v-21.184h-6.847v-5.563h6.847V489.632z"/>
<path fill="#263545" d="M285.229,521.942l-5.777-26.105l-5.777,26.105h-6.205l9.201-39.586h5.777l9.201,39.586H285.229z
	 M301.064,494.767h4.279v5.777h-4.279v21.611h-5.778v-40.228h5.778V494.767z"/>
<path fill="#263545" d="M330.164,496.264h-15.191v3.852h15.191v5.35h-20.969v-14.122h15.191v-3.852h-15.191v-5.136h20.969V496.264z
	 M311.335,522.156v-13.267h25.248v-26.961h5.35v8.345h4.279v5.35h-4.279v26.319h-30.598V522.156z M317.113,517.02h18.615v-2.995
	h-18.615V517.02z"/>
<path fill="#263545" d="M362.474,482.142c4.709,0,8.346,3.638,8.346,8.345v3.21c0,4.707-3.637,8.345-8.346,8.345h-4.492
	c-4.709,0-8.346-3.638-8.346-8.345v-3.21c0-4.707,3.637-8.345,8.346-8.345H362.474z M357.339,508.033h20.328v-26.104h5.99v40.014
	h-32.096v-17.118h5.992v3.209H357.339z M365.042,491.557c0-2.14-1.498-3.638-3.637-3.638h-2.355c-2.139,0-3.637,1.498-3.637,3.638
	v1.284c0,2.14,1.498,3.637,3.637,3.637h2.355c2.139,0,3.637-1.497,3.637-3.637V491.557z M357.339,516.593h20.328v-3.21h-20.328
	V516.593z"/>
<path fill="#263545" d="M397.353,516.165h17.545v5.777H390.72v-39.8h6.633V516.165z M424.314,522.156h-6.205v-40.228h6.205V522.156z
	"/>
<path fill="#263545" d="M452.13,482.142v5.563h-14.123v28.459h14.338v5.777h-20.971v-39.8H452.13z M468.179,495.409v5.563H463.9
	v20.97h-5.992v-40.014h5.992v13.48H468.179z"/>
</svg>
