<?xml version="1.0" encoding="utf-8"?>
<!-- Generator: Adobe Illustrator 21.1.0, SVG Export Plug-In . SVG Version: 6.00 Build 0)  -->
<svg version="1.1" id="레이어_1" xmlns="http://www.w3.org/2000/svg" xmlns:xlink="http://www.w3.org/1999/xlink" x="0px"
	 y="0px" viewBox="0 0 1481.1 527.1" style="enable-background:new 0 0 1481.1 527.1;" xml:space="preserve">
<style type="text/css">
	.st0{fill:#FCFCFC;}
	.st1{fill:#FAC668;}
	.st2{fill:#E8E9EC;}
	.st3{fill:#CDCCCA;}
	.st4{fill:#494A4A;}
	.st5{fill:#73553A;}
	.st6{fill:#59422D;}
	.st7{fill:#E1E1E4;}
	.st8{fill:#D9D8DB;}
	.st9{fill:#896748;}
	.st10{fill:#10BB67;}
	.st11{fill:#0DA656;}
	.st12{fill:#CDC3D3;}
	.st13{fill:#A8A1AD;}
	.st14{fill:#CC392E;}
	.st15{fill:#FEA832;}
	.st16{fill:#FE8821;}
	.st17{fill:#FD4E26;}
	.st18{fill:#FD3018;}
</style>
<g>
	<path class="st0" d="M6.9,438.8c2.4,0,4.3,2.1,4.3,4.5v8.5c0,2.4-1.9,4.5-4.4,4.5H5.9c-2.5,0-4.6-2-4.6-4.5v-8.5
		c0-2.5,2-4.5,4.6-4.5H6.9z M5.9,441.5c-1.1,0-1.9,0.8-1.9,1.9v8.5c0,1,0.9,1.9,1.9,1.9h0.8c1,0,1.8-0.9,1.8-1.9v-8.5
		c0-1-0.8-1.9-1.8-1.9H5.9z M16.2,456.4h-2.9v-17.5h2.9V456.4z"/>
	<path class="st0" d="M35.3,447.5h-1.9v8.9H18.7v-2.5h4v-2.4c-1.8-0.4-3.1-1.8-3.1-3.4v-1.7c0-2,2-3.5,4.4-3.5
		c2.4,0,4.4,1.6,4.4,3.5v1.7c0,1.6-1.3,2.9-3.1,3.4v2.4h5.5v-15h2.6v6.2h1.9V447.5z M22.7,439.6v-1.4h2.6v1.4h3.6v2.3h-9.7v-2.3
		H22.7z M22.1,447.7c0,0.9,0.8,1.6,1.9,1.6c1,0,1.9-0.7,1.9-1.6v-0.9c0-0.9-0.8-1.6-1.9-1.6c-1,0-1.9,0.7-1.9,1.6V447.7z"/>
	<path class="st0" d="M46,443.3v0.2H49v-4.7h2.8v17.5H49v-5.3H46v0.7c0,2.5-2,4.5-4.6,4.5c-2.5,0-4.6-2-4.6-4.5v-8.5
		c0-2.5,2-4.5,4.6-4.5C44,438.8,46,440.8,46,443.3z M39.6,443.3v8.5c0,1,0.9,1.9,1.9,1.9c1.1,0,1.9-0.8,1.9-1.9v-8.5
		c0-1-0.9-1.9-1.9-1.9C40.4,441.5,39.6,442.3,39.6,443.3z M46,448.6H49V446H46V448.6z"/>
	<path class="st0" d="M60.9,447l3.1,9.3h-2.9l-1.7-5.3l-1.9,5.3h-2.9l5.3-14.8h-5.2v-2.6h8.2v2.6L60.9,447z M66.5,456.4v-17.5H69v6
		h1.9v2.4H69v9.1H66.5z"/>
	<path class="st0" d="M72.5,438.9h7.2v2.5h-4.5v12.4h4.8v2.5h-7.6V438.9z M81.3,438.8h2.5v6.1h1.4v-6.1h2.6v17.5h-2.6v-8.9h-1.4v8.9
		h-2.5V438.8z"/>
	<path class="st0" d="M96.1,439.5h3.4v2.2h-2.3c1,0.6,1.7,1.6,1.7,2.7v1.2c0,1.8-2,3.3-4.2,3.3c-2.3,0-4.1-1.5-4.1-3.3v-1.1
		c0-1.2,0.7-2.2,1.7-2.8h-2.3v-2.2h3.4v-1.3h2.6V439.5z M106.4,444.7h-1.9v7.6l-0.7,4h-2.5l0.7-4H91v-2.2h10.8v-11.3h2.8v3.3h1.9
		V444.7z M96.6,444.9c0-0.9-0.8-1.6-1.7-1.6c-1,0-1.8,0.7-1.8,1.6v0.3c0,0.9,0.8,1.6,1.8,1.6c1,0,1.7-0.7,1.7-1.6V444.9z"/>
	<path class="st0" d="M109.9,453.9v-6.8h2.7v6.8h1.6v-6.8h2.7v6.8h1.5l1-12.4h-10.7V439h13.5v2.5l-1,12.4h2.2v2.5h-15.9v-2.5H109.9z
		"/>
	<path class="st0" d="M140.8,438.9v2.6l-2.5,1.9l2.6,2v3.1l-4.5-3.5l-4.7,3.6v-3.1l5.3-4h-5.3v-2.6H140.8z M147.9,444.7H146v7.5
		l-0.7,4.2h-2.5l0.7-4.2h-11V450h10.8v-11.1h2.8v3.3h1.9V444.7z"/>
	<path class="st0" d="M154.3,447.1v-3.2h2.7v3.2h3.3l0.7-5.6h-10.8v-2.6h13.5v2.6l-0.8,5.6h1.9v2.4H149v-2.4H154.3z M163.9,452.9
		l-0.7,3.5h-2.8l0.7-3.5H150v-2.2h13.9V452.9z"/>
	<path class="st0" d="M169.2,445.7h2.7v8.3h6.8v-15.2h2.8v5.4h1.9v2.5h-1.9v9.6h-14.8V454h2.5V445.7z M176.6,438.9v12.3h-2.7v-9.9
		h-6.6v-2.4H176.6z"/>
	<path class="st0" d="M63.9,484.8h-6.7v-2.4h15.9v2.4h-6.6v5.2h-2.6V484.8z M72.7,480.6h-3.4l-4-5l-4,5h-3.5l6.3-8.1h2.2L72.7,480.6
		z"/>
	<path class="st0" d="M85.2,481.8h-2.9l-2.1-6.5l-2.4,6.5h-2.9l3.4-9.2H82L85.2,481.8z M87.6,483.7v-5.3h-2.7v-2.5h2.7v-3.4h2.6
		v13.5l-0.7,4.1h-2.8l0.7-4.1H76.2v-2.3H87.6z"/>
	<path class="st0" d="M99.3,479.4v-1.5h2.8v1.5h6.6v1.9H92.7v-1.9H99.3z M97.8,474.7h-4.4v-2.1h14.5v2.1h-4.4l4.4,1.7v2.5l-7.3-2.8
		l-7.2,2.8v-2.5L97.8,474.7z M107.6,487.1H96.2v0.9h11.4v2H93.8v-4.9h11.4v-0.9H93.8v-2h13.8V487.1z"/>
	<path class="st0" d="M125.7,472.5V490h-14v-7.2h2.6v1.6h8.8v-6.1h-3.3c-0.3,1.8-2.3,3.2-4.6,3.2c-2.5,0-4.4-1.5-4.4-3.6v-1.8
		c0-2.3,2.4-3.6,4.3-3.6h0.1c2.3,0,4.3,1.4,4.5,3.2h3.3v-3.3H125.7z M117.3,476.6c0-0.9-0.9-1.7-1.9-1.7c-1,0-1.9,0.8-1.9,1.7v0.9
		c0,0.9,0.9,1.7,1.9,1.7c1.1,0,1.9-0.7,1.9-1.7V476.6z M123.2,486.5h-8.8v1.3h8.8V486.5z"/>
</g>
<g>
	<path class="st0" d="M542.8,438.9v2.6l-2.5,1.9l2.6,2v3.1l-4.5-3.5l-4.7,3.6v-3.1l5.3-4h-5.3v-2.6H542.8z M549.9,444.7H548v7.5
		l-0.7,4.2h-2.5l0.7-4.2h-11V450h10.8v-11.1h2.8v3.3h1.9V444.7z"/>
	<path class="st0" d="M556.3,447.1v-3.2h2.7v3.2h3.3l0.7-5.6h-10.8v-2.6h13.5v2.6l-0.8,5.6h1.9v2.4H551v-2.4H556.3z M565.9,452.9
		l-0.7,3.5h-2.8l0.7-3.5H552v-2.2h13.9V452.9z"/>
	<path class="st0" d="M590.6,453.9v2.4h-15.9v-2.4H590.6z M589.9,449.6h-14.5v-2.5h2.5v-5.6h-2.5v-2.5h14.5v2.5h-2.3v5.6h2.3V449.6z
		 M580.7,447.1h4v-5.6h-4V447.1z"/>
	<path class="st0" d="M602.1,438.9v10h-6.4v4.9h6.6v2.4h-9.2v-10h6.4v-4.8h-6.4v-2.5H602.1z M607.7,456.4h-2.6v-17.5h2.6V456.4z"/>
	<path class="st0" d="M617.7,438.9v5.9h-5v1.8h5v2.2h-7.4v-6h5v-1.7h-5v-2.1H617.7z M619,438.8h2.5v3.8h1.4v-3.8h2.6v17.5h-14v-6
		h2.7v3.5h8.8v-8.8h-1.4v6.4H619V438.8z"/>
	<path class="st0" d="M635.7,456.3l-2.4-11.2l-2.4,11.2h-2.7l3.9-17.3h2.5l3.9,17.3H635.7z M643.3,456.4h-2.6v-9.3h-3.1v-2.5h3.1
		v-5.7h2.6V456.4z"/>
	<path class="st0" d="M657.9,438.2v1.3h3.4v2H660c0.3,0.4,0.5,0.9,0.5,1.5c0,1.4-1.1,2.4-2.6,2.8v0.6h5.8v-7.6h2.7v3.5h1.9v2.1h-1.9
		v4h-14.8v-2.1h3.6v-0.6c-1.5-0.4-2.6-1.4-2.6-2.8c0-0.6,0.2-1.1,0.5-1.5h-1.3v-2h3.4v-1.3H657.9z M666.5,453.7h-11.2v0.6h11.2v2
		h-13.6v-4.6h11.2v-0.6h-11.2v-2h13.6V453.7z M656.6,444.1c0.9,0,1.5-0.4,1.5-1.1s-0.6-1.1-1.5-1.1c-0.9,0-1.5,0.4-1.5,1.1
		S655.7,444.1,656.6,444.1z"/>
	<path class="st0" d="M684.1,438.9v2.3h-10.6v1.6h10.6v2.3h-5.4v1.6h6.6v2.2h-15.9v-2.2h6.6v-1.6h-5.4v-6.2H684.1z M681.3,450
		c1.8,0,3.3,1.4,3.3,3.2c0,1.8-1.5,3.2-3.3,3.2h-7.8c-1.8,0-3.3-1.4-3.3-3.2c0-1.8,1.5-3.2,3.3-3.2H681.3z M673.5,452.4
		c-0.4,0-0.8,0.4-0.8,0.8s0.4,0.8,0.8,0.8h7.8c0.4,0,0.8-0.4,0.8-0.8s-0.4-0.8-0.8-0.8H673.5z"/>
</g>
<g>
	<path class="st0" d="M1028.3,446.7h6.6v2.2H1019v-2.2h6.6v-1.8h2.7V446.7z M1024.3,441.1h-4.7V439h14.5v2.1h-4.7l4.6,2.4v2.8
		l-7.2-3.9l-7.2,3.9v-2.8L1024.3,441.1z M1030.8,450c1.8,0,3.3,1.3,3.3,3.2c0,1.9-1.5,3.2-3.3,3.2h-7.8c-1.8,0-3.3-1.3-3.3-3.2
		c0-1.9,1.5-3.2,3.3-3.2H1030.8z M1023,452.2c-0.6,0-1,0.4-1,0.9c0,0.5,0.4,0.9,1,0.9h7.8c0.6,0,1-0.4,1-0.9c0-0.5-0.4-0.9-1-0.9
		H1023z"/>
	<path class="st0" d="M1043.4,453.9v-3.3h-5.5v-6.9h11v-2.2h-11v-2.5h13.5v7h-11v2.1h11.2v2.5h-5.6v3.3h6.7v2.5h-15.9v-2.5H1043.4z"
		/>
	<path class="st0" d="M1065.3,453.9l1-12.4h-10.6V439h13.4v2.5l-1,12.4h2.4v2.4h-15.9v-2.4H1065.3z"/>
	<path class="st0" d="M1081.9,438.9v6.2h-6.6v1.4h6.8v2.3h-9.4v-6.2h6.6v-1.3h-6.6v-2.4H1081.9z M1076.2,453.9h8.7v-15h2.6v17.5h-14
		v-5.7h2.7V453.9z"/>
	<path class="st0" d="M1097.1,448.7h-2.9l0.6-3.1h-4.5v-2.3h4.9l0.4-1.9h-5.5v-2.5h8.4v2.4L1097.1,448.7z M1102.5,450v-4.8h-3.4
		v-2.5h3.4v-3.9h2.8v17.5h-14.1V450H1102.5z M1093.9,453.9h8.6v-1.5h-8.6V453.9z"/>
	<path class="st0" d="M1123.7,449.2v2.3h-3.5v4.8h-2.6v-4.8h-3.7v4.8h-2.6v-4.8h-3.5v-2.3H1123.7z M1123,447.7h-14.5v-2.5h2.5v-3.8
		h-2.5v-2.5h14.5v2.5h-2.3v3.8h2.3V447.7z M1113.8,445.2h4v-3.8h-4V445.2z"/>
	<path class="st0" d="M1126,438.9h8.3v2.5h-5.5v4.7h5.1v2.5h-5.1v5.2h5.8v2.5h-8.6V438.9z M1140.8,456.4h-2.6v-7.7h-2.9V446h2.9
		v-7.2h2.6V456.4z"/>
	<path class="st0" d="M1152.9,443.3v8.6c0,2.5-2.1,4.4-4.6,4.4s-4.6-2-4.6-4.4v-8.6c0-2.5,2-4.4,4.6-4.4S1152.9,440.8,1152.9,443.3z
		 M1146.4,443.3v8.6c0,1,0.9,1.9,1.9,1.9c1.1,0,1.9-0.8,1.9-1.9v-8.6c0-1-0.9-1.9-1.9-1.9C1147.3,441.4,1146.4,442.3,1146.4,443.3z
		 M1158.1,446.1h1.9v2.5h-1.9v7.7h-2.6v-17.5h2.6V446.1z"/>
	<path class="st0" d="M1177,453.9v2.4h-15.9v-2.4H1177z M1176.1,438.9v2.5h-11.3v2.1h11.3v2.5h-11.3v2h11.3v2.5H1162v-11.6H1176.1z"
		/>
	<path class="st0" d="M1185.2,439.5h3.4v2.2h-2.3c1,0.6,1.7,1.6,1.7,2.7v1.2c0,1.8-2,3.3-4.2,3.3c-2.3,0-4.1-1.5-4.1-3.3v-1.1
		c0-1.2,0.7-2.2,1.7-2.8h-2.3v-2.2h3.4v-1.3h2.6V439.5z M1195.5,444.7h-1.9v7.6l-0.7,4h-2.5l0.7-4h-11v-2.2h10.8v-11.3h2.8v3.3h1.9
		V444.7z M1185.7,444.9c0-0.9-0.8-1.6-1.7-1.6c-1,0-1.8,0.7-1.8,1.6v0.3c0,0.9,0.8,1.6,1.8,1.6c1,0,1.7-0.7,1.7-1.6V444.9z"/>
	<path class="st0" d="M1201.4,449.8h-4.8v-2.4h12.7v-2.8h-2.4v-2.5h2.4v-3.3h2.6v13.6h-2.6v-2.7h-5.3v2.5h-2.5V449.8z M1201.6,438.8
		c2.2,0,4.2,1.5,4.2,3.3v1.2c0,1.8-2,3.3-4.2,3.3c-2.3,0-4.1-1.5-4.1-3.3v-1.2c0-2.1,2.2-3.4,4-3.4H1201.6z M1211.9,456.4h-14.4
		v-4.2h2.6v1.8h11.8V456.4z M1203.3,442.7c0-0.9-0.8-1.6-1.7-1.6s-1.8,0.7-1.8,1.6v0.4c0,0.9,0.8,1.6,1.8,1.6s1.7-0.7,1.7-1.6V442.7
		z"/>
	<path class="st0" d="M966.5,472.6h9.4v2.6h-6.6v12.2h6.6v2.5h-9.4V472.6z M978.5,490v-17.5h2.6V490H978.5z"/>
	<path class="st0" d="M991.1,480.6l3.5,9.3h-2.9l-2.2-5.9l-2.7,5.9h-3l6.8-14.8h-6.5v-2.5h9.6v2.5L991.1,480.6z M998.9,490h-2.6
		v-17.5h2.6V490z"/>
	<path class="st0" d="M1001.7,472.6h8.2v2.1h-5.5v1.1h5.2v2h-5.2v1h5.8v2.1h-8.5V472.6z M1014.1,481.8v-4h-3.2v-2.1h3.2v-3.2h2.5
		v14.4h-11.4v1h11.4v2.2h-14v-5.1h11.4V484h-11.4v-2.1H1014.1z"/>
	<path class="st0" d="M1019.8,472.6h9.4v2.6h-6.6v12.2h6.6v2.5h-9.4V472.6z M1031.8,490v-17.5h2.6V490H1031.8z"/>
	<path class="st0" d="M1043.6,480.6l3.1,9.3h-2.9l-1.7-5.3l-1.9,5.3h-2.9l5.3-14.8h-5.2v-2.6h8.2v2.6L1043.6,480.6z M1049.2,490
		v-17.5h2.5v6h1.9v2.4h-1.9v9.1H1049.2z"/>
	<path class="st0" d="M1060.6,472.6c2.2,0,4,1.8,4,4v1.9c0,2.2-1.8,4-4,4h-1.5c-2.2,0-4-1.8-4-4v-1.9c0-2.2,1.8-4,4-4H1060.6z
		 M1058.5,487.5h8.8v-15h2.6V490h-14v-5.7h2.6V487.5z M1059.1,475.1c-0.8,0-1.5,0.7-1.5,1.5v1.9c0,0.8,0.7,1.5,1.5,1.5h1.5
		c0.8,0,1.5-0.7,1.5-1.5v-1.9c0-0.8-0.7-1.5-1.5-1.5H1059.1z"/>
	<path class="st0" d="M1076.9,472.5c-1.5,2.7-2.2,5.6-2.2,8.5c0,2.9,0.7,5.8,2.2,8.4h-2.5c-1.5-2.6-2.3-5.5-2.3-8.4
		c0-2.9,0.8-5.8,2.3-8.5H1076.9z"/>
	<path class="st0" d="M1078.6,482.3v-9.7h2.6v2.8h3.6v-2.8h2.5v9.7H1078.6z M1082,487.7h8.3v-15.2h2.6v4.1h1.9v2.5h-1.9V490h-13.5
		v-6.1h2.6V487.7z M1084.8,479.8v-2h-3.6v2H1084.8z"/>
	<path class="st0" d="M1111.9,480.4v2.3h-15.9v-2.3H1111.9z M1100,483.7h7.8c1.8,0,3.3,1.3,3.3,3.1c0,1.8-1.5,3.1-3.3,3.1h-7.8
		c-1.8,0-3.3-1.3-3.3-3.1C1096.7,485.1,1098.2,483.7,1100,483.7z M1100,479.3c-1.8,0-3.1-1.3-3.1-3.4c0-2,1.4-3.3,3.1-3.3h7.8
		c1.7,0,3.1,1.2,3.1,3.3c0,2.1-1.4,3.4-3.1,3.4H1100z M1100,487.7h7.8c0.4,0,0.8-0.4,0.8-0.9s-0.4-0.9-0.8-0.9h-7.8
		c-0.4,0-0.8,0.4-0.8,0.9S1099.6,487.7,1100,487.7z M1107.7,476.8c0.5,0,0.7-0.4,0.7-0.9c0-0.5-0.3-0.9-0.7-0.9h-7.6
		c-0.5,0-0.7,0.4-0.7,0.9c0,0.4,0.3,0.9,0.7,0.9H1107.7z"/>
	<path class="st0" d="M1120.1,473.1h3.4v2.2h-3.1c1.4,0.5,2.4,1.6,2.4,2.8v1.3c0,1.7-1.9,3.1-4.1,3.1s-4-1.4-4-3.1v-1.3
		c0-1.3,1-2.4,2.3-2.9h-2.9v-2.2h3.4v-1.3h2.6V473.1z M1125.8,484.1c1.8,0,3.3,1.1,3.3,3c0,1.8-1.5,3-3.3,3h-7.6
		c-1.8,0-3.3-1.1-3.3-3c0-1.8,1.5-3,3.3-3H1125.8z M1120.5,478.6c0-0.8-0.8-1.4-1.7-1.4c-0.9,0-1.7,0.6-1.7,1.4v0.4
		c0,0.8,0.8,1.4,1.7,1.4c0.9,0,1.7-0.6,1.7-1.4V478.6z M1118.3,486.2c-0.4,0-0.8,0.4-0.8,0.8s0.4,0.8,0.8,0.8h7.4
		c0.4,0,0.8-0.4,0.8-0.8s-0.4-0.8-0.8-0.8H1118.3z M1129,483h-2.6v-2.4h-1.9v-2.3h1.9v-1.5h-1.9v-2.3h1.9v-2h2.6V483z"/>
	<path class="st0" d="M1141,481.9h-4.1v1.1h-2.5v-1.1h-2.9V480h9.5v-2.7h-1.3v-2.1h1.3v-2.7h2.2V483h-2.2V481.9z M1134.3,479.3
		c-1.5,0-2.6-1.4-2.6-2.9v-0.9c0-1.4,1.1-2.9,2.6-2.9h2.2c1.5,0,2.6,1.6,2.6,2.9v0.9c0,1.4-1.1,2.9-2.6,2.9H1134.3z M1135.2,483.6
		v1.1h9.2v-12.2h2.3V490H1133v-6.4H1135.2z M1134,476.2c0,0.6,0.4,1.1,1,1.1h0.8c0.6,0,1-0.6,1-1.1v-0.6c0-0.5-0.4-1.1-1-1.1h-0.8
		c-0.7,0-1,0.7-1,1.1V476.2z M1144.5,486.8h-9.2v1h9.2V486.8z"/>
	<path class="st0" d="M1151.4,472.5c1.5,2.7,2.3,5.6,2.3,8.5c0,2.9-0.8,5.8-2.3,8.4h-2.5c1.5-2.6,2.2-5.5,2.2-8.4
		c0-2.9-0.7-5.8-2.2-8.5H1151.4z"/>
	<path class="st0" d="M1157.5,479.3h2.7v8.3h6.8v-15.2h2.8v5.4h1.9v2.5h-1.9v9.6H1155v-2.4h2.5V479.3z M1164.8,472.6v12.3h-2.7V475
		h-6.6v-2.4H1164.8z"/>
	<path class="st0" d="M1182.3,472.6v2.4l-2.6,2l2.6,2v2.9l-4.4-3.5l-4.7,3.6v-2.9l5.3-4.2h-5.3v-2.4H1182.3z M1184.8,483.4
		c1.8,0,3.3,1.5,3.3,3.3c0,1.8-1.5,3.3-3.3,3.3h-7.6c-1.8,0-3.3-1.5-3.3-3.3c0-1.8,1.5-3.3,3.3-3.3H1184.8z M1177.2,485.9
		c-0.4,0-0.8,0.4-0.8,0.8s0.4,0.8,0.8,0.8h7.6c0.4,0,0.8-0.4,0.8-0.8s-0.4-0.8-0.8-0.8H1177.2z M1185.4,475.9v-3.4h2.6v9.8h-2.6
		v-3.8h-2.2v-2.5H1185.4z"/>
	<path class="st0" d="M1212.3,483.4v2.3h-6.7v4.3h-2.6v-4.3h-6.7v-2.3H1212.3z M1197.2,476.2c0-2,1.6-3.6,3.7-3.6h7.1
		c2,0,3.7,1.6,3.7,3.6v1.1c0,2-1.6,3.6-3.7,3.6h-7.1c-2,0-3.7-1.6-3.7-3.6V476.2z M1201.4,478.5h6c1,0,1.6-0.8,1.6-1.7
		c0-0.9-0.6-1.7-1.6-1.7h-6c-1,0-1.6,0.8-1.6,1.7C1199.8,477.7,1200.3,478.5,1201.4,478.5z"/>
	<path class="st0" d="M1220.9,484.8h-6.7v-2.4h15.9v2.4h-6.6v5.2h-2.6V484.8z M1229.7,480.6h-3.4l-3-5h-2l-3,5h-3.5l5.1-8.1h4.8
		L1229.7,480.6z"/>
	<path class="st0" d="M1238.7,484.8h-6.7v-2.4h15.9v2.4h-6.6v5.2h-2.6V484.8z M1247.4,480.6h-3.4l-4-5l-4,5h-3.5l6.3-8.1h2.2
		L1247.4,480.6z"/>
	<path class="st0" d="M1253.5,487.5v-3.2h-2.6v-7h10.7v-2.1h-10.7v-2.6h13.5v7.1h-10.7v2h10.8v2.6h-2.4v3.2h3.4v2.5h-15.9v-2.5
		H1253.5z M1256.3,487.5h3.1v-3.2h-3.1V487.5z"/>
	<path class="st0" d="M1051.1,506.1c-1.5,2.7-2.2,5.6-2.2,8.5c0,2.9,0.7,5.8,2.2,8.4h-2.5c-1.5-2.6-2.3-5.5-2.3-8.4
		c0-2.9,0.8-5.8,2.3-8.5H1051.1z"/>
	<path class="st0" d="M1061.3,514.5l-0.1,0.2l0.1,0.1c0.4,0.4,0.7,0.9,0.9,1.4c0.6,1.4,0.6,2.8,0,4.2c-0.4,1-1.1,1.8-2.1,2.3
		c-1.4,0.6-2.8,0.5-4.3,0.5c-2.2,0-4.1-1.9-4.1-4.1v-0.5h2.5c0,0.2,0,0.5,0.1,0.7c0.4,1,1.8,1.2,2.7,1.2c0.6,0,1.4-0.1,1.9-0.5
		c0.7-0.5,0.9-1.6,0.6-2.5c-0.2-0.8-0.8-1.3-1.7-1.5c-0.4-0.1-0.9-0.1-1.5-0.1h-0.8v-2.4h0.8c0.6,0,1.1,0,1.5-0.1
		c0.4-0.1,0.8-0.2,1.1-0.4c0.8-0.6,0.9-1.9,0-2.7c-1-0.9-4.7-0.9-4.7,1.4h-2.5v-0.5c0-2.7,2.4-4.1,4.8-4.1c1.2,0,1.3,0,1.4,0
		c0.4,0,0.8,0.1,1.1,0.1c0.7,0.1,1.4,0.5,1.9,0.9c0.6,0.5,1.1,1.1,1.3,1.9C1062.9,511.7,1062.7,513.3,1061.3,514.5z"/>
	<path class="st0" d="M1068.6,508.7h-4.7v-2.5h7.4v2.5l-2.1,14.8h-2.8L1068.6,508.7z M1072.8,523.6v-17.5h2.6v6.1h1.6v-6.1h2.6v17.5
		h-2.6v-8.9h-1.6v8.9H1072.8z"/>
	<path class="st0" d="M1097,521h-11.3v0.7h11.3v1.9h-13.7v-4.5h11.3v-0.6h-11.3v-1.9h11.1v-1.7h-6.1v1.3h-2.5v-1.3h-4V513h12.7v-2.2
		h-1.9v-2.1h1.9v-2.6h2.6V521z M1085.2,512.5c-1.5,0-2.6-1.5-2.6-3v-0.4c0-1.4,1.1-2.9,2.6-2.9h3.7c1.5,0,2.6,1.6,2.6,2.9v0.4
		c0,1.4-1.1,3-2.6,3H1085.2z M1086,510.2h2.1c0.6,0,0.9-0.6,0.9-0.9c0-0.3-0.3-0.9-0.9-0.9h-2.1c-0.7,0-0.9,0.7-0.9,0.9
		C1085.1,509.7,1085.3,510.2,1086,510.2z"/>
	<path class="st0" d="M1099.3,524l0.4-3h2.7l-0.6,3H1099.3z"/>
	<path class="st0" d="M1118.8,514.5l-0.1,0.2l0.1,0.1c0.4,0.4,0.7,0.9,0.9,1.4c0.6,1.4,0.6,2.8,0,4.2c-0.4,1-1.1,1.8-2.1,2.3
		c-1.4,0.6-2.8,0.5-4.3,0.5c-2.2,0-4.1-1.9-4.1-4.1v-0.5h2.5c0,0.2,0,0.5,0.1,0.7c0.4,1,1.8,1.2,2.7,1.2c0.6,0,1.4-0.1,1.9-0.5
		c0.7-0.5,0.9-1.6,0.6-2.5c-0.2-0.8-0.8-1.3-1.7-1.5c-0.4-0.1-0.9-0.1-1.5-0.1h-0.8v-2.4h0.8c0.6,0,1.1,0,1.5-0.1
		c0.4-0.1,0.8-0.2,1.1-0.4c0.8-0.6,0.9-1.9,0-2.7c-1-0.9-4.7-0.9-4.7,1.4h-2.5v-0.5c0-2.7,2.4-4.1,4.8-4.1c1.2,0,1.3,0,1.4,0
		c0.4,0,0.8,0.1,1.1,0.1c0.7,0.1,1.4,0.5,1.9,0.9c0.6,0.5,1.1,1.1,1.3,1.9C1120.4,511.7,1120.1,513.3,1118.8,514.5z"/>
	<path class="st0" d="M1121.2,519.6c2.2-1.6,4.2-3.4,6-5.1c1-0.9,1.4-1.4,1.4-2.8c0-1.1-0.9-1.9-1.9-1.9h-1.3c-1,0-1.9,0.9-1.9,1.9
		v0.6h-2.5v-1c0-2.3,1.9-4.1,4.1-4.1h2c2.3,0,4.1,1.9,4.1,4.1v0.4c0,1.9-0.3,3-1.8,4.4c-1.8,1.7-3.7,3.4-5.7,4.8h7.2v2.4h-9.8V519.6
		z"/>
	<path class="st0" d="M1139.3,507.3c2.4,0,4.3,1.9,4.3,4.3v7.2c0,2.4-1.9,4.3-4.3,4.3h-2.4c-2.4,0-4.3-1.9-4.3-4.3v-7.2
		c0-2.4,1.9-4.3,4.3-4.3H1139.3z M1140.9,512.1c0-1.1-0.9-2-1.9-2h-1.7c-1.1,0-1.9,0.9-1.9,2v6.3c0,1.1,0.9,2,1.9,2h1.7
		c1.1,0,1.9-0.9,1.9-2V512.1z"/>
	<path class="st0" d="M1153.4,523.6l-2.6-11.3l-2.6,11.3h-2.7l4-17.3h2.5l4,17.3H1153.4z M1160.7,523.6h-2.6v-17.5h2.6V523.6z"/>
	<path class="st0" d="M1163.2,506.2h8.6v2.5l-0.8,6.9h-2.8l0.8-6.9h-5.8V506.2z M1165,523.6V518h2.6v3.2h7.7v-15.1h2.7v4.5h1.9v2.2
		h-1.9v10.8H1165z"/>
	<path class="st0" d="M1183.1,506.1c1.5,2.7,2.3,5.6,2.3,8.5c0,2.9-0.8,5.8-2.3,8.4h-2.5c1.5-2.6,2.2-5.5,2.2-8.4
		c0-2.9-0.7-5.8-2.2-8.5H1183.1z"/>
</g>
<g>
	<path class="st0" d="M1284.1,8.5h6.6v2.2h-15.9V8.5h6.6V6.7h2.7V8.5z M1280.2,2.9h-4.7V0.7h14.5v2.1h-4.7l4.6,2.4v2.8l-7.2-3.9
		l-7.2,3.9V5.3L1280.2,2.9z M1286.6,11.8c1.8,0,3.3,1.3,3.3,3.2c0,1.9-1.5,3.2-3.3,3.2h-7.8c-1.8,0-3.3-1.3-3.3-3.2
		c0-1.9,1.5-3.2,3.3-3.2H1286.6z M1278.9,14c-0.6,0-1,0.4-1,0.9c0,0.5,0.4,0.9,1,0.9h7.8c0.6,0,1-0.4,1-0.9c0-0.5-0.4-0.9-1-0.9
		H1278.9z"/>
	<path class="st0" d="M1299.2,15.7v-3.3h-5.5V5.4h11V3.2h-11V0.7h13.5v7h-11v2.1h11.2v2.5h-5.6v3.3h6.7v2.5h-15.9v-2.5H1299.2z"/>
	<path class="st0" d="M1321.1,15.7l1-12.4h-10.6V0.8h13.4v2.5l-1,12.4h2.4v2.4h-15.9v-2.4H1321.1z"/>
	<path class="st0" d="M1337.7,0.7v6.2h-6.6v1.4h6.8v2.3h-9.4V4.5h6.6V3.1h-6.6V0.7H1337.7z M1332,15.6h8.7v-15h2.6v17.5h-14v-5.7
		h2.7V15.6z"/>
	<path class="st0" d="M1352.9,10.5h-2.9l0.6-3.1h-4.5V5.1h4.9l0.4-1.9h-5.5V0.7h8.4v2.4L1352.9,10.5z M1358.3,11.8V7h-3.4V4.5h3.4
		V0.6h2.8v17.5h-14.1v-6.4H1358.3z M1349.8,15.7h8.6v-1.5h-8.6V15.7z"/>
	<path class="st0" d="M1379.5,11v2.3h-3.5v4.8h-2.6v-4.8h-3.7v4.8h-2.6v-4.8h-3.5V11H1379.5z M1378.8,9.5h-14.5V7h2.5V3.2h-2.5V0.7
		h14.5v2.5h-2.3V7h2.3V9.5z M1369.6,7h4V3.2h-4V7z"/>
	<path class="st0" d="M1381.8,0.7h8.3v2.5h-5.5v4.7h5.1v2.5h-5.1v5.2h5.8V18h-8.6V0.7z M1396.6,18.1h-2.6v-7.7h-2.9V7.8h2.9V0.6h2.6
		V18.1z"/>
	<path class="st0" d="M1408.7,5.1v8.6c0,2.5-2.1,4.4-4.6,4.4s-4.6-2-4.6-4.4V5.1c0-2.5,2-4.4,4.6-4.4S1408.7,2.6,1408.7,5.1z
		 M1402.2,5.1v8.6c0,1,0.9,1.9,1.9,1.9c1.1,0,1.9-0.8,1.9-1.9V5.1c0-1-0.9-1.9-1.9-1.9C1403.1,3.2,1402.2,4,1402.2,5.1z M1413.9,7.9
		h1.9v2.5h-1.9v7.7h-2.6V0.6h2.6V7.9z"/>
	<path class="st0" d="M1432.8,15.7v2.4h-15.9v-2.4H1432.8z M1432,0.7v2.5h-11.3v2.1h11.3v2.5h-11.3v2h11.3v2.5h-14.2V0.7H1432z"/>
	<path class="st0" d="M1441.1,1.3h3.4v2.2h-2.3c1,0.6,1.7,1.6,1.7,2.7v1.2c0,1.8-2,3.3-4.2,3.3c-2.3,0-4.1-1.5-4.1-3.3V6.2
		c0-1.2,0.7-2.2,1.7-2.8h-2.3V1.3h3.4V0h2.6V1.3z M1451.3,6.5h-1.9v7.6l-0.7,4h-2.5l0.7-4h-11V12h10.8V0.6h2.8V4h1.9V6.5z
		 M1441.5,6.7c0-0.9-0.8-1.6-1.7-1.6c-1,0-1.8,0.7-1.8,1.6V7c0,0.9,0.8,1.6,1.8,1.6c1,0,1.7-0.7,1.7-1.6V6.7z"/>
	<path class="st0" d="M1457.3,11.6h-4.8V9.2h12.7V6.4h-2.4V3.9h2.4V0.6h2.6v13.6h-2.6v-2.7h-5.3v2.5h-2.5V11.6z M1457.4,0.6
		c2.2,0,4.2,1.5,4.2,3.3v1.2c0,1.8-2,3.3-4.2,3.3c-2.3,0-4.1-1.5-4.1-3.3V4c0-2.1,2.2-3.4,4-3.4H1457.4z M1467.7,18.1h-14.4v-4.2
		h2.6v1.8h11.8V18.1z M1459.2,4.5c0-0.9-0.8-1.6-1.7-1.6s-1.8,0.7-1.8,1.6v0.4c0,0.9,0.8,1.6,1.8,1.6s1.7-0.7,1.7-1.6V4.5z"/>
	<path class="st0" d="M1263.6,34.4h9.4v2.6h-6.6v12.2h6.6v2.5h-9.4V34.4z M1275.6,51.8V34.3h2.6v17.5H1275.6z"/>
	<path class="st0" d="M1288.2,42.4l3.5,9.3h-2.9l-2.2-5.9l-2.7,5.9h-3l6.8-14.8h-6.5v-2.5h9.6v2.5L1288.2,42.4z M1296,51.8h-2.6
		V34.3h2.6V51.8z"/>
	<path class="st0" d="M1298.8,34.4h8.2v2.1h-5.5v1.1h5.2v2h-5.2v1h5.8v2.1h-8.5V34.4z M1311.2,43.6v-4h-3.2v-2.1h3.2v-3.2h2.5v14.4
		h-11.4v1h11.4v2.2h-14v-5.1h11.4v-0.9h-11.4v-2.1H1311.2z"/>
	<path class="st0" d="M1316.9,34.4h9.4v2.6h-6.6v12.2h6.6v2.5h-9.4V34.4z M1328.9,51.8V34.3h2.6v17.5H1328.9z"/>
	<path class="st0" d="M1340.7,42.4l3.1,9.3h-2.9l-1.7-5.3l-1.9,5.3h-2.9l5.3-14.8h-5.2v-2.6h8.2v2.6L1340.7,42.4z M1346.3,51.8V34.3
		h2.5v6h1.9v2.4h-1.9v9.1H1346.3z"/>
	<path class="st0" d="M1357.7,34.4c2.2,0,4,1.8,4,4v1.9c0,2.2-1.8,4-4,4h-1.5c-2.2,0-4-1.8-4-4v-1.9c0-2.2,1.8-4,4-4H1357.7z
		 M1355.6,49.3h8.8v-15h2.6v17.5h-14v-5.7h2.6V49.3z M1356.2,36.9c-0.8,0-1.5,0.7-1.5,1.5v1.9c0,0.8,0.7,1.5,1.5,1.5h1.5
		c0.8,0,1.5-0.7,1.5-1.5v-1.9c0-0.8-0.7-1.5-1.5-1.5H1356.2z"/>
	<path class="st0" d="M1375.9,34.9h3.4v2.2h-3.1c1.4,0.5,2.4,1.6,2.4,2.8v1.3c0,1.7-1.9,3.1-4.1,3.1s-4-1.4-4-3.1V40
		c0-1.3,1-2.4,2.3-2.9h-2.9v-2.2h3.4v-1.3h2.6V34.9z M1381.4,45.3c1.8,0,3.3,1.4,3.3,3.2c0,1.8-1.5,3.2-3.3,3.2h-7.6
		c-1.8,0-3.3-1.4-3.3-3.2c0-1.8,1.5-3.2,3.3-3.2H1381.4z M1376.3,40.4c0-0.8-0.8-1.4-1.7-1.4c-0.9,0-1.7,0.6-1.7,1.4v0.4
		c0,0.8,0.8,1.4,1.7,1.4c0.9,0,1.7-0.6,1.7-1.4V40.4z M1373.8,47.7c-0.4,0-0.8,0.4-0.8,0.8c0,0.4,0.4,0.8,0.8,0.8h7.6
		c0.4,0,0.8-0.4,0.8-0.8c0-0.4-0.4-0.8-0.8-0.8H1373.8z M1381.5,44.3v-10h2.8v2h1.9v2.2h-1.9V40h1.9v2.2h-1.9v2H1381.5z"/>
	<path class="st0" d="M1397.5,42.9h-2.9l-2.1-5.8l-2.4,5.8h-2.9l3.4-8.5h3.7L1397.5,42.9z M1391.6,45.2h7.5c1.8,0,3.3,1.5,3.3,3.3
		s-1.5,3.3-3.3,3.3h-7.5c-1.8,0-3.3-1.5-3.3-3.3S1389.8,45.2,1391.6,45.2z M1391.7,49.5h7.5c0.5,0,0.8-0.5,0.8-1c0-0.5-0.3-1-0.8-1
		h-7.5c-0.5,0-0.8,0.5-0.8,1C1390.8,49,1391.2,49.5,1391.7,49.5z M1399.5,43.5v-9.2h2.6v3.3h1.9v2.5h-1.9v3.4H1399.5z"/>
	<path class="st0" d="M1407.5,41.1h2.7v8.3h6.8V34.3h2.8v5.4h1.9v2.5h-1.9v9.6h-14.8v-2.4h2.5V41.1z M1414.9,34.4v12.3h-2.7v-9.9
		h-6.6v-2.4H1414.9z"/>
	<path class="st0" d="M1432.4,34.4v2.4l-2.6,2l2.6,2v2.9l-4.4-3.5l-4.7,3.6V41l5.3-4.2h-5.3v-2.4H1432.4z M1434.9,45.2
		c1.8,0,3.3,1.5,3.3,3.3s-1.5,3.3-3.3,3.3h-7.6c-1.8,0-3.3-1.5-3.3-3.3s1.5-3.3,3.3-3.3H1434.9z M1427.3,47.7
		c-0.4,0-0.8,0.4-0.8,0.8s0.4,0.8,0.8,0.8h7.6c0.4,0,0.8-0.4,0.8-0.8s-0.4-0.8-0.8-0.8H1427.3z M1435.5,37.7v-3.4h2.6V44h-2.6v-3.8
		h-2.2v-2.5H1435.5z"/>
	<path class="st0" d="M1453.2,46.6h-6.7v-2.4h15.9v2.4h-6.6v5.2h-2.6V46.6z M1462,42.4h-3.4l-4-5l-4,5h-3.5l6.3-8.1h2.2L1462,42.4z"
		/>
	<path class="st0" d="M1468.1,49.3v-3.2h-2.6v-7h10.7v-2.1h-10.7v-2.6h13.5v7.1h-10.7v2h10.8v2.6h-2.4v3.2h3.4v2.5h-15.9v-2.5
		H1468.1z M1470.9,49.3h3.1v-3.2h-3.1V49.3z"/>
	<path class="st0" d="M1305.2,67.9c-1.5,2.7-2.2,5.6-2.2,8.5c0,2.9,0.7,5.8,2.2,8.4h-2.5c-1.5-2.6-2.3-5.5-2.3-8.4
		c0-2.9,0.8-5.8,2.3-8.5H1305.2z"/>
	<path class="st0" d="M1304.4,86.4h0.5c1.1,0,1.7-0.7,1.7-1.7V73.1h2.7v11.5c0,2.6-1.3,4.3-4.3,4.3h-0.5V86.4z M1309.2,71.8h-2.6
		v-2.7h2.6V71.8z"/>
	<path class="st0" d="M1317.7,69.1c2.5,0,4.6,2.1,4.6,4.6v6.6c0,0.7-0.2,1.4-0.5,2.1l2,2.5h-2.7l-0.7-0.9c-0.7,0.5-1.7,0.9-2.7,0.9
		h-1.8c-2.5,0-4.6-2.1-4.6-4.6v-6.6c0-2.5,2.1-4.6,4.6-4.6H1317.7z M1319.5,79.4v-5.5c0-1.1-0.7-2-1.7-2h-1.8c-1.1,0-1.8,0.9-1.8,2
		v6.3c0,1.1,0.7,2,1.8,2h1.8c0.4,0,0.7-0.1,0.9-0.3l-3.1-3.9h2.8L1319.5,79.4z"/>
	<path class="st0" d="M1330,82.2c1.5,0,1.9-0.8,1.9-1.8v-7.4h2.7v11.8h-2.7v-0.3c-0.5,0.2-1.1,0.3-1.7,0.3h-1.2c-2.8,0-4.1-2-4.1-4
		v-7.7h2.7v7.2c0,1.1,0.3,1.9,1.9,1.9H1330z"/>
	<path class="st0" d="M1336.3,77.3c0-2.3,1.9-4.2,3.8-4.2h2.6c2.4,0,3.8,2.2,3.8,4.1v3h-7.5v0.6c0,1.1,0.7,1.5,1.7,1.5h5.4v2.6h-6
		c-2.1,0-3.8-1.7-3.8-4V77.3z M1339,78h4.8v-0.1c0-1.2-0.7-2.1-1.7-2.1h-1.4c-1,0-1.6,1-1.6,2.1V78z"/>
	<path class="st0" d="M1356,73.3h0.3v2.9h-0.3c-2.2,0-4.9,2-4.9,3.8v4.9h-2.9V73h2.9v2.5C1352,74.1,1354.1,73.3,1356,73.3z"/>
	<path class="st0" d="M1362.4,88.9h-2.6l1.2-4.1l-3.6-11.7h2.6l2.3,7.5l2.2-7.5h2.6L1362.4,88.9z"/>
	<path class="st0" d="M1368.1,85.8l0.4-3h2.7l-0.6,3H1368.1z"/>
	<path class="st0" d="M1387.5,76.3l-0.1,0.2l0.1,0.1c0.4,0.4,0.7,0.9,0.9,1.4c0.6,1.4,0.6,2.8,0,4.2c-0.4,1-1.1,1.8-2.1,2.3
		c-1.4,0.6-2.8,0.5-4.3,0.5c-2.2,0-4.1-1.9-4.1-4.1v-0.5h2.5c0,0.2,0,0.5,0.1,0.7c0.4,1,1.8,1.2,2.7,1.2c0.6,0,1.4-0.1,1.9-0.5
		c0.7-0.5,0.9-1.6,0.6-2.5c-0.2-0.8-0.8-1.3-1.7-1.5c-0.4-0.1-0.9-0.1-1.5-0.1h-0.8v-2.4h0.8c0.6,0,1.1,0,1.5-0.1
		c0.4-0.1,0.8-0.2,1.1-0.4c0.8-0.6,0.9-1.9,0-2.7c-1-0.9-4.7-0.9-4.7,1.4h-2.5V73c0-2.7,2.4-4.1,4.8-4.1c1.2,0,1.3,0,1.4,0
		c0.4,0,0.8,0.1,1.1,0.1c0.7,0.1,1.4,0.5,1.9,0.9c0.6,0.5,1.1,1.1,1.3,1.9C1389.1,73.5,1388.9,75.1,1387.5,76.3z"/>
	<path class="st0" d="M1396.8,69c2.4,0,4.3,1.9,4.3,4.3v7.2c0,2.4-1.9,4.3-4.3,4.3h-2.4c-2.4,0-4.3-1.9-4.3-4.3v-7.2
		c0-2.4,1.9-4.3,4.3-4.3H1396.8z M1398.4,73.8c0-1.1-0.9-2-1.9-2h-1.7c-1.1,0-1.9,0.9-1.9,2v6.3c0,1.1,0.9,2,1.9,2h1.7
		c1.1,0,1.9-0.9,1.9-2V73.8z"/>
	<path class="st0" d="M1410.9,85.3l-2.6-11.3l-2.6,11.3h-2.7l4-17.3h2.5l4,17.3H1410.9z M1418.2,85.4h-2.6V67.9h2.6V85.4z"/>
	<path class="st0" d="M1420.7,68h8.6v2.5l-0.8,6.9h-2.8l0.8-6.9h-5.8V68z M1422.5,85.4v-5.6h2.6V83h7.7V67.9h2.7v4.5h1.9v2.2h-1.9
		v10.8H1422.5z"/>
	<path class="st0" d="M1440.6,67.9c1.5,2.7,2.3,5.6,2.3,8.5c0,2.9-0.8,5.8-2.3,8.4h-2.5c1.5-2.6,2.2-5.5,2.2-8.4
		c0-2.9-0.7-5.8-2.2-8.5H1440.6z"/>
</g>
<g>
	<path class="st0" d="M283.5,46.8v-7.9h2.9v7.9h3.7l1-13.2h-11.4V31h14.4v2.6l-1,13.2h2.4v2.6h-16.9v-2.6H283.5z"/>
	<path class="st0" d="M302.4,46.8v-7.9h2.9v7.9h3.7l1-13.2h-11.4V31H313v2.6l-1,13.2h2.4v2.6h-16.9v-2.6H302.4z"/>
	<path class="st0" d="M316.6,41V30.9h2.7v2.9h2.2v-2.9h2.7V41H316.6z M320.4,46.7h12.1v2.7h-14.9V43h2.8V46.7z M321.5,38.3v-2h-2.2
		v2H321.5z M325.6,30.8h2.7v4h1.5v-4h2.7v13.5h-2.7v-6.9h-1.5v6.9h-2.7V30.8z"/>
	<path class="st0" d="M351,33.3l-1.2,13.2h2.3v2.9h-16.9v-2.9h5.2V43h2.9v3.5h3.6l0.5-5.8h-11.1V38h11.3l0.4-4.7h-11.8v-2.5H351
		V33.3z"/>
	<path class="st0" d="M364.3,30.9v10.6h-6.8v5.2h7v2.6h-9.8V38.7h6.8v-5.1h-6.8v-2.7H364.3z M370.4,49.4h-2.7V30.8h2.7V49.4z"/>
	<path class="st0" d="M383.2,35.5v9.2c0,2.6-2.2,4.7-4.9,4.7c-2.7,0-4.8-2.1-4.8-4.7v-9.2c0-2.6,2.2-4.7,4.8-4.7
		C381,30.8,383.2,32.8,383.2,35.5z M376.3,35.5v9.2c0,1.1,0.9,2,2,2c1.1,0,2-0.9,2-2v-9.2c0-1.1-0.9-2-2-2
		C377.2,33.5,376.3,34.4,376.3,35.5z M388.7,38.5h2v2.7h-2v8.2H386V30.8h2.8V38.5z"/>
	<path class="st0" d="M285.5,85.1V66.7h9.7v18.5H285.5z M288.5,82.4h3.6V69.3h-3.6V82.4z M297.7,85.2V66.6h2.8v6.2h2v2.7h-2v9.8
		H297.7z"/>
	<path class="st0" d="M307.8,76.4h-4v-2.7h4.4l0.6-4.4h-5.1v-2.6h8.1v2.6l-0.6,4.4h2.3v-7.1h2.6v18.6h-2.6v-8.9h-2.6l-1.3,8.8h-3
		L307.8,76.4z M320.3,85.2h-2.6V66.6h2.6V85.2z"/>
	<path class="st0" d="M323,66.7h9.1v2.5h-5.9v1.4h5.6V73h-5.6v1.3h6.2v2.5H323V66.7z M327.4,78.2h8c1.9,0,3.5,1.6,3.5,3.5
		c0,1.9-1.6,3.5-3.5,3.5h-8c-1.9,0-3.5-1.6-3.5-3.5C323.9,79.8,325.5,78.2,327.4,78.2z M327.4,82.7h7.9c0.5,0,0.9-0.5,0.9-1
		s-0.4-1-0.9-1h-7.9c-0.5,0-0.9,0.5-0.9,1S326.9,82.7,327.4,82.7z M338.8,77h-2.7V66.6h2.7V77z"/>
	<path class="st0" d="M354.1,66.7c2.4,0,4.3,1.9,4.3,4.3v2c0,2.4-1.9,4.3-4.3,4.3h-1.6c-2.4,0-4.3-1.9-4.3-4.3v-2
		c0-2.4,1.9-4.3,4.3-4.3H354.1z M351.9,82.5h9.4v-16h2.8v18.6h-14.9v-6.1h2.8V82.5z M352.6,69.4c-0.9,0-1.6,0.7-1.6,1.6v2
		c0,0.9,0.7,1.6,1.6,1.6h1.6c0.9,0,1.6-0.7,1.6-1.6v-2c0-0.9-0.7-1.6-1.6-1.6H352.6z"/>
	<path class="st0" d="M367.2,66.7h8.9v2.7h-6v1.6h5.6v2.5h-5.6v1.5h6.3v2.7h-9.3V66.7z M370.8,82.7h9.4v-9.6h-3.1v-2.6h3.1v-4h2.8
		v18.6H368V79h2.8V82.7z"/>
</g>
<g>
	<path class="st0" d="M20.9,408c4.1-3,7.9-6.5,11.4-9.7c1.9-1.8,2.7-2.7,2.7-5.3c0-2-1.6-3.6-3.5-3.6H29c-2,0-3.6,1.6-3.6,3.6v1
		h-4.8v-2c0-4.3,3.5-7.8,7.8-7.8h3.8c4.3,0,7.8,3.5,7.8,7.8v0.7c0,3.6-0.5,5.6-3.3,8.3c-3.4,3.2-7.1,6.4-10.8,9.1h13.6v4.4H20.9V408
		z"/>
	<path class="st0" d="M55.1,384.7c4.5,0,8.2,3.6,8.2,8.2v13.7c0,4.5-3.7,8.2-8.2,8.2h-4.4c-4.5,0-8.1-3.6-8.1-8.2v-13.7
		c0-4.5,3.6-8.2,8.1-8.2H55.1z M58.2,393.8c0-2.1-1.6-3.7-3.7-3.7h-3.3c-2,0-3.7,1.7-3.7,3.7v11.8c0,2.1,1.6,3.7,3.7,3.7h3.3
		c2,0,3.7-1.7,3.7-3.7V393.8z"/>
	<path class="st0" d="M67,390.3l3.4-5.4h5.9v29.8h-5.1v-24.4H67z"/>
	<path class="st0" d="M90.4,414.8c-4.8,0-8.6-3.9-8.6-8.6v-1.4v-0.4v-11.2c0-4.8,3.9-8.7,8.6-8.7h3.7c4.6,0,7.8,3.5,8.2,7.9h-5.5
		c-0.3-1.5-1-2.7-2.8-2.7h-3.7c-2,0-3.3,1.7-3.3,3.8v3.2c1-0.4,2.1-0.7,3.3-0.7h3.4c4.8,0,8.6,3.9,8.6,8.7v1.4
		c0,4.8-3.9,8.6-8.6,8.6H90.4z M87.1,406c0.1,2,1.4,3.6,3.3,3.6h3.3c2,0,3.3-1.7,3.3-3.8V405c0-2.1-1.3-3.8-3.3-3.8h-3.3
		c-2,0-3.3,1.7-3.3,3.7V406z"/>
	<path class="st0" d="M106.1,415.7v-5h5.2v5H106.1z"/>
	<path class="st0" d="M127,384.7c4.5,0,8.2,3.6,8.2,8.2v13.7c0,4.5-3.7,8.2-8.2,8.2h-4.4c-4.5,0-8.1-3.6-8.1-8.2v-13.7
		c0-4.5,3.6-8.2,8.1-8.2H127z M130.1,393.8c0-2.1-1.6-3.7-3.7-3.7h-3.3c-2,0-3.7,1.7-3.7,3.7v11.8c0,2.1,1.6,3.7,3.7,3.7h3.3
		c2,0,3.7-1.7,3.7-3.7V393.8z"/>
	<path class="st0" d="M138.1,408c4.1-3,7.9-6.5,11.4-9.7c1.9-1.8,2.7-2.7,2.7-5.3c0-2-1.6-3.6-3.5-3.6h-2.5c-2,0-3.6,1.6-3.6,3.6v1
		h-4.8v-2c0-4.3,3.5-7.8,7.8-7.8h3.8c4.3,0,7.8,3.5,7.8,7.8v0.7c0,3.6-0.5,5.6-3.3,8.3c-3.4,3.2-7.1,6.4-10.8,9.1h13.6v4.4h-18.6
		V408z"/>
</g>
<g>
	<path class="st0" d="M536.9,408c4.1-3,7.9-6.5,11.4-9.7c1.9-1.8,2.7-2.7,2.7-5.3c0-2-1.6-3.6-3.5-3.6H545c-2,0-3.6,1.6-3.6,3.6v1
		h-4.8v-2c0-4.3,3.5-7.8,7.8-7.8h3.8c4.3,0,7.8,3.5,7.8,7.8v0.7c0,3.6-0.5,5.6-3.3,8.3c-3.4,3.2-7.1,6.4-10.8,9.1h13.6v4.4h-18.6
		V408z"/>
	<path class="st0" d="M571.1,384.7c4.5,0,8.2,3.6,8.2,8.2v13.7c0,4.5-3.7,8.2-8.2,8.2h-4.4c-4.5,0-8.1-3.6-8.1-8.2v-13.7
		c0-4.5,3.6-8.2,8.1-8.2H571.1z M574.2,393.8c0-2.1-1.6-3.7-3.7-3.7h-3.3c-2,0-3.7,1.7-3.7,3.7v11.8c0,2.1,1.6,3.7,3.7,3.7h3.3
		c2,0,3.7-1.7,3.7-3.7V393.8z"/>
	<path class="st0" d="M583,390.3l3.4-5.4h5.9v29.8h-5.1v-24.4H583z"/>
	<path class="st0" d="M606.4,414.8c-4.8,0-8.6-3.9-8.6-8.6v-1.4v-0.4v-11.2c0-4.8,3.9-8.7,8.6-8.7h3.7c4.6,0,7.8,3.5,8.2,7.9h-5.5
		c-0.3-1.5-1-2.7-2.8-2.7h-3.7c-2,0-3.3,1.7-3.3,3.8v3.2c1-0.4,2.1-0.7,3.3-0.7h3.4c4.8,0,8.6,3.9,8.6,8.7v1.4
		c0,4.8-3.9,8.6-8.6,8.6H606.4z M603.1,406c0.1,2,1.4,3.6,3.3,3.6h3.3c2,0,3.3-1.7,3.3-3.8V405c0-2.1-1.3-3.8-3.3-3.8h-3.3
		c-2,0-3.3,1.7-3.3,3.7V406z"/>
	<path class="st0" d="M622.1,415.7v-5h5.2v5H622.1z"/>
	<path class="st0" d="M643,384.7c4.5,0,8.2,3.6,8.2,8.2v13.7c0,4.5-3.7,8.2-8.2,8.2h-4.4c-4.5,0-8.1-3.6-8.1-8.2v-13.7
		c0-4.5,3.6-8.2,8.1-8.2H643z M646.1,393.8c0-2.1-1.6-3.7-3.7-3.7h-3.3c-2,0-3.7,1.7-3.7,3.7v11.8c0,2.1,1.6,3.7,3.7,3.7h3.3
		c2,0,3.7-1.7,3.7-3.7V393.8z"/>
	<path class="st0" d="M663.5,414.8c-4.8,0-8.6-3.9-8.6-8.6v-1.4v-0.4v-11.2c0-4.8,3.9-8.7,8.6-8.7h3.7c4.6,0,7.8,3.5,8.2,7.9H670
		c-0.3-1.5-1.1-2.7-2.8-2.7h-3.7c-2,0-3.3,1.7-3.3,3.8v3.2c1-0.4,2.1-0.7,3.3-0.7h3.4c4.8,0,8.6,3.9,8.6,8.7v1.4
		c0,4.8-3.9,8.6-8.6,8.6H663.5z M660.2,406c0.1,2,1.4,3.6,3.3,3.6h3.3c2,0,3.3-1.7,3.3-3.8V405c0-2.1-1.3-3.8-3.3-3.8h-3.3
		c-2,0-3.3,1.7-3.3,3.7V406z"/>
</g>
<g>
	<path class="st0" d="M265.8,133.6c4.1-3,7.9-6.5,11.4-9.7c1.9-1.8,2.7-2.7,2.7-5.3c0-2-1.6-3.6-3.5-3.6h-2.5c-2,0-3.6,1.6-3.6,3.6
		v1h-4.8v-2c0-4.3,3.5-7.8,7.8-7.8h3.8c4.3,0,7.8,3.5,7.8,7.8v0.7c0,3.6-0.5,5.6-3.3,8.3c-3.4,3.2-7.1,6.4-10.8,9.1h13.6v4.4h-18.6
		V133.6z"/>
	<path class="st0" d="M300,110.2c4.5,0,8.2,3.6,8.2,8.2V132c0,4.5-3.7,8.2-8.2,8.2h-4.4c-4.5,0-8.1-3.6-8.1-8.2v-13.7
		c0-4.5,3.6-8.2,8.1-8.2H300z M303.1,119.3c0-2.1-1.6-3.7-3.7-3.7h-3.3c-2,0-3.7,1.7-3.7,3.7v11.8c0,2.1,1.6,3.7,3.7,3.7h3.3
		c2,0,3.7-1.7,3.7-3.7V119.3z"/>
	<path class="st0" d="M312,115.8l3.4-5.4h5.9v29.8h-5.1v-24.4H312z"/>
	<path class="st0" d="M335.4,140.4c-4.8,0-8.6-3.9-8.6-8.6v-1.4v-0.4v-11.2c0-4.8,3.9-8.7,8.6-8.7h3.7c4.6,0,7.8,3.5,8.2,7.9h-5.5
		c-0.3-1.5-1.1-2.7-2.8-2.7h-3.7c-2,0-3.3,1.7-3.3,3.8v3.2c1-0.4,2.1-0.7,3.3-0.7h3.4c4.8,0,8.6,3.9,8.6,8.7v1.4
		c0,4.8-3.9,8.6-8.6,8.6H335.4z M332.1,131.6c0.1,2,1.4,3.6,3.3,3.6h3.3c2,0,3.3-1.7,3.3-3.8v-0.8c0-2.1-1.3-3.8-3.3-3.8h-3.3
		c-2,0-3.3,1.7-3.3,3.7V131.6z"/>
	<path class="st0" d="M351.1,141.2v-5h5.2v5H351.1z"/>
	<path class="st0" d="M372,110.2c4.5,0,8.2,3.6,8.2,8.2V132c0,4.5-3.7,8.2-8.2,8.2h-4.4c-4.5,0-8.1-3.6-8.1-8.2v-13.7
		c0-4.5,3.6-8.2,8.1-8.2H372z M375,119.3c0-2.1-1.6-3.7-3.7-3.7h-3.3c-2,0-3.7,1.7-3.7,3.7v11.8c0,2.1,1.6,3.7,3.7,3.7h3.3
		c2,0,3.7-1.7,3.7-3.7V119.3z"/>
	<path class="st0" d="M400.6,123.9l-0.3,0.3l0.3,0.3c0.8,0.8,1.4,1.6,1.8,2.7c1.1,2.7,1.1,5.3,0,7.9c-0.7,1.9-2.2,3.4-4,4.3
		c-2.7,1.2-5.3,0.9-8.1,0.9c-4.2,0-7.7-3.5-7.7-7.8v-0.9h4.7c0,0.5,0.1,0.9,0.2,1.4c0.7,2,3.4,2.3,5.1,2.2c1.2-0.1,2.6-0.2,3.6-1
		c1.3-1,1.6-3,1.2-4.8c-0.4-1.5-1.5-2.5-3.2-2.8c-0.8-0.2-1.7-0.2-2.8-0.2h-1.5V122h1.5c1.1,0,2-0.1,2.8-0.2c0.8-0.1,1.5-0.4,2-0.8
		c1.4-1.2,1.7-3.6,0-5c-1.9-1.6-9-1.6-9,2.7h-4.7v-0.9c0-5,4.6-7.7,9.1-7.7c2.2,0,2.5,0,2.6,0c0.7,0,1.5,0.1,2.2,0.2
		c1.3,0.3,2.7,0.9,3.7,1.8c1.1,0.9,2,2.2,2.5,3.5C403.5,118.6,403,121.7,400.6,123.9z"/>
</g>
<g>
	<rect x="46.9" y="249.8" class="st1" width="3" height="5"/>
	<path class="st1" d="M1349.6,254.8h-6v-5h6V254.8z M1337.5,254.8h-6v-5h6V254.8z M1325.5,254.8h-6v-5h6V254.8z M1313.5,254.8h-6v-5
		h6V254.8z M1301.4,254.8h-6v-5h6V254.8z M1289.4,254.8h-6v-5h6V254.8z M1277.4,254.8h-6v-5h6V254.8z M1265.3,254.8h-6v-5h6V254.8z
		 M1253.3,254.8h-6v-5h6V254.8z M1241.3,254.8h-6v-5h6V254.8z M1229.2,254.8h-6v-5h6V254.8z M1217.2,254.8h-6v-5h6V254.8z
		 M1205.1,254.8h-6v-5h6V254.8z M1193.1,254.8h-6v-5h6V254.8z M1181.1,254.8h-6v-5h6V254.8z M1169,254.8h-6v-5h6V254.8z M1157,254.8
		h-6v-5h6V254.8z M1145,254.8h-6v-5h6V254.8z M1132.9,254.8h-6v-5h6V254.8z M1120.9,254.8h-6v-5h6V254.8z M1108.9,254.8h-6v-5h6
		V254.8z M1096.8,254.8h-6v-5h6V254.8z M1084.8,254.8h-6v-5h6V254.8z M1072.8,254.8h-6v-5h6V254.8z M1060.7,254.8h-6v-5h6V254.8z
		 M1048.7,254.8h-6v-5h6V254.8z M1036.7,254.8h-6v-5h6V254.8z M1024.6,254.8h-6v-5h6V254.8z M1012.6,254.8h-6v-5h6V254.8z
		 M1000.6,254.8h-6v-5h6V254.8z M988.5,254.8h-6v-5h6V254.8z M976.5,254.8h-6v-5h6V254.8z M964.5,254.8h-6v-5h6V254.8z M952.4,254.8
		h-6v-5h6V254.8z M940.4,254.8h-6v-5h6V254.8z M928.4,254.8h-6v-5h6V254.8z M916.3,254.8h-6v-5h6V254.8z M904.3,254.8h-6v-5h6V254.8
		z M892.3,254.8h-6v-5h6V254.8z M880.2,254.8h-6v-5h6V254.8z M868.2,254.8h-6v-5h6V254.8z M856.2,254.8h-6v-5h6V254.8z M844.1,254.8
		h-6v-5h6V254.8z M832.1,254.8h-6v-5h6V254.8z M820.1,254.8h-6v-5h6V254.8z M808,254.8h-6v-5h6V254.8z M796,254.8h-6v-5h6V254.8z
		 M784,254.8h-6v-5h6V254.8z M771.9,254.8h-6v-5h6V254.8z M759.9,254.8h-6v-5h6V254.8z M747.9,254.8h-6v-5h6V254.8z M735.8,254.8h-6
		v-5h6V254.8z M723.8,254.8h-6v-5h6V254.8z M711.7,254.8h-6v-5h6V254.8z M699.7,254.8h-6v-5h6V254.8z M687.7,254.8h-6v-5h6V254.8z
		 M675.6,254.8h-6v-5h6V254.8z M663.6,254.8h-6v-5h6V254.8z M651.6,254.8h-6v-5h6V254.8z M639.5,254.8h-6v-5h6V254.8z M627.5,254.8
		h-6v-5h6V254.8z M615.5,254.8h-6v-5h6V254.8z M603.4,254.8h-6v-5h6V254.8z M591.4,254.8h-6v-5h6V254.8z M579.4,254.8h-6v-5h6V254.8
		z M567.3,254.8h-6v-5h6V254.8z M555.3,254.8h-6v-5h6V254.8z M543.3,254.8h-6v-5h6V254.8z M531.2,254.8h-6v-5h6V254.8z M519.2,254.8
		h-6v-5h6V254.8z M507.2,254.8h-6v-5h6V254.8z M495.1,254.8h-6v-5h6V254.8z M483.1,254.8h-6v-5h6V254.8z M471.1,254.8h-6v-5h6V254.8
		z M459,254.8h-6v-5h6V254.8z M447,254.8h-6v-5h6V254.8z M435,254.8h-6v-5h6V254.8z M422.9,254.8h-6v-5h6V254.8z M410.9,254.8h-6v-5
		h6V254.8z M398.9,254.8h-6v-5h6V254.8z M386.8,254.8h-6v-5h6V254.8z M374.8,254.8h-6v-5h6V254.8z M362.8,254.8h-6v-5h6V254.8z
		 M350.7,254.8h-6v-5h6V254.8z M338.7,254.8h-6v-5h6V254.8z M326.7,254.8h-6v-5h6V254.8z M314.6,254.8h-6v-5h6V254.8z M302.6,254.8
		h-6v-5h6V254.8z M290.6,254.8h-6v-5h6V254.8z M278.5,254.8h-6v-5h6V254.8z M266.5,254.8h-6v-5h6V254.8z M254.5,254.8h-6v-5h6V254.8
		z M242.4,254.8h-6v-5h6V254.8z M230.4,254.8h-6v-5h6V254.8z M218.4,254.8h-6v-5h6V254.8z M206.3,254.8h-6v-5h6V254.8z M194.3,254.8
		h-6v-5h6V254.8z M182.2,254.8h-6v-5h6V254.8z M170.2,254.8h-6v-5h6V254.8z M158.2,254.8h-6v-5h6V254.8z M146.1,254.8h-6v-5h6V254.8
		z M134.1,254.8h-6v-5h6V254.8z M122.1,254.8h-6v-5h6V254.8z M110,254.8h-6v-5h6V254.8z M98,254.8h-6v-5h6V254.8z M86,254.8h-6v-5h6
		V254.8z M73.9,254.8h-6v-5h6V254.8z M61.9,254.8h-6v-5h6V254.8z"/>
	<rect x="1355.6" y="249.8" class="st1" width="3" height="5"/>
</g>
<g>
	<rect x="95.4" y="268" class="st1" width="5" height="3"/>
	<path class="st1" d="M100.4,318.6h-5v-5.9h5V318.6z M100.4,306.7h-5v-5.9h5V306.7z M100.4,294.8h-5v-5.9h5V294.8z M100.4,282.9h-5
		V277h5V282.9z"/>
	<rect x="95.4" y="324.5" class="st1" width="5" height="3"/>
	<g>
		<circle class="st1" cx="97.9" cy="327" r="10.5"/>
	</g>
</g>
<g>
	<rect x="606.6" y="285.1" class="st1" width="5" height="3"/>
	<path class="st1" d="M611.6,331.6h-5v-5.4h5V331.6z M611.6,320.7h-5v-5.4h5V320.7z M611.6,309.8h-5v-5.4h5V309.8z M611.6,299h-5
		v-5.4h5V299z"/>
	<rect x="606.6" y="337" class="st1" width="5" height="3"/>
	<g>
		<circle class="st1" cx="609.1" cy="339.5" r="10.5"/>
	</g>
</g>
<g>
	<path class="st0" d="M1046.5,408c4.1-3,7.9-6.5,11.4-9.7c1.9-1.8,2.7-2.7,2.7-5.3c0-2-1.6-3.6-3.5-3.6h-2.5c-2,0-3.6,1.6-3.6,3.6v1
		h-4.8v-2c0-4.3,3.5-7.8,7.8-7.8h3.8c4.3,0,7.8,3.5,7.8,7.8v0.7c0,3.6-0.5,5.6-3.3,8.3c-3.4,3.2-7.1,6.4-10.8,9.1h13.6v4.4h-18.6
		V408z"/>
	<path class="st0" d="M1080.7,384.7c4.5,0,8.2,3.6,8.2,8.2v13.7c0,4.5-3.7,8.2-8.2,8.2h-4.4c-4.5,0-8.1-3.6-8.1-8.2v-13.7
		c0-4.5,3.6-8.2,8.1-8.2H1080.7z M1083.8,393.8c0-2.1-1.6-3.7-3.7-3.7h-3.3c-2,0-3.7,1.7-3.7,3.7v11.8c0,2.1,1.6,3.7,3.7,3.7h3.3
		c2,0,3.7-1.7,3.7-3.7V393.8z"/>
	<path class="st0" d="M1092.6,390.3l3.4-5.4h5.9v29.8h-5.1v-24.4H1092.6z"/>
	<path class="st0" d="M1119,384.5c4.8,0,7.9,3.5,7.9,8.3v1.3c0,2.1-0.7,3.9-1.9,5.3c1.7,1.3,2.8,3.3,2.8,5.7v1.9
		c0,4.5-3.7,7.8-8.2,7.8h-4.4c-4.5,0-8.1-3.3-8.1-7.8v-1.9c0-2.5,1.1-4.5,2.8-5.8c-1.2-1.4-1.9-3.2-1.9-5.2v-1.3
		c0-4.8,3.2-8.3,7.9-8.3H1119z M1122.7,405.9c0-2.1-1.6-3.6-3.7-3.6h-0.4h-0.4h-1.6h-0.4h-0.5c-2,0-3.7,1.5-3.7,3.6v0.5
		c0,2.1,1.6,3.4,3.7,3.4h3.3c2,0,3.7-1.3,3.7-3.4V405.9z M1121.7,393.2c0-2.1-0.9-3.8-3-3.8h-2.6c-2,0-3,1.7-3,3.8v0.7
		c0,2.1,0.9,3.8,3,3.8h2.6c2,0,3-1.7,3-3.8V393.2z"/>
	<path class="st0" d="M1131,415.7v-5h5.2v5H1131z"/>
	<path class="st0" d="M1151.9,384.7c4.5,0,8.2,3.6,8.2,8.2v13.7c0,4.5-3.7,8.2-8.2,8.2h-4.4c-4.5,0-8.1-3.6-8.1-8.2v-13.7
		c0-4.5,3.6-8.2,8.1-8.2H1151.9z M1154.9,393.8c0-2.1-1.6-3.7-3.7-3.7h-3.3c-2,0-3.7,1.7-3.7,3.7v11.8c0,2.1,1.6,3.7,3.7,3.7h3.3
		c2,0,3.7-1.7,3.7-3.7V393.8z"/>
	<path class="st0" d="M1181,404.1h4.6v4.5h-4.6v6h-5.1v-5.9h-13.4v-4.6l9.7-19.3h8.9V404.1z M1175.9,404.1v-15.2l-7.8,15.2H1175.9z"
		/>
</g>
<g>
	<path class="st0" d="M1302.8,133.6c4.1-3,7.9-6.5,11.4-9.7c1.9-1.8,2.7-2.7,2.7-5.3c0-2-1.6-3.6-3.5-3.6h-2.5c-2,0-3.6,1.6-3.6,3.6
		v1h-4.8v-2c0-4.3,3.5-7.8,7.8-7.8h3.8c4.3,0,7.8,3.5,7.8,7.8v0.7c0,3.6-0.5,5.6-3.3,8.3c-3.4,3.2-7.1,6.4-10.8,9.1h13.6v4.4h-18.6
		V133.6z"/>
	<path class="st0" d="M1337,110.2c4.5,0,8.2,3.6,8.2,8.2V132c0,4.5-3.7,8.2-8.2,8.2h-4.4c-4.5,0-8.1-3.6-8.1-8.2v-13.7
		c0-4.5,3.6-8.2,8.1-8.2H1337z M1340.1,119.3c0-2.1-1.6-3.7-3.7-3.7h-3.3c-2,0-3.7,1.7-3.7,3.7v11.8c0,2.1,1.6,3.7,3.7,3.7h3.3
		c2,0,3.7-1.7,3.7-3.7V119.3z"/>
	<path class="st0" d="M1349,115.8l3.4-5.4h5.9v29.8h-5.1v-24.4H1349z"/>
	<path class="st0" d="M1375.3,110c4.8,0,7.9,3.5,7.9,8.3v1.3c0,2.1-0.7,3.9-1.9,5.3c1.7,1.3,2.8,3.3,2.8,5.7v1.9
		c0,4.5-3.7,7.8-8.2,7.8h-4.4c-4.5,0-8.1-3.3-8.1-7.8v-1.9c0-2.5,1.1-4.5,2.8-5.8c-1.2-1.4-1.9-3.2-1.9-5.2v-1.3
		c0-4.8,3.2-8.3,7.9-8.3H1375.3z M1379,131.4c0-2.1-1.6-3.6-3.7-3.6h-0.4h-0.4h-1.6h-0.4h-0.5c-2,0-3.7,1.5-3.7,3.6v0.5
		c0,2.1,1.6,3.4,3.7,3.4h3.3c2,0,3.7-1.3,3.7-3.4V131.4z M1378,118.7c0-2.1-0.9-3.8-3-3.8h-2.6c-2,0-3,1.7-3,3.8v0.7
		c0,2.1,0.9,3.8,3,3.8h2.6c2,0,3-1.7,3-3.8V118.7z"/>
	<path class="st0" d="M1387.3,141.2v-5h5.2v5H1387.3z"/>
	<path class="st0" d="M1408.2,110.2c4.5,0,8.2,3.6,8.2,8.2V132c0,4.5-3.7,8.2-8.2,8.2h-4.4c-4.5,0-8.1-3.6-8.1-8.2v-13.7
		c0-4.5,3.6-8.2,8.1-8.2H1408.2z M1411.3,119.3c0-2.1-1.6-3.7-3.7-3.7h-3.3c-2,0-3.7,1.7-3.7,3.7v11.8c0,2.1,1.6,3.7,3.7,3.7h3.3
		c2,0,3.7-1.7,3.7-3.7V119.3z"/>
	<path class="st0" d="M1431.6,110c4.8,0,7.9,3.5,7.9,8.3v1.3c0,2.1-0.7,3.9-1.9,5.3c1.7,1.3,2.8,3.3,2.8,5.7v1.9
		c0,4.5-3.7,7.8-8.2,7.8h-4.4c-4.5,0-8.1-3.3-8.1-7.8v-1.9c0-2.5,1.1-4.5,2.8-5.8c-1.2-1.4-1.9-3.2-1.9-5.2v-1.3
		c0-4.8,3.2-8.3,7.9-8.3H1431.6z M1435.3,131.4c0-2.1-1.6-3.6-3.7-3.6h-0.4h-0.4h-1.6h-0.4h-0.5c-2,0-3.7,1.5-3.7,3.6v0.5
		c0,2.1,1.6,3.4,3.7,3.4h3.3c2,0,3.7-1.3,3.7-3.4V131.4z M1434.3,118.7c0-2.1-0.9-3.8-3-3.8h-2.6c-2,0-3,1.7-3,3.8v0.7
		c0,2.1,0.9,3.8,3,3.8h2.6c2,0,3-1.7,3-3.8V118.7z"/>
</g>
<g>
	<rect x="1116" y="280.4" class="st1" width="5" height="3"/>
	<path class="st1" d="M1121,326.9h-5v-5.4h5V326.9z M1121,316h-5v-5.4h5V316z M1121,305.1h-5v-5.4h5V305.1z M1121,294.3h-5v-5.4h5
		V294.3z"/>
	<rect x="1116" y="332.3" class="st1" width="5" height="3"/>
	<g>
		<circle class="st1" cx="1118.5" cy="334.8" r="10.5"/>
	</g>
</g>
<g>
	<rect x="1360.4" y="230.2" class="st1" width="5" height="3"/>
	<path class="st1" d="M1365.4,224.8h-5v-5.4h5V224.8z M1365.4,213.9h-5v-5.4h5V213.9z M1365.4,203h-5v-5.4h5V203z M1365.4,192.1h-5
		v-5.4h5V192.1z"/>
	<rect x="1360.4" y="178.3" class="st1" width="5" height="3"/>
	<g>
		<circle class="st1" cx="1362.9" cy="178.8" r="10.5"/>
	</g>
</g>
<g>
	<rect x="327.1" y="230.2" class="st1" width="5" height="3"/>
	<path class="st1" d="M332.1,224.8h-5v-5.4h5V224.8z M332.1,213.9h-5v-5.4h5V213.9z M332.1,203h-5v-5.4h5V203z M332.1,192.1h-5v-5.4
		h5V192.1z"/>
	<rect x="327.1" y="178.3" class="st1" width="5" height="3"/>
	<g>
		<circle class="st1" cx="329.6" cy="178.8" r="10.5"/>
	</g>
</g>
<g>
	<path class="st0" d="M786.6,49.3l-2.6-12l-2.6,12h-2.9l4.1-18.4h2.7l4.1,18.4H786.6z M794.7,49.4h-2.7v-9.9h-3.3v-2.7h3.3v-6.1h2.7
		V49.4z"/>
	<path class="st0" d="M813.1,46.3H801v0.9h12.1v2.2h-14.7v-5.2h12.1v-0.9h-12.1v-2.1h5.9v-1.1h-7.1V38h16.9v2.1h-7.1v1.1h5.9V46.3z
		 M809.8,30.9c2,0,3.5,1.2,3.5,3.2c0,1.9-1.6,3.1-3.5,3.1h-8c-1.9,0-3.5-1.2-3.5-3.1c0-1.9,1.6-3.2,3.5-3.2H809.8z M801.8,33.2
		c-0.5,0-0.8,0.3-0.8,0.8c0,0.5,0.4,0.8,0.8,0.8h7.9c0.5,0,0.8-0.3,0.8-0.8c0-0.5-0.4-0.8-0.8-0.8H801.8z"/>
	<path class="st0" d="M827.7,46.8l1-13.2h-11.3V31h14.3v2.6l-1,13.2h2.5v2.6h-16.9v-2.6H827.7z"/>
	<path class="st0" d="M843.1,30.9v6.3h-5.3V39h5.3v2.3h-7.9V35h5.3v-1.8h-5.3v-2.3H843.1z M839.3,46.7h12.1v2.7h-14.9V43h2.8V46.7z
		 M851.4,44.3h-2.7v-6.9h-1.5v6.9h-2.7V30.8h2.7v4h1.5v-4h2.7V44.3z"/>
	<path class="st0" d="M871,46.8v2.6H854v-2.6H871z M869.6,30.9v2.5h-11.2v8.5h11.2v2.7h-14.2V30.9H869.6z"/>
	<path class="st0" d="M873.4,30.9h10.2v2.3h-1.6v4h1.6v2.3h-10.2v-2.3h1.7v-4h-1.7V30.9z M889.2,46.2H877v1h12.2v2.2h-14.9v-5.2
		h12.2v-1h-12.2V41h12.2V30.8h2.8V46.2z M877.7,37.2h1.8v-4h-1.8V37.2z"/>
	<path class="st0" d="M898.9,46.5v-5h-2.2c-2.4,0-4.3-1.9-4.3-4.3v-2c0-2.4,1.9-4.3,4.3-4.3h7.3c2.4,0,4.3,1.9,4.3,4.3v2
		c0,2.4-1.9,4.3-4.3,4.3h-2.2v5h7v2.9h-16.9v-2.9H898.9z M903.5,38.7c1.2,0,1.9-1,1.9-2.1v-0.8c0-1.2-0.7-2.1-1.9-2.1h-6.4
		c-1.2,0-1.9,0.9-1.9,2.1v0.8c0,1.2,0.8,2.1,1.9,2.1H903.5z"/>
	<path class="st0" d="M914.9,40.6h-4v-2.7h4.4l0.6-4.4h-5.1v-2.6h8.1v2.6l-0.6,4.4h2.3v-7.1h2.6v18.6h-2.6v-8.9h-2.6l-1.3,8.8h-3
		L914.9,40.6z M927.4,49.4h-2.6V30.8h2.6V49.4z"/>
	<path class="st0" d="M946.6,46.8v2.6h-16.9v-2.6H946.6z M942.5,43.1l-4.4-8.7l-4.4,8.7h-3.4l5.9-12.3h3.7l5.9,12.3H942.5z"/>
	<path class="st0" d="M965.5,46.8v2.6h-16.9v-2.6H965.5z M964.6,30.9v2.7h-12v2.3h12v2.7h-12v2.1h12v2.7h-15.1V30.9H964.6z"/>
	<path class="st0" d="M977.4,30.9v10.6h-6.5v5.2h6.7v2.6h-9.5V38.7h6.5v-5.1h-6.5v-2.7H977.4z M983.2,38.2h2v2.6h-2v8.6h-2.8V30.8
		h2.8V38.2z"/>
	<path class="st0" d="M803.8,74.6v-3.5h2.9v3.5h3.9l0.8-5.3H800v-2.6h14.4v2.6l-0.8,5.3h2.2v2.2h-16.9v-2.2H803.8z M811.4,78.2
		c2,0,3.5,1.4,3.5,3.5c0,2.1-1.6,3.5-3.5,3.5h-8.3c-1.9,0-3.5-1.4-3.5-3.5c0-2.1,1.6-3.5,3.5-3.5H811.4z M803.1,80.6
		c-0.5,0-0.8,0.4-0.8,1c0,0.6,0.4,1,0.8,1h8.3c0.5,0,0.8-0.4,0.8-1c0-0.6-0.4-1-0.8-1H803.1z"/>
	<path class="st0" d="M833.9,66.6v18.6H819v-6.6h2.8v4h9.3v-7.2h-4.4c-0.9,0.9-2.3,1.4-3.8,1.4c-2.6,0-4.8-1.8-4.8-3.9v-2.3
		c0-2.2,2.3-4,4.7-4h0.1c1.7,0,3.2,0.7,4.1,1.8h4v-1.9H833.9z M825.1,71.1c0-1-0.9-1.8-2-1.8c-1.1,0-2,0.8-2,1.8v1.4
		c0,1,0.9,1.8,2,1.8c1.1,0,2-0.8,2-1.8V71.1z M827.9,73.1h3.2v-2.3h-3.2v2.1V73.1z"/>
	<path class="st0" d="M843.6,69.3h-7.1v-2.6h10.2v2.6l-2.3,15.8h-3L843.6,69.3z M852.8,85.2h-3V66.6h3V85.2z"/>
	<path class="st0" d="M862.8,65.9v1.3h4.2v2.5h-1.1c0.2,0.4,0.3,0.8,0.3,1.3v1.4c0,1.6-1.6,3.1-3.4,3.3v0.8h6v-9.9h2.9V79h-16.3
		v-2.5h4.5v-0.8c-1.8-0.2-3.3-1.8-3.3-3.3V71c0-0.4,0.1-0.8,0.3-1.3h-1.2v-2.5h4.3v-1.3H862.8z M871.7,82.1l-0.7,3.2h-2.9l0.8-3.2
		h-11.5v-2.3h14.4V82.1z M863.6,71.7c0-0.9-0.7-1.5-1.7-1.5h-0.8c-1,0-1.7,0.6-1.7,1.5v0c0,0.9,0.7,1.5,1.7,1.5h0.8
		C862.8,73.2,863.6,72.6,863.6,71.7L863.6,71.7z"/>
	<path class="st0" d="M882.7,67.3l-6,17.9h-2.8l6-17.9H882.7z"/>
	<path class="st0" d="M900.3,69.5h-2.6c1.1,0.5,1.8,1.3,1.8,2.4c0,1.9-1.6,3.2-3.5,3.2h-2v1h7.1v2.3h-16.9V76h7.1v-1h-2
		c-1.9,0-3.5-1.2-3.5-3.2c0-1.1,0.7-2,1.8-2.4h-2.6v-2.2h6.3v-1.4h2.9v1.4h6.3V69.5z M888.4,79.3h8.4c2.1,0,3.5,1.1,3.5,3
		s-1.4,3-3.5,3h-8.4c-2.1,0-3.5-1.1-3.5-3S886.3,79.3,888.4,79.3z M888.4,82.8h8.4c0.6,0,0.8-0.2,0.8-0.6s-0.2-0.6-0.8-0.6h-8.4
		c-0.6,0-0.8,0.2-0.8,0.6S887.8,82.8,888.4,82.8z M889.2,71.1c-0.5,0-0.8,0.4-0.8,0.8s0.4,0.8,0.8,0.8h6.7c0.5,0,0.8-0.4,0.8-0.8
		s-0.4-0.8-0.8-0.8H889.2z"/>
	<path class="st0" d="M912.9,78.3v4.3h7v2.6H903v-2.6h7v-4.3h-6.2V66.6h3.1v4h9.3v-4h3.1v11.7H912.9z M916.1,75.6v-2.4h-9.3v2.4
		H916.1z"/>
	<path class="st0" d="M934.5,66.7c2.4,0,4.3,1.9,4.3,4.3v2c0,2.4-1.9,4.3-4.3,4.3H933c-2.4,0-4.3-1.9-4.3-4.3v-2
		c0-2.4,1.9-4.3,4.3-4.3H934.5z M932.3,82.5h9.4v-16h2.8v18.6h-14.9v-6.1h2.8V82.5z M933,69.4c-0.9,0-1.6,0.7-1.6,1.6v2
		c0,0.9,0.7,1.6,1.6,1.6h1.6c0.9,0,1.6-0.7,1.6-1.6v-2c0-0.9-0.7-1.6-1.6-1.6H933z"/>
	<path class="st0" d="M947.6,66.7h8.9v2.7h-6v1.6h5.6v2.5h-5.6v1.5h6.3v2.7h-9.3V66.7z M951.2,82.7h9.4v-9.6h-3.1v-2.6h3.1v-4h2.8
		v18.6h-14.9V79h2.8V82.7z"/>
</g>
<g>
	<path class="st0" d="M813.8,133.6c4.1-3,7.9-6.5,11.4-9.7c1.9-1.8,2.7-2.7,2.7-5.3c0-2-1.6-3.6-3.5-3.6h-2.5c-2,0-3.6,1.6-3.6,3.6
		v1h-4.8v-2c0-4.3,3.5-7.8,7.8-7.8h3.8c4.3,0,7.8,3.5,7.8,7.8v0.7c0,3.6-0.5,5.6-3.3,8.3c-3.4,3.2-7.1,6.4-10.8,9.1h13.6v4.4h-18.6
		V133.6z"/>
	<path class="st0" d="M848,110.2c4.5,0,8.2,3.6,8.2,8.2V132c0,4.5-3.7,8.2-8.2,8.2h-4.4c-4.5,0-8.1-3.6-8.1-8.2v-13.7
		c0-4.5,3.6-8.2,8.1-8.2H848z M851.1,119.3c0-2.1-1.6-3.7-3.7-3.7h-3.3c-2,0-3.7,1.7-3.7,3.7v11.8c0,2.1,1.6,3.7,3.7,3.7h3.3
		c2,0,3.7-1.7,3.7-3.7V119.3z"/>
	<path class="st0" d="M859.9,115.8l3.4-5.4h5.9v29.8h-5.1v-24.4H859.9z"/>
	<path class="st0" d="M874.3,110.7h20l-5.3,29.4h-5.6l4.2-24h-7.8v4.4h-5.5V110.7z"/>
	<path class="st0" d="M897.8,141.2v-5h5.2v5H897.8z"/>
	<path class="st0" d="M906.6,115.8l3.4-5.4h5.9v29.8h-5.1v-24.4H906.6z"/>
	<path class="st0" d="M920.6,133.6c4.1-3,7.9-6.5,11.4-9.7c1.9-1.8,2.7-2.7,2.7-5.3c0-2-1.6-3.6-3.5-3.6h-2.5c-2,0-3.6,1.6-3.6,3.6
		v1h-4.8v-2c0-4.3,3.5-7.8,7.8-7.8h3.8c4.3,0,7.8,3.5,7.8,7.8v0.7c0,3.6-0.5,5.6-3.3,8.3c-3.4,3.2-7.1,6.4-10.8,9.1h13.6v4.4h-18.6
		V133.6z"/>
</g>
<g>
	<rect x="869.4" y="230.2" class="st1" width="5" height="3"/>
	<path class="st1" d="M874.4,224.8h-5v-5.4h5V224.8z M874.4,213.9h-5v-5.4h5V213.9z M874.4,203h-5v-5.4h5V203z M874.4,192.1h-5v-5.4
		h5V192.1z"/>
	<rect x="869.4" y="178.3" class="st1" width="5" height="3"/>
	<g>
		<circle class="st1" cx="871.9" cy="178.8" r="10.5"/>
	</g>
</g>
<g>
	<path class="st2" d="M85.7,212.8c-23.8,0-43.2,19.3-43.2,43.2v44.3h86.4v-44.3C128.9,232.1,109.6,212.8,85.7,212.8z"/>
	<path class="st3" d="M101,251.8c-0.8,0-1.6,0.1-2.4,0.3c-5.5,1.5-9.7,8.2-9.7,16.2v31.9H101h7.3h4.8h20.3v-48.4H101L101,251.8z"/>
	<path class="st2" d="M134,251.8c-1.1,0-2.2,0.1-3.3,0.3c-7.6,1.5-13.2,8.2-13.2,16.2v31.9H144h6.6v-31.9
		C150.6,259.2,143.2,251.8,134,251.8z"/>
	<path class="st4" d="M131.5,257.4L131.5,257.4c-5.9,1.2-10.3,6.4-10.3,12.6v30.2h20.6v-30.2C141.8,263.8,137.3,258.6,131.5,257.4z"
		/>
	<path class="st3" d="M146.9,270.1c0-7.1-5.8-12.9-12.9-12.9c-0.9,0-1.7,0.1-2.6,0.3l0,0c5.9,1.2,10.3,6.4,10.3,12.6v30.2h5.1V270.1
		z"/>
</g>
<g>
	<path class="st5" d="M398.2,298.8c-0.7,1-1.7,1.6-2.8,1.6h-32.6l-5.9-22.8l5.5-4.2l4.6-4.6c0.6-0.7,1.4-1,2.3-1
		c0.8,0,1.7,0.3,2.3,1l4.2,4.2l10.5-1.2l12,24C398.8,296.6,398.8,297.9,398.2,298.8z"/>
	<path class="st6" d="M398.2,298.8c-0.7,1-1.7,1.6-2.8,1.6h-26v-32.6c0.8,0,1.7,0.3,2.3,1l4.2,4.2l10.5-1.2l12,24
		C398.8,296.6,398.8,297.9,398.2,298.8z"/>
	<path class="st7" d="M386.3,271.7l-8.2,8.1c-1.2,1.3-3.3,1.3-4.6,0l-4.2-4.2l-4.2,4.2c-0.6,0.7-1.4,1-2.3,1c-0.6,0-1.2-0.2-1.8-0.5
		l-4-2.7c-0.3-1-2.3-9.1-2.5-10l6.2-12.4c1.6-3.4,5-5.4,8.7-5.4c3.7,0,7.1,2,8.7,5.4C384.5,267.9,382.9,264.8,386.3,271.7z"/>
	<path class="st8" d="M386.3,271.7l-8.2,8.1c-1.2,1.3-3.3,1.3-4.6,0l-4.2-4.2v-25.8c3.7,0,7.1,2,8.7,5.4
		C384.5,267.9,382.9,264.8,386.3,271.7z"/>
	<path class="st9" d="M372.1,298.9c-0.7,0.9-1.6,1.4-2.7,1.4h-78.6c-1.1,0-2.1-0.5-2.7-1.4c-0.6-1-0.7-2.1-0.3-3.1l23.5-54.9
		l11.9-0.1l4.6-4.6c0.6-0.7,1.4-1,2.3-1c0.8,0,1.7,0.3,2.3,1l4.2,4.2l11.2-1.8l24.5,57.2C372.8,296.8,372.7,297.9,372.1,298.9z"/>
	<path class="st5" d="M372.1,298.9c-0.7,0.9-1.6,1.4-2.7,1.4h-39.3v-65.1c0.8,0,1.7,0.3,2.3,1l4.2,4.2l11.2-1.8l24.5,57.2
		C372.8,296.8,372.7,297.9,372.1,298.9z"/>
	<path class="st7" d="M347.8,238.6l-8.9,8.7c-1.2,1.3-3.3,1.3-4.6,0l-4.2-4.2l-4.2,4.2c-0.6,0.7-1.4,1-2.3,1c-0.7,0-1.2-0.2-1.8-0.5
		l-10.4-6.8c3.3-7.6,1.2-2.6,9.8-22.7c1.6-3.6,5-5.9,9-5.9c4,0,7.4,2.3,9,5.9C345.9,234.1,344.3,230.4,347.8,238.6z"/>
	<path class="st8" d="M347.8,238.6l-8.9,8.7c-1.2,1.3-3.3,1.3-4.6,0l-4.2-4.2v-30.8c4,0,7.4,2.3,9,5.9
		C345.9,234.1,344.3,230.4,347.8,238.6z"/>
</g>
<g>
	<rect x="578.2" y="269.1" class="st9" width="15.4" height="25.8"/>
	<rect x="585.9" y="269.1" class="st5" width="7.7" height="25.8"/>
	<path class="st10" d="M606,270.3l-8.9-14h4.2c0.9,0,1.8-0.5,2.3-1.3c0.4-0.8,0.4-1.8-0.1-2.6l-8.7-14.1h3.9c0.9,0,1.8-0.5,2.3-1.3
		c0.5-0.8,0.4-1.8-0.1-2.6L588,213.7c-0.5-0.8-1.3-1.1-2.2-1.1c-0.8,0-1.7,0.4-2.2,1.1l-12.8,20.7c-0.5,0.8-0.6,1.8-0.1,2.6
		c0.5,0.8,1.3,1.3,2.3,1.3h3.9l-8.7,14.1c-0.5,0.8-0.5,1.7-0.1,2.6c0.5,0.8,1.3,1.3,2.3,1.3h4.2l-8.9,14c-0.5,0.8-0.6,1.8-0.1,2.6
		c0.5,0.8,1.3,1.3,2.3,1.3h35.9c0.9,0,1.8-0.5,2.3-1.3C606.5,272.1,606.5,271.1,606,270.3z"/>
	<path class="st11" d="M606.1,272.9c-0.5,0.8-1.3,1.3-2.3,1.3h-18v-61.7c0.8,0,1.7,0.4,2.2,1.1l12.8,20.7c0.5,0.8,0.6,1.8,0.1,2.6
		c-0.5,0.8-1.3,1.3-2.3,1.3h-3.9l8.7,14.1c0.5,0.8,0.5,1.7,0.1,2.6c-0.5,0.8-1.3,1.3-2.3,1.3h-4.2l8.9,14
		C606.5,271.1,606.5,272.1,606.1,272.9z"/>
	<rect x="624.7" y="269.1" class="st9" width="15.4" height="25.8"/>
	<rect x="632.4" y="269.1" class="st5" width="7.7" height="25.8"/>
	<path class="st10" d="M652.5,270.3l-8.9-14h4.2c0.9,0,1.8-0.5,2.3-1.3c0.4-0.8,0.4-1.8-0.1-2.6l-8.7-14.1h3.9
		c0.9,0,1.8-0.5,2.3-1.3c0.5-0.8,0.4-1.8-0.1-2.6l-12.8-20.7c-0.5-0.8-1.3-1.1-2.2-1.1c-0.8,0-1.7,0.4-2.2,1.1l-12.8,20.7
		c-0.5,0.8-0.6,1.8-0.1,2.6c0.5,0.8,1.3,1.3,2.3,1.3h3.9l-8.7,14.1c-0.5,0.8-0.5,1.7-0.1,2.6c0.5,0.8,1.3,1.3,2.3,1.3h4.2l-8.9,14
		c-0.5,0.8-0.6,1.8-0.1,2.6c0.5,0.8,1.3,1.3,2.3,1.3h35.9c0.9,0,1.8-0.5,2.3-1.3C653,272.1,653,271.1,652.5,270.3z"/>
	<path class="st11" d="M652.6,272.9c-0.5,0.8-1.3,1.3-2.3,1.3h-18v-61.7c0.8,0,1.7,0.4,2.2,1.1l12.8,20.7c0.5,0.8,0.6,1.8,0.1,2.6
		c-0.5,0.8-1.3,1.3-2.3,1.3h-3.9l8.7,14.1c0.5,0.8,0.5,1.7,0.1,2.6c-0.5,0.8-1.3,1.3-2.3,1.3h-4.2l8.9,14
		C653,271.1,653,272.1,652.6,272.9z"/>
	<path class="st12" d="M652.9,291.3v8.8h-87.5v-8.8c0-2.2,1.8-2.3,3.6-3.4c5.5-3.7,12.7-3.7,18.2,0c3.8,2.5,8.7,2.5,12.6,0
		c2.8-1.8,6.2-2.8,9.4-2.8c3.2,0,6.6,0.9,9.4,2.8c3.8,2.5,8.7,2.5,12.6,0c5.5-3.7,12.7-3.7,18.2,0
		C651.1,289,652.9,289.1,652.9,291.3z"/>
	<path class="st13" d="M652.9,291.3v8.8h-43.8v-15c3.2,0,6.6,0.9,9.4,2.8c3.8,2.5,8.7,2.5,12.6,0c5.5-3.7,12.7-3.7,18.2,0
		C651.1,289,652.9,289.1,652.9,291.3z"/>
</g>
<g>
	<path class="st1" d="M1122.6,256h47.8c1.8,0,3.3-1.1,4-2.7c0.7-1.6,0.3-3.5-0.9-4.7l-14.3-14.3l14.3-14.3c1.2-1.2,1.6-3.1,0.9-4.7
		c-0.7-1.6-2.3-2.7-4-2.7h-52.1c-2.4,0-4.3,1.9-4.3,4.3V256H1122.6z"/>
	<path class="st9" d="M1122.6,216.9v78.8c0,2.4-1.9,4.3-4.3,4.3c-2.4,0-4.3-1.9-4.3-4.3v-78.8c0-2.4,1.9-4.3,4.3-4.3
		C1120.7,212.6,1122.6,214.5,1122.6,216.9z"/>
	<path class="st5" d="M1122.6,216.9v78.8c0,2.4-1.9,4.3-4.3,4.3v-87.5C1120.7,212.6,1122.6,214.5,1122.6,216.9z"/>
</g>
<g>
	<path class="st14" d="M1367.3,256.4h47.8c1.8,0,3.3-1.1,4-2.7c0.7-1.6,0.3-3.5-0.9-4.7l-14.3-14.3l14.3-14.3
		c1.2-1.2,1.6-3.1,0.9-4.7c-0.7-1.6-2.3-2.7-4-2.7h-52.1c-2.4,0-4.3,1.9-4.3,4.3v39.1H1367.3z"/>
	<path class="st9" d="M1367.3,217.3v78.8c0,2.4-1.9,4.3-4.3,4.3c-2.4,0-4.3-1.9-4.3-4.3v-78.8c0-2.4,1.9-4.3,4.3-4.3
		C1365.4,213,1367.3,214.9,1367.3,217.3z"/>
	<path class="st5" d="M1367.3,217.3v78.8c0,2.4-1.9,4.3-4.3,4.3V213C1365.4,213,1367.3,214.9,1367.3,217.3z"/>
</g>
<g>
	<path class="st5" d="M884.5,254.1c0,1.4-1.1,2.6-2.6,2.6c-1.4,0-2.6-1.1-2.6-2.6c0-4.3-3.4-7.9-7.7-7.9c-4.3,0-7.7,3.6-7.7,7.9
		c0,1.4-1.1,2.6-2.6,2.6c-1.4,0-2.6-1.1-2.6-2.6c0-7.1,5.7-13,12.8-13C878.8,241.1,884.5,247.1,884.5,254.1z"/>
	<path class="st15" d="M874.3,218.1v25.6c0,1.4-1.1,2.6-2.6,2.6c-1.4,0-2.6-1.1-2.6-2.6v-25.6c0-1.4,1.1-2.6,2.6-2.6
		C873.1,215.5,874.3,216.7,874.3,218.1z"/>
	<path class="st6" d="M884.5,254.1c0,1.4-1.1,2.6-2.6,2.6c-1.4,0-2.6-1.1-2.6-2.6c0-4.3-3.4-7.9-7.7-7.9v-5.1
		C878.8,241.1,884.5,247.1,884.5,254.1z"/>
	<path class="st16" d="M874.3,218.1v25.6c0,1.4-1.1,2.6-2.6,2.6v-30.7C873.1,215.5,874.3,216.7,874.3,218.1z"/>
	<path class="st9" d="M887.1,251.6h-30.7c-1.4,0-2.6,1.1-2.6,2.6c0,9.9,8,18.1,17.9,18.1c9.9,0,17.9-8.2,17.9-18.1
		C889.6,252.7,888.5,251.6,887.1,251.6z"/>
	<path class="st5" d="M871.7,272.2v-20.7h15.4c1.4,0,2.6,1.1,2.6,2.6C889.6,264,881.6,272.2,871.7,272.2z"/>
	<path class="st17" d="M889.6,285c0,4.3-3.4,7.7-7.7,7.7h-20.5c-4,0-7.7-3.2-7.7-7.7c0-0.8,0.1-1.6,0.4-2.4l5.1-9.1
		c0.5-0.8,1.3-1.3,2.3-1.3c0.9,0,1.8,0.5,2.2,1.3l2.4,4.1l3.2-8.6c0.3-1.1,1.2-1.9,2.5-1.9c1.2,0,2.1,0.7,2.5,2l3,8.5l0.6-0.8
		l1.8-3.3c0.5-0.8,1.4-1.1,2.3-1.3c0.9,0,1.8,0.5,2.2,1.3l4.8,8.4C889.5,283.2,889.6,284.1,889.6,285z"/>
	<path class="st18" d="M889.6,285c0,4.3-3.4,7.7-7.7,7.7h-10.2v-25.6c1.2,0,2.1,0.7,2.5,2l3,8.5l0.6-0.8l1.8-3.3
		c0.5-0.8,1.4-1.1,2.3-1.3c0.9,0,1.8,0.5,2.2,1.3l4.8,8.4C889.5,283.2,889.6,284.1,889.6,285z"/>
	<path class="st9" d="M914.2,292.4c-1.2,0.7-2.8,0.3-3.5-1l-38.9-69.3l-38.9,69.3c-0.7,1.2-2.3,1.6-3.5,1c-1.2-0.7-1.6-2.3-1-3.5
		l40.5-71.9l-4.5-7.8c-0.7-1.3-0.3-2.8,1-3.5c1.3-0.7,2.8-0.3,3.5,1l2.9,5.2l2.9-5.2c0.7-1.2,2.3-1.6,3.5-1c1.2,0.7,1.6,2.3,1,3.5
		l-4.5,7.8l40.5,71.9C915.8,290.2,915.4,291.7,914.2,292.4z"/>
	<path class="st5" d="M914.2,292.4c-1.2,0.7-2.8,0.3-3.5-1l-38.9-69.3v-10.5l2.9-5.2c0.7-1.2,2.3-1.6,3.5-1c1.2,0.7,1.6,2.3,1,3.5
		l-4.5,7.8l40.5,71.9C915.8,290.2,915.4,291.7,914.2,292.4z"/>
</g>
</svg>
