<?xml version="1.0" encoding="utf-8"?>
<!-- Generator: Adobe Illustrator 21.1.0, SVG Export Plug-In . SVG Version: 6.00 Build 0)  -->
<svg version="1.1" id="레이어_1" xmlns="http://www.w3.org/2000/svg" xmlns:xlink="http://www.w3.org/1999/xlink" x="0px"
	 y="0px" viewBox="0 0 584.9 167.6" style="enable-background:new 0 0 584.9 167.6;" xml:space="preserve">
<style type="text/css">
	.st0{fill:#263545;}
	.st1{fill:#FCFCFC;}
</style>
<g>
	<path class="st0" d="M3,14.2h18.1v19.3h10.1V14.2h18.2v56.7H31.2v-21H21.1v21H3V14.2z M13.7,64V42.5h25V64h2.2V21h-2.2v19.5h-25V21
		h-2.2V64H13.7z"/>
	<path class="st0" d="M78.5,72.3c-3.6,0-6.8-0.5-9.7-1.4c-2.9-0.9-5.4-2.3-7.4-4.1c-2-1.8-3.6-4.1-4.7-6.9c-1.1-2.8-1.7-6-1.7-9.8
		v-36h18.1v35.3c0,2,0.4,3.5,1.2,4.5c0.8,1,2.2,1.6,4.1,1.6c1.9,0,3.3-0.5,4.1-1.6c0.8-1,1.2-2.6,1.2-4.5V14.2h18.2v36
		c0,3.7-0.6,7-1.7,9.8c-1.1,2.8-2.7,5.1-4.8,6.9c-2.1,1.8-4.5,3.2-7.4,4.1C85.3,71.8,82.1,72.3,78.5,72.3z M78.5,62.1
		c-8.5,0-12.8-4.2-12.8-12.5V21h-2.2v28.6c0,4.8,1.3,8.4,3.9,10.9c2.6,2.5,6.3,3.8,11.1,3.8c4.8,0,8.5-1.3,11.1-3.8
		c2.6-2.5,3.9-6.2,3.9-10.9V21h-2.3v28.6C91.3,57.9,87,62.1,78.5,62.1z"/>
	<path class="st0" d="M107.8,14.2h14.9L138.3,36V14.2h17.8v56.7h-15l-15.6-21.8v21.8h-17.8V14.2z M117.9,64V24.8L145.9,64h2.2V21
		h-2.2v39.3L117.9,21h-2.2V64H117.9z"/>
	<path class="st0" d="M169.5,29H159V14.2h39.6V29h-10.5v41.8h-18.7V29z M179.9,64V23h12.2v-2h-26.5v2h12.2V64H179.9z"/>
	<path class="st0" d="M201.6,14.2h19.2v56.7h-19.2V14.2z M212.3,64V21h-2.2V64H212.3z"/>
	<path class="st0" d="M226.8,14.2h14.9L257.3,36V14.2h17.8v56.7h-15l-15.6-21.8v21.8h-17.8V14.2z M236.9,64V24.8L264.9,64h2.2V21
		h-2.2v39.3L236.9,21h-2.2V64H236.9z"/>
	<path class="st0" d="M317.1,33.4c-1-0.9-2.3-1.6-3.8-2.1c-1.5-0.5-3-0.7-4.5-0.7c-1.6,0-3.1,0.3-4.5,0.9c-1.4,0.6-2.5,1.4-3.5,2.5
		c-1,1-1.8,2.3-2.3,3.8c-0.6,1.5-0.9,3.1-0.9,4.8c0,1.7,0.3,3.3,0.9,4.8c0.6,1.5,1.5,2.7,2.6,3.8c1.1,1,2.3,1.9,3.8,2.5
		c1.4,0.6,3,0.9,4.6,0.9c1.9,0,3.7-0.4,5.3-1.2c1.6-0.8,2.9-1.9,4.1-3.4h-5.1V38h21.8v18.9c-1.3,2.3-2.9,4.4-4.7,6.3
		c-1.8,1.9-3.8,3.5-6.1,4.9c-2.2,1.4-4.7,2.4-7.3,3.1c-2.6,0.7-5.3,1.1-8.1,1.1c-4.1,0-7.9-0.8-11.6-2.3c-3.6-1.5-6.8-3.6-9.5-6.3
		c-2.7-2.7-4.8-5.8-6.4-9.4c-1.6-3.6-2.3-7.5-2.3-11.7c0-4.1,0.7-7.9,2.2-11.6c1.5-3.6,3.5-6.8,6.1-9.5c2.6-2.7,5.6-4.8,9.2-6.4
		c3.5-1.6,7.4-2.3,11.4-2.3c3.2,0,5.9,0.3,8.2,0.9c2.3,0.6,4.3,1.3,5.9,2.1c1.9,0.9,3.4,1.9,4.7,3L317.1,33.4z M318,22.5
		c-0.7-0.3-1.6-0.6-2.5-0.8c-0.8-0.2-1.7-0.4-2.8-0.6c-1.1-0.2-2.3-0.3-3.6-0.3c-3,0-5.8,0.5-8.4,1.6c-2.6,1.1-4.9,2.6-6.8,4.5
		c-1.9,1.9-3.4,4.2-4.5,6.8c-1.1,2.7-1.7,5.6-1.7,8.8s0.6,6.2,1.7,8.8c1.1,2.7,2.7,4.9,4.7,6.8c2,1.9,4.3,3.4,6.9,4.5
		c2.6,1.1,5.5,1.6,8.5,1.6c3.9,0,7.5-0.9,10.6-2.8c3.2-1.8,5.8-4.3,7.7-7.4V43.1h-9v2h6.8v8.5c-1.8,2.6-4,4.7-6.8,6.2
		c-2.8,1.5-5.9,2.3-9.3,2.3c-2.7,0-5.3-0.5-7.6-1.4c-2.4-0.9-4.4-2.3-6.2-4c-1.8-1.7-3.2-3.8-4.2-6.2c-1-2.4-1.5-5.1-1.5-7.9
		c0-2.9,0.5-5.5,1.5-7.9c1-2.4,2.4-4.5,4.1-6.2c1.7-1.7,3.8-3.1,6.1-4c2.3-0.9,4.8-1.4,7.6-1.4c1,0,2,0.1,2.9,0.3
		c0.9,0.2,1.7,0.3,2.4,0.5c0.8,0.2,1.5,0.5,2.2,0.7L318,22.5z"/>
	<path class="st0" d="M355.7,53.3c1.2,0.4,2.6,0.7,3.9,0.9c1.1,0.3,2.4,0.5,3.9,0.7c1.4,0.2,2.9,0.3,4.4,0.3c2.6,0,3.9-1,3.9-2.9
		c0-0.7-0.4-1.5-1.2-2.3c-0.8-0.8-1.8-1.6-3-2.5c-1.2-0.9-2.5-2-3.9-3.1c-1.4-1.1-2.7-2.4-3.9-3.9c-1.2-1.5-2.2-3.1-3-5
		c-0.8-1.8-1.2-4-1.2-6.3c0-2.7,0.5-5,1.4-7.1c1-2,2.3-3.7,4-5.1c1.7-1.4,3.7-2.4,6-3.1c2.3-0.7,4.7-1.1,7.4-1.1
		c1.4,0,2.7,0.1,4.1,0.2c1.4,0.1,2.6,0.3,3.7,0.4c1.2,0.2,2.5,0.3,3.7,0.5v15.9c-0.5-0.1-1-0.1-1.5-0.2c-0.5-0.1-1-0.1-1.5-0.2
		c-0.6-0.1-1.2-0.1-1.8-0.1c-0.3,0-0.8,0-1.3,0c-0.5,0-1,0.1-1.4,0.2c-0.5,0.1-0.8,0.3-1.2,0.6c-0.3,0.3-0.5,0.7-0.5,1.2
		c0,0.5,0.4,1,1.1,1.7c0.8,0.7,1.7,1.5,2.8,2.4c1.1,0.9,2.3,2,3.7,3.1c1.3,1.2,2.5,2.5,3.7,4.1c1.1,1.5,2,3.3,2.8,5.2
		c0.8,1.9,1.1,4.1,1.1,6.5c0,2.5-0.4,4.8-1.2,7c-0.8,2.2-2,4.1-3.7,5.7c-1.7,1.6-3.8,2.9-6.4,3.8c-2.6,0.9-5.7,1.4-9.3,1.4
		c-2.2,0-4.2-0.1-6-0.3c-1.8-0.2-3.5-0.4-4.9-0.7c-1.6-0.3-3.1-0.6-4.5-1V53.3z M362.9,63.5c0.8,0.2,1.6,0.3,2.5,0.4
		c0.8,0.1,1.6,0.2,2.5,0.3c0.9,0.1,1.8,0.1,2.7,0.1c1.6,0,3.1-0.2,4.6-0.6c1.5-0.4,2.8-1,4-1.8c1.2-0.9,2.1-1.9,2.8-3.3
		c0.7-1.3,1.1-3,1.1-4.9c0-1.6-0.4-3.2-1.2-4.7c-0.8-1.5-1.9-2.9-3.1-4.2c-1.3-1.4-2.6-2.7-4.1-3.9c-1.4-1.2-2.8-2.5-4.1-3.8
		c-1.3-1.3-2.3-2.5-3.1-3.8c-0.8-1.3-1.2-2.6-1.2-4c0-2,0.7-3.6,2-4.7c1.3-1.1,3.4-1.7,6.3-1.7c0.5,0,0.9,0,1.4,0
		c0.5,0,0.9,0.1,1.4,0.1c0.5,0.1,0.9,0.1,1.4,0.1V21c-0.4,0-0.8,0-1.3-0.1c-0.4-0.1-0.8-0.1-1.3-0.1c-0.5,0-1,0-1.5,0
		c-3.1,0-5.6,0.7-7.6,2.1c-2,1.4-3,3.6-3,6.5c0,1.6,0.4,3.1,1.2,4.5c0.8,1.4,1.9,2.7,3.1,4.1c1.3,1.3,2.6,2.6,4.1,3.9
		c1.4,1.2,2.8,2.5,4.1,3.8s2.3,2.6,3.1,4c0.8,1.4,1.2,2.8,1.2,4.2c0,2.7-0.9,4.8-2.8,6.2c-1.8,1.4-4.4,2.1-7.6,2.1
		c-1.9,0-3.7-0.1-5.3-0.4c-0.8-0.1-1.7-0.3-2.5-0.4V63.5z"/>
	<path class="st0" d="M395.5,14.2h18.4v13.1l10.7-13.1h22.2l-20,25.9l21,30.8h-21.8l-12.1-17.5v17.5h-18.4V14.2z M406.2,64V52.6
		l8.8-11L430.5,64h2.6l-16.6-24.2L431.8,21h-2.7l-22.9,28.2V21H404V64H406.2z"/>
	<path class="st0" d="M449.5,14.2h19.2v56.7h-19.2V14.2z M460.2,64V21H458V64H460.2z"/>
	<path class="st0" d="M474.6,14.2h18.9V56h15.6v14.9h-34.5V14.2z M504.4,64v-2h-19V21h-2.2V64H504.4z"/>
	<path class="st0" d="M512.1,14.2H531V56h15.6v14.9h-34.5V14.2z M541.9,64v-2h-19V21h-2.2V64H541.9z"/>
	<path class="st0" d="M548.1,53.3c1.2,0.4,2.6,0.7,3.9,0.9c1.1,0.3,2.4,0.5,3.9,0.7c1.4,0.2,2.9,0.3,4.4,0.3c2.6,0,3.9-1,3.9-2.9
		c0-0.7-0.4-1.5-1.2-2.3c-0.8-0.8-1.8-1.6-3-2.5c-1.2-0.9-2.5-2-3.9-3.1c-1.4-1.1-2.7-2.4-3.9-3.9c-1.2-1.5-2.2-3.1-3-5
		c-0.8-1.8-1.2-4-1.2-6.3c0-2.7,0.5-5,1.4-7.1c1-2,2.3-3.7,4-5.1c1.7-1.4,3.7-2.4,6-3.1c2.3-0.7,4.7-1.1,7.4-1.1
		c1.4,0,2.7,0.1,4.1,0.2c1.4,0.1,2.6,0.3,3.7,0.4c1.2,0.2,2.5,0.3,3.7,0.5v15.9c-0.5-0.1-1-0.1-1.5-0.2c-0.5-0.1-1-0.1-1.5-0.2
		c-0.6-0.1-1.2-0.1-1.8-0.1c-0.3,0-0.8,0-1.3,0c-0.5,0-1,0.1-1.4,0.2c-0.5,0.1-0.8,0.3-1.2,0.6c-0.3,0.3-0.5,0.7-0.5,1.2
		c0,0.5,0.4,1,1.1,1.7c0.8,0.7,1.7,1.5,2.8,2.4c1.1,0.9,2.3,2,3.7,3.1c1.3,1.2,2.5,2.5,3.7,4.1c1.1,1.5,2,3.3,2.8,5.2
		c0.8,1.9,1.1,4.1,1.1,6.5c0,2.5-0.4,4.8-1.2,7c-0.8,2.2-2,4.1-3.7,5.7c-1.7,1.6-3.8,2.9-6.4,3.8c-2.6,0.9-5.7,1.4-9.3,1.4
		c-2.2,0-4.2-0.1-6-0.3c-1.8-0.2-3.5-0.4-4.9-0.7c-1.6-0.3-3.1-0.6-4.5-1V53.3z M555.2,63.5c0.8,0.2,1.6,0.3,2.5,0.4
		c0.8,0.1,1.6,0.2,2.5,0.3c0.9,0.1,1.8,0.1,2.7,0.1c1.6,0,3.1-0.2,4.6-0.6c1.5-0.4,2.8-1,4-1.8c1.2-0.9,2.1-1.9,2.8-3.3
		c0.7-1.3,1.1-3,1.1-4.9c0-1.6-0.4-3.2-1.2-4.7c-0.8-1.5-1.9-2.9-3.1-4.2c-1.3-1.4-2.6-2.7-4.1-3.9c-1.4-1.2-2.8-2.5-4.1-3.8
		c-1.3-1.3-2.3-2.5-3.1-3.8c-0.8-1.3-1.2-2.6-1.2-4c0-2,0.7-3.6,2-4.7c1.3-1.1,3.4-1.7,6.3-1.7c0.5,0,0.9,0,1.4,0
		c0.5,0,0.9,0.1,1.4,0.1c0.5,0.1,0.9,0.1,1.4,0.1V21c-0.4,0-0.8,0-1.3-0.1c-0.4-0.1-0.8-0.1-1.3-0.1c-0.5,0-1,0-1.5,0
		c-3.1,0-5.6,0.7-7.6,2.1c-2,1.4-3,3.6-3,6.5c0,1.6,0.4,3.1,1.2,4.5c0.8,1.4,1.9,2.7,3.1,4.1c1.3,1.3,2.6,2.6,4.1,3.9
		c1.4,1.2,2.8,2.5,4.1,3.8s2.3,2.6,3.1,4c0.8,1.4,1.2,2.8,1.2,4.2c0,2.7-0.9,4.8-2.8,6.2c-1.8,1.4-4.4,2.1-7.6,2.1
		c-1.9,0-3.7-0.1-5.3-0.4c-0.8-0.1-1.7-0.3-2.5-0.4V63.5z"/>
</g>
<rect x="63.8" y="110.5" class="st0" width="457.2" height="57.1"/>
<g>
	<path class="st1" d="M100.9,127.9l4,9h-3.2l-2.4-5.4l-2.4,5.4h-3.2l4-9H100.9z M97.9,143.4v1h11.7v2.2H95.1v-5.3h11.7v-1H95.1v-2.2
		h11.7v-10.3h2.8v2.5h2v2.7h-2v10.3H97.9z"/>
	<path class="st1" d="M123,132.6v9.2c0,2.7-2.2,4.8-4.9,4.8c-2.7,0-4.9-2.1-4.9-4.8v-9.2c0-2.7,2.2-4.8,4.9-4.8
		C120.8,127.8,123,129.9,123,132.6z M116.1,132.6v9.2c0,1.1,0.9,2,2.1,2c1.1,0,2.1-0.9,2.1-2v-9.2c0-1.1-0.9-2-2.1-2
		C117,130.6,116.1,131.5,116.1,132.6z M128.6,135.6h2v2.7h-2v8.3h-2.8v-18.7h2.8V135.6z"/>
	<path class="st1" d="M138.8,143.7v-5.1h-2.2c-2.4,0-4.3-1.9-4.3-4.3v-2c0-2.4,1.9-4.3,4.3-4.3h7.4c2.4,0,4.3,1.9,4.3,4.3v2
		c0,2.4-1.9,4.3-4.3,4.3h-2.2v5.1h7.1v2.9h-17v-2.9H138.8z M143.5,135.9c1.2,0,1.9-1,1.9-2.1v-0.9c0-1.2-0.8-2.1-1.9-2.1h-6.4
		c-1.2,0-1.9,1-1.9,2.1v0.9c0,1.2,0.8,2.1,1.9,2.1H143.5z"/>
	<path class="st1" d="M154.9,144h9.4v-7.5h-3.4v1.8h-9.6v-10.4h9.6v1.9h3.4v-2h2.8v18.7h-15v-6h2.8V144z M158.2,130.7h-4.1v5h4.1
		V130.7z M160.9,134h3.4v-1.8h-3.4V134z"/>
	<path class="st1" d="M178,146.5l-2.6-12l-2.6,12h-2.9l4.2-18.5h2.7l4.2,18.5H178z M186.1,146.6h-2.8v-9.9H180V134h3.3v-6.1h2.8
		V146.6z"/>
	<path class="st1" d="M195.7,127.9h8.9v2.7h-5.9v5.1h5.5v2.6h-5.5v5.5h6.3v2.6h-9.2V127.9z M211.5,146.6h-2.8v-8.3h-3.1v-2.8h3.1
		v-7.7h2.8V146.6z"/>
	<path class="st1" d="M231.2,136.6v2.5h-17v-2.5H231.2z M230.1,142.9l-0.8,3.7h-3l0.8-3.7h-12v-2.3h14.9V142.9z M229.9,127.9v2.5
		h-11.3v2.1h11.3v2.5h-14.4v-7H229.9z"/>
	<path class="st1" d="M240,128.5h3.6v2.6h-1.9c0.8,0.7,1.3,1.5,1.3,2.5v1.5c0,2-2.1,3.6-4.5,3.6c-2.4,0-4.4-1.6-4.4-3.6v-1.4
		c0-1,0.5-1.9,1.2-2.5h-1.8v-2.6h3.7v-1.3h2.8V128.5z M237.3,144.1h8.9v-16.2h2.8v5h2v2.7h-2v11.1h-14.5v-5.4h2.8V144.1z
		 M240.5,134.1c0-0.9-0.8-1.7-1.9-1.7s-1.9,0.8-1.9,1.7v0.4c0,0.9,0.9,1.7,1.9,1.7s1.9-0.7,1.9-1.7V134.1z"/>
	<path class="st1" d="M270.1,144l1-13.3h-11.4V128h14.3v2.7l-1,13.3h2.5v2.6h-17V144H270.1z"/>
	<path class="st1" d="M287.9,127.9v10.7H281v5.2h7.1v2.6h-9.8v-10.7h6.8v-5.2h-6.8v-2.7H287.9z M293.9,146.6h-2.7v-18.7h2.7V146.6z"
		/>
	<path class="st1" d="M301.6,144V136h2.9v7.9h3.7l1-13.3h-11.5V128h14.5v2.7l-1,13.3h2.4v2.6h-17V144H301.6z"/>
	<path class="st1" d="M328.4,127.9c2.2,0,3.9,1.7,3.9,3.9v1.5c0,2.2-1.7,3.9-3.9,3.9h-2.1c-2.2,0-3.9-1.7-3.9-3.9v-1.5
		c0-2.2,1.7-3.9,3.9-3.9H328.4z M322.7,138.6H335v-10.8h2.8v3.5h2v2.7h-2v6.9h-2.3v3.4h2.3v2.3h-15v-2.3h2.9v-3.4h-2.9V138.6z
		 M329.6,132.3c0-1-0.7-1.7-1.7-1.7h-1.1c-1,0-1.7,0.7-1.7,1.7v0.6c0,1,0.7,1.7,1.7,1.7h1.1c1,0,1.7-0.7,1.7-1.7V132.3z
		 M328.3,144.3h4.5v-3.4h-4.5V144.3z"/>
	<path class="st1" d="M358,143.8v2.8h-17v-2.8H358z M353.2,127.9c2.4,0,4.3,1.9,4.3,4.3v2c0,2.4-1.9,4.3-4.3,4.3h-7.4
		c-2.4,0-4.3-1.9-4.3-4.3v-2c0-2.4,1.9-4.3,4.3-4.3H353.2z M352.7,135.8c1.2,0,2.1-1,2.1-2.1v-0.9c0-1.2-1-2.1-2.1-2.1h-6.3
		c-1.2,0-2.1,1-2.1,2.1v0.9c0,1.2,1,2.1,2.1,2.1H352.7z"/>
	<path class="st1" d="M367.1,143.9v-3.6h-5.9v-7.4h11.8v-2.3h-11.8v-2.7h14.5v7.5h-11.8v2.3h12v2.7h-6v3.6h7.1v2.7h-17v-2.7H367.1z"
		/>
	<path class="st1" d="M390,130.6h-4.7v-2.7h7.6v2.7l-0.3,2.3h2.8v-5.1h2.7v18.7h-2.7v-5.4h-3.9l-0.7,5.3h-3L390,130.6z M391.9,138.5
		h3.5v-2.9h-3.1L391.9,138.5z M399.5,146.6v-18.7h2.7v18.7H399.5z"/>
	<path class="st1" d="M411.5,136.6v-2.2h2.9v2.2h7.1v2.5h-17v-2.5H411.5z M420.7,135.1H417l-4-4.9l-4,4.9h-3.8l5.9-7.2h3.8
		L420.7,135.1z M420.3,142.9l-0.8,3.7h-3l0.8-3.7h-12v-2.3h14.9V142.9z"/>
	<path class="st1" d="M430.2,137v-9h2.8v2.1h3.2v-2.1h2.8v9H430.2z M442.9,138.2v-10.4h2.6v3h2v2.7h-2v9.9h-11.7v0.9h11.7v2.3H431
		v-5.2h11.7v-0.9H431v-2.2H442.9z M436.2,134.5v-2H433v2H436.2z"/>
	<path class="st1" d="M454.8,130.6h-5.6v-2.7h10.2v2.7l-2.9,2.1l2.9,2.2v3.2l-5.1-3.7l-5,3.7v-3.4L454.8,130.6z M452.7,144.1h12.4
		v2.4h-15v-6.7h2.7V144.1z M465.1,141.4h-2.8v-7.2h-2.4v-2.7h2.4v-3.7h2.8V141.4z"/>
	<path class="st1" d="M474.6,128.5h3.6v2.1h-1.7c0.7,0.6,1.1,1.4,1.1,2.3v1.2c0,2-2.1,3.6-4.5,3.6c-2.4,0-4.4-1.6-4.4-3.6V133
		c0-0.9,0.4-1.7,1.1-2.4h-1.7v-2.1h3.6v-1.4h2.8V128.5z M483.6,132.4h2v2.7h-2v8.5h-11.2v1h11.2v2.1h-14v-4.8h11.2v-0.9h-11.2v-2.1
		h11.2v-10.9h2.7V132.4z M475.1,133.5c0-0.9-0.8-1.7-1.9-1.7s-1.9,0.8-1.9,1.7v0.3c0,0.9,0.8,1.7,1.9,1.7s1.9-0.8,1.9-1.7V133.5z"/>
</g>
</svg>
