<?xml version="1.0" encoding="utf-8"?>
<!-- Generator: Adobe Illustrator 21.1.0, SVG Export Plug-In . SVG Version: 6.00 Build 0)  -->
<svg version="1.1" id="레이어_1" xmlns="http://www.w3.org/2000/svg" xmlns:xlink="http://www.w3.org/1999/xlink" x="0px"
	 y="0px" viewBox="0 0 606 167.6" style="enable-background:new 0 0 606 167.6;" xml:space="preserve">
<style type="text/css">
	.st0{fill:#263545;}
	.st1{fill:#FCFCFC;}
</style>
<g>
	<path class="st0" d="M0,14.2h19.2L25.8,34l6.5-19.8h12.4L51.3,34l6.5-19.8H77L58.3,70.8H44.2l-5.7-17.2l-5.7,17.2H18.7L0,14.2z
		 M27.2,64l11.3-35.6L49.8,64h2.1L66.1,21h-2.3L50.9,60.1L38.5,21L26.1,60.1L13.2,21h-2.3L25.1,64H27.2z"/>
	<path class="st0" d="M78.3,14.2h33.4V29H96.4v6.3h15v14.1h-15V56h15.9v14.9h-34V14.2z M106,64v-2H89V43.4h16.1v-2H89V23h17v-2H86.8
		V64H106z"/>
	<path class="st0" d="M117.4,14.2h22.2c2.8,0,5.4,0.3,7.8,1c2.4,0.7,4.4,1.6,6,2.9c1.7,1.3,3,2.9,3.9,4.8c0.9,1.9,1.4,4.1,1.4,6.7
		c0,1.8-0.2,3.4-0.7,4.6c-0.5,1.3-0.9,2.3-1.4,3.2c-0.6,1-1.3,1.9-2.1,2.6c1.2,0.8,2.4,1.8,3.4,3.1c0.9,1.1,1.6,2.4,2.3,4.1
		c0.7,1.6,1.1,3.7,1.1,6c0,2.7-0.5,5.2-1.4,7.4c-1,2.2-2.3,4.1-4.1,5.7c-1.8,1.6-4,2.7-6.5,3.6c-2.6,0.8-5.5,1.2-8.6,1.2h-23.1V14.2
		z M138.1,64c5,0,8.7-1.1,11.1-3.2c2.4-2.2,3.6-5,3.6-8.6c0-2.3-0.5-4.2-1.5-5.6c-1-1.4-2.1-2.5-3.2-3.3c-1.4-0.9-3-1.5-4.7-1.9
		c1.4-0.4,2.6-1,3.7-1.9c1-0.7,1.8-1.7,2.6-3s1.1-2.9,1.1-4.9c0-3.6-1.1-6.3-3.4-8.1c-2.3-1.8-5.4-2.7-9.3-2.7h-12.2V64H138.1z
		 M128.1,40.5V23h10c3.7,0,6.3,0.8,7.9,2.4c1.6,1.6,2.4,3.7,2.4,6.3c0,2.6-0.8,4.7-2.4,6.3c-1.6,1.6-4.3,2.4-7.9,2.4H128.1z
		 M128.1,62V42.5h9.9c1.8,0,3.4,0.2,4.9,0.6c1.5,0.4,2.8,0.9,4,1.7c1.1,0.8,2,1.8,2.7,3c0.7,1.2,1,2.7,1,4.4c0,3.5-1.1,6-3.4,7.5
		c-2.3,1.5-5.3,2.3-9.1,2.3H128.1z M141.2,31.4c0-2.6-1.4-3.9-4.2-3.9h-2v7.8h2C139.8,35.3,141.2,34,141.2,31.4z M136.9,57.5
		c4.3,0,6.5-1.6,6.5-4.9c0-3.3-2.2-4.9-6.5-4.9h-2v9.9H136.9z"/>
	<path class="st0" d="M226.2,35.7c0,3.9-0.7,7.2-2,10c-1.4,2.7-3.2,5-5.6,6.7c-2.4,1.7-5.1,2.9-8.2,3.7c-3.1,0.8-6.5,1.2-10.2,1.2
		v13.5h-18.1V14.2h18.1c3.6,0,7,0.4,10.2,1.2c3.1,0.8,5.9,2,8.2,3.7c2.4,1.7,4.2,3.9,5.6,6.7C225.5,28.5,226.2,31.8,226.2,35.7z
		 M217.9,35.7c0-2.5-0.4-4.8-1.3-6.6c-0.9-1.9-2.1-3.4-3.7-4.6c-1.6-1.2-3.5-2.1-5.7-2.7c-2.2-0.6-4.5-0.9-7.1-0.9h-9.6V64h2.2V50.5
		h7.4c2.5,0,4.9-0.3,7.1-0.9c2.2-0.6,4.1-1.5,5.7-2.7c1.6-1.2,2.8-2.7,3.7-4.6C217.5,40.5,217.9,38.3,217.9,35.7z M215.6,35.7
		c0,2.4-0.4,4.5-1.3,6.1c-0.9,1.6-2,2.9-3.4,3.9c-1.4,1-3,1.7-4.9,2.1c-1.8,0.4-3.8,0.6-5.8,0.6h-7.4V23h7.4c2,0,4,0.2,5.8,0.6
		c1.8,0.4,3.5,1.1,4.9,2.1c1.4,1,2.5,2.3,3.4,3.9C215.1,31.3,215.6,33.3,215.6,35.7z M200.2,42h0.8c2.4,0,4.1-0.6,5.1-1.7
		c1-1.1,1.6-2.6,1.6-4.6c0-2-0.5-3.5-1.6-4.6c-1-1.1-2.8-1.7-5.1-1.7h-0.8V42z"/>
	<path class="st0" d="M229.2,42.5c0-4.1,0.8-7.9,2.3-11.6c1.6-3.6,3.7-6.8,6.4-9.5c2.7-2.7,5.9-4.8,9.5-6.4
		c3.6-1.6,7.5-2.3,11.6-2.3c4.1,0,7.9,0.8,11.6,2.3c3.6,1.6,6.8,3.7,9.5,6.4c2.7,2.7,4.8,5.9,6.4,9.5c1.6,3.6,2.3,7.5,2.3,11.6
		c0,4.1-0.8,7.9-2.3,11.6c-1.6,3.6-3.7,6.8-6.4,9.5c-2.7,2.7-5.9,4.8-9.5,6.4c-3.6,1.6-7.5,2.3-11.6,2.3c-4.1,0-7.9-0.8-11.6-2.3
		c-3.6-1.6-6.8-3.7-9.5-6.4c-2.7-2.7-4.8-5.9-6.4-9.5C229.9,50.5,229.2,46.6,229.2,42.5z M237.1,42.5c0,3,0.6,5.8,1.7,8.5
		c1.1,2.6,2.7,4.9,4.7,6.9c2,2,4.3,3.5,6.9,4.7c2.6,1.1,5.5,1.7,8.5,1.7c3,0,5.8-0.6,8.5-1.7c2.6-1.1,4.9-2.7,6.9-4.7
		c2-2,3.5-4.3,4.7-6.9c1.1-2.6,1.7-5.5,1.7-8.5c0-3-0.6-5.8-1.7-8.5c-1.1-2.6-2.7-4.9-4.7-6.9c-2-2-4.3-3.5-6.9-4.7
		c-2.6-1.1-5.5-1.7-8.5-1.7c-3,0-5.8,0.6-8.5,1.7c-2.6,1.1-4.9,2.7-6.9,4.7c-2,2-3.5,4.3-4.7,6.9C237.7,36.7,237.1,39.5,237.1,42.5z
		 M258.9,62.1c-2.7,0-5.3-0.5-7.6-1.5c-2.4-1-4.4-2.4-6.2-4.2c-1.8-1.8-3.2-3.9-4.2-6.2c-1-2.4-1.5-4.9-1.5-7.6
		c0-2.7,0.5-5.3,1.5-7.6c1-2.4,2.4-4.4,4.2-6.2c1.8-1.8,3.9-3.2,6.2-4.2c2.4-1,4.9-1.5,7.6-1.5c2.7,0,5.3,0.5,7.6,1.5
		c2.4,1,4.4,2.4,6.2,4.2c1.8,1.8,3.2,3.9,4.2,6.2c1,2.4,1.5,4.9,1.5,7.6c0,2.7-0.5,5.3-1.5,7.6c-1,2.4-2.4,4.4-4.2,6.2
		c-1.8,1.8-3.9,3.2-6.2,4.2C264.2,61.6,261.6,62.1,258.9,62.1z M247,42.5c0,1.6,0.3,3.2,0.9,4.6c0.6,1.4,1.5,2.7,2.6,3.8
		c1.1,1.1,2.3,1.9,3.8,2.6c1.4,0.6,3,0.9,4.6,0.9c1.6,0,3.2-0.3,4.6-0.9c1.4-0.6,2.7-1.5,3.8-2.6c1.1-1.1,1.9-2.3,2.5-3.8
		c0.6-1.4,0.9-3,0.9-4.6c0-1.6-0.3-3.2-0.9-4.6c-0.6-1.4-1.5-2.7-2.5-3.8c-1.1-1.1-2.3-1.9-3.8-2.5c-1.4-0.6-3-0.9-4.6-0.9
		c-1.6,0-3.2,0.3-4.6,0.9c-1.4,0.6-2.7,1.5-3.8,2.5c-1.1,1.1-1.9,2.3-2.6,3.8C247.3,39.4,247,40.9,247,42.5z"/>
	<path class="st0" d="M293.3,14.2h19.5c3.6,0,7,0.5,10.1,1.4c3.1,1,5.8,2.4,8,4.2c2.3,1.9,4,4.2,5.3,6.9c1.3,2.7,1.9,5.9,1.9,9.5
		c0,2.8-0.4,5.2-1.2,7.2c-0.8,2-1.7,3.6-2.6,4.9c-1.1,1.5-2.4,2.7-3.8,3.7l10.6,18.7h-21.2l-8.5-14.4v14.4h-18.1V14.2z M311,51.1
		c2.2,0,4.4-0.2,6.5-0.7l8.1,13.6h2.6l-8.5-14.3c3.1-1.1,5.5-2.7,7.3-5c1.8-2.2,2.7-5.1,2.7-8.7c0-2.5-0.5-4.7-1.4-6.5
		c-1-1.9-2.3-3.4-4-4.7c-1.7-1.3-3.6-2.2-5.9-2.9c-2.3-0.7-4.7-1-7.4-1h-9.2V64h2.2V51.1H311z M304,49.1V23h7
		c5.2,0,9.2,1.1,12.1,3.4c2.9,2.3,4.4,5.5,4.4,9.7c0,4.2-1.5,7.4-4.4,9.6c-2.9,2.2-7,3.4-12.1,3.4H304z M311.4,42h0.9
		c2.2,0,4-0.5,5.5-1.4c1.5-1,2.3-2.6,2.3-4.8c0-2.3-0.8-3.9-2.3-4.8c-1.5-1-3.3-1.4-5.5-1.4h-0.9V42z"/>
	<path class="st0" d="M350.4,29h-10.5V14.2h39.6V29h-10.5v41.8h-18.7V29z M360.8,64V23H373v-2h-26.5v2h12.2V64H360.8z"/>
	<path class="st0" d="M382.5,14.2h33.4V29h-15.3v6.3h15v14.1h-15v21.4h-18.1V14.2z M393.2,64V43.4h16.1v-2h-16.1V23h17v-2H391V64
		H393.2z"/>
	<path class="st0" d="M419.3,42.5c0-4.1,0.8-7.9,2.3-11.6c1.6-3.6,3.7-6.8,6.4-9.5c2.7-2.7,5.9-4.8,9.5-6.4
		c3.6-1.6,7.5-2.3,11.6-2.3c4.1,0,7.9,0.8,11.6,2.3c3.6,1.6,6.8,3.7,9.5,6.4c2.7,2.7,4.8,5.9,6.4,9.5c1.6,3.6,2.3,7.5,2.3,11.6
		c0,4.1-0.8,7.9-2.3,11.6c-1.6,3.6-3.7,6.8-6.4,9.5c-2.7,2.7-5.9,4.8-9.5,6.4c-3.6,1.6-7.5,2.3-11.6,2.3c-4.1,0-7.9-0.8-11.6-2.3
		c-3.6-1.6-6.8-3.7-9.5-6.4c-2.7-2.7-4.8-5.9-6.4-9.5C420.1,50.5,419.3,46.6,419.3,42.5z M427.3,42.5c0,3,0.6,5.8,1.7,8.5
		c1.1,2.6,2.7,4.9,4.7,6.9c2,2,4.3,3.5,6.9,4.7c2.6,1.1,5.5,1.7,8.5,1.7c3,0,5.8-0.6,8.5-1.7c2.6-1.1,4.9-2.7,6.9-4.7
		c2-2,3.5-4.3,4.7-6.9c1.1-2.6,1.7-5.5,1.7-8.5c0-3-0.6-5.8-1.7-8.5c-1.1-2.6-2.7-4.9-4.7-6.9c-2-2-4.3-3.5-6.9-4.7
		c-2.6-1.1-5.5-1.7-8.5-1.7c-3,0-5.8,0.6-8.5,1.7c-2.6,1.1-4.9,2.7-6.9,4.7c-2,2-3.5,4.3-4.7,6.9C427.9,36.7,427.3,39.5,427.3,42.5z
		 M449,62.1c-2.7,0-5.3-0.5-7.6-1.5s-4.4-2.4-6.2-4.2c-1.8-1.8-3.2-3.9-4.2-6.2c-1-2.4-1.5-4.9-1.5-7.6c0-2.7,0.5-5.3,1.5-7.6
		c1-2.4,2.4-4.4,4.2-6.2c1.8-1.8,3.9-3.2,6.2-4.2s4.9-1.5,7.6-1.5c2.7,0,5.3,0.5,7.6,1.5c2.4,1,4.4,2.4,6.2,4.2
		c1.8,1.8,3.2,3.9,4.2,6.2c1,2.4,1.5,4.9,1.5,7.6c0,2.7-0.5,5.3-1.5,7.6c-1,2.4-2.4,4.4-4.2,6.2c-1.8,1.8-3.9,3.2-6.2,4.2
		C454.3,61.6,451.8,62.1,449,62.1z M437.1,42.5c0,1.6,0.3,3.2,0.9,4.6c0.6,1.4,1.5,2.7,2.6,3.8c1.1,1.1,2.3,1.9,3.8,2.6
		c1.4,0.6,3,0.9,4.6,0.9c1.6,0,3.2-0.3,4.6-0.9c1.4-0.6,2.7-1.5,3.8-2.6c1.1-1.1,1.9-2.3,2.5-3.8c0.6-1.4,0.9-3,0.9-4.6
		c0-1.6-0.3-3.2-0.9-4.6c-0.6-1.4-1.5-2.7-2.5-3.8c-1.1-1.1-2.3-1.9-3.8-2.5c-1.4-0.6-3-0.9-4.6-0.9c-1.6,0-3.2,0.3-4.6,0.9
		c-1.4,0.6-2.7,1.5-3.8,2.5c-1.1,1.1-1.9,2.3-2.6,3.8C437.5,39.4,437.1,40.9,437.1,42.5z"/>
	<path class="st0" d="M483.5,14.2h18.9V56H518v14.9h-34.5V14.2z M513.2,64v-2h-19V21H492V64H513.2z"/>
	<path class="st0" d="M521,14.2h19.2v56.7H521V14.2z M531.7,64V21h-2.2V64H531.7z"/>
	<path class="st0" d="M544.8,42.5c0-4.1,0.8-7.9,2.3-11.6c1.6-3.6,3.7-6.8,6.4-9.5c2.7-2.7,5.9-4.8,9.5-6.4
		c3.6-1.6,7.5-2.3,11.6-2.3c4.1,0,7.9,0.8,11.6,2.3c3.6,1.6,6.8,3.7,9.5,6.4c2.7,2.7,4.8,5.9,6.4,9.5c1.6,3.6,2.3,7.5,2.3,11.6
		c0,4.1-0.8,7.9-2.3,11.6c-1.6,3.6-3.7,6.8-6.4,9.5c-2.7,2.7-5.9,4.8-9.5,6.4c-3.6,1.6-7.5,2.3-11.6,2.3c-4.1,0-7.9-0.8-11.6-2.3
		c-3.6-1.6-6.8-3.7-9.5-6.4c-2.7-2.7-4.8-5.9-6.4-9.5C545.6,50.5,544.8,46.6,544.8,42.5z M552.8,42.5c0,3,0.6,5.8,1.7,8.5
		c1.1,2.6,2.7,4.9,4.7,6.9c2,2,4.3,3.5,6.9,4.7c2.6,1.1,5.5,1.7,8.5,1.7c3,0,5.8-0.6,8.5-1.7c2.6-1.1,4.9-2.7,6.9-4.7
		c2-2,3.5-4.3,4.7-6.9c1.1-2.6,1.7-5.5,1.7-8.5c0-3-0.6-5.8-1.7-8.5c-1.1-2.6-2.7-4.9-4.7-6.9c-2-2-4.3-3.5-6.9-4.7
		c-2.6-1.1-5.5-1.7-8.5-1.7c-3,0-5.8,0.6-8.5,1.7c-2.6,1.1-4.9,2.7-6.9,4.7c-2,2-3.5,4.3-4.7,6.9C553.4,36.7,552.8,39.5,552.8,42.5z
		 M574.6,62.1c-2.7,0-5.3-0.5-7.6-1.5s-4.4-2.4-6.2-4.2c-1.8-1.8-3.2-3.9-4.2-6.2c-1-2.4-1.5-4.9-1.5-7.6c0-2.7,0.5-5.3,1.5-7.6
		c1-2.4,2.4-4.4,4.2-6.2c1.8-1.8,3.9-3.2,6.2-4.2s4.9-1.5,7.6-1.5c2.7,0,5.3,0.5,7.6,1.5c2.4,1,4.4,2.4,6.2,4.2
		c1.8,1.8,3.2,3.9,4.2,6.2c1,2.4,1.5,4.9,1.5,7.6c0,2.7-0.5,5.3-1.5,7.6c-1,2.4-2.4,4.4-4.2,6.2c-1.8,1.8-3.9,3.2-6.2,4.2
		C579.8,61.6,577.3,62.1,574.6,62.1z M562.7,42.5c0,1.6,0.3,3.2,0.9,4.6c0.6,1.4,1.5,2.7,2.6,3.8c1.1,1.1,2.3,1.9,3.8,2.6
		c1.4,0.6,3,0.9,4.6,0.9c1.6,0,3.2-0.3,4.6-0.9c1.4-0.6,2.7-1.5,3.8-2.6c1.1-1.1,1.9-2.3,2.5-3.8c0.6-1.4,0.9-3,0.9-4.6
		c0-1.6-0.3-3.2-0.9-4.6c-0.6-1.4-1.5-2.7-2.5-3.8c-1.1-1.1-2.3-1.9-3.8-2.5c-1.4-0.6-3-0.9-4.6-0.9c-1.6,0-3.2,0.3-4.6,0.9
		c-1.4,0.6-2.7,1.5-3.8,2.5c-1.1,1.1-1.9,2.3-2.6,3.8C563,39.4,562.7,40.9,562.7,42.5z"/>
</g>
<rect x="130.9" y="110.5" class="st0" width="344.2" height="57.1"/>
<g>
	<path class="st1" d="M169.2,137.9h-4.3v1.2h-2.7v-1.2H159v-2h10.2V133h-1.4v-2.2h1.4v-2.9h2.4v11.3h-2.4V137.9z M162.1,135.1
		c-1.6,0-2.8-1.5-2.8-3.1v-1c0-1.4,1.2-3.1,2.8-3.1h2.4c1.6,0,2.8,1.7,2.8,3.1v1c0,1.5-1.1,3.1-2.8,3.1H162.1z M163.1,139.7v1.1h9.9
		v-13h2.4v18.7h-14.7v-6.9H163.1z M161.8,131.8c0,0.6,0.4,1.2,1.1,1.2h0.8c0.7,0,1.1-0.6,1.1-1.2v-0.6c0-0.5-0.4-1.2-1.1-1.2h-0.8
		c-0.7,0-1.1,0.7-1.1,1.2V131.8z M172.9,143.2h-9.9v1.1h9.9V143.2z"/>
	<path class="st1" d="M191.5,130.6h-7.1v-2.7h10.2v2.7l-2.3,15.9h-3.1L191.5,130.6z M200.7,146.6h-3v-18.7h3V146.6z"/>
	<path class="st1" d="M210.8,127.2v1.3h4.2v2.5h-1.1c0.2,0.4,0.3,0.8,0.3,1.3v1.4c0,1.6-1.6,3.1-3.4,3.3v0.8h6v-9.9h2.9v12.5h-16.3
		v-2.6h4.6V137c-1.8-0.2-3.3-1.8-3.3-3.3v-1.4c0-0.4,0.1-0.9,0.3-1.3h-1.2v-2.5h4.3v-1.3H210.8z M219.8,143.4l-0.8,3.2h-2.9l0.8-3.2
		h-11.6v-2.3h14.5V143.4z M211.5,133c0-0.9-0.7-1.5-1.7-1.5h-0.8c-1,0-1.7,0.6-1.7,1.5v0c0,0.9,0.7,1.5,1.7,1.5h0.8
		C210.8,134.5,211.5,133.9,211.5,133L211.5,133z"/>
	<path class="st1" d="M229.5,146.7v-4.2h-7.4v-2.6h17.7v2.6h-7.4v4.2H229.5z M223.1,138.1v-10.4h3.1v3h9.3v-3h3.1v10.4H223.1z
		 M226.2,135.5h9.3v-2h-9.3V135.5z"/>
	<path class="st1" d="M241.9,127.9h8.9v2.7h-5.9v5h5.5v2.6h-5.5v5.5h6.3v2.6h-9.2V127.9z M257.8,146.6H255v-8.3h-3.1v-2.8h3.1v-7.7
		h2.8V146.6z"/>
	<path class="st1" d="M267.5,127.9h10.1v2.8h-7v13.1h7v2.7h-10.1V127.9z M280.4,146.6v-18.7h2.8v18.7H280.4z"/>
	<path class="st1" d="M293,136.6l3.3,10h-3.1l-1.8-5.7l-2.1,5.7h-3.1l5.7-15.8h-5.5v-2.7h8.8v2.7L293,136.6z M299,146.6v-18.7h2.6
		v6.4h2v2.6h-2v9.7H299z"/>
	<path class="st1" d="M311.2,127.9c2.4,0,4.3,1.9,4.3,4.3v2c0,2.4-1.9,4.3-4.3,4.3h-1.6c-2.4,0-4.3-1.9-4.3-4.3v-2
		c0-2.4,1.9-4.3,4.3-4.3H311.2z M308.9,143.9h9.5v-16.1h2.8v18.7h-15v-6.1h2.8V143.9z M309.6,130.7c-0.9,0-1.6,0.7-1.6,1.6v2
		c0,0.9,0.7,1.6,1.6,1.6h1.6c0.9,0,1.6-0.7,1.6-1.6v-2c0-0.9-0.7-1.6-1.6-1.6H309.6z"/>
	<path class="st1" d="M323.6,147l0.4-3.2h2.9l-0.7,3.2H323.6z"/>
	<path class="st1" d="M335.3,127.9h10.8v2.6h-1.6v13.4h1.6v2.6h-10.8v-2.6h1.5v-13.4h-1.5V127.9z M339.6,143.9h2v-13.4h-2V143.9z
		 M351.2,146.6h-2.8v-8.7h-2.7v-2.8h2.7v-7.3h2.8V146.6z"/>
	<path class="st1" d="M370.9,135.9v2.1h-17v-2.1H370.9z M370.1,135h-15.5v-2.3h2.7v-2.5h-2.7v-2.3h15.5v2.3h-2.5v2.5h2.5V135z
		 M369.8,143.7h-12.2v0.8h12.2v2.1H355v-5h12.2v-0.7H355v-2.1h14.7V143.7z M360.2,132.7h4.5v-2.5h-4.5V132.7z"/>
	<path class="st1" d="M383.2,127.9v10.7h-6.8v5.2h7.1v2.6h-9.8v-10.7h6.8v-5.1h-6.8v-2.7H383.2z M389.3,146.6h-2.7v-18.7h2.7V146.6z
		"/>
	<path class="st1" d="M399.1,127.9l4.2,9.9h-3.2l-2.6-6.6l-2.6,6.6h-3.2l4.2-9.9H399.1z M396.7,139.5h8.1c1.9,0,3.5,1.6,3.5,3.5
		c0,1.9-1.6,3.5-3.5,3.5h-8.1c-1.9,0-3.5-1.6-3.5-3.5C393.2,141.1,394.8,139.5,396.7,139.5z M396.8,144.1h8c0.5,0,0.9-0.5,0.9-1
		c0-0.5-0.4-1-0.9-1h-8c-0.5,0-0.9,0.5-0.9,1C395.9,143.6,396.2,144.1,396.8,144.1z M408.3,138.3h-2.8v-10.5h2.8V138.3z"/>
	<path class="st1" d="M418.9,130.6h-2.2l-2.3,15.9h-3l2.2-15.9h-2.7v-2.7h10.9v2.7l-2.3,15.9h-3L418.9,130.6z M426.8,134.8h2v2.7h-2
		v9.1h-3v-18.7h3V134.8z"/>
	<path class="st1" d="M437.9,136.5l3.8,10h-3.2l-2.3-6.3l-2.9,6.3h-3.2l7.2-15.9h-6.9v-2.7h10.2v2.7L437.9,136.5z M446.3,146.6h-2.7
		v-18.7h2.7V146.6z"/>
</g>
</svg>
