<?xml version="1.0" encoding="utf-8"?>
<!-- Generator: Adobe Illustrator 21.1.0, SVG Export Plug-In . SVG Version: 6.00 Build 0)  -->
<svg version="1.1" id="레이어_1" xmlns="http://www.w3.org/2000/svg" xmlns:xlink="http://www.w3.org/1999/xlink" x="0px"
	 y="0px" viewBox="0 0 687.5 167.6" style="enable-background:new 0 0 687.5 167.6;" xml:space="preserve">
<style type="text/css">
	.st0{fill:#263545;}
	.st1{fill:#FCFCFC;}
</style>
<g>
	<path class="st0" d="M1.7,42.5c0-4.1,0.8-7.9,2.3-11.6c1.6-3.6,3.7-6.8,6.4-9.5c2.7-2.7,5.9-4.8,9.5-6.4c3.6-1.6,7.5-2.3,11.6-2.3
		c4.1,0,7.9,0.8,11.6,2.3c3.6,1.6,6.8,3.7,9.5,6.4c2.7,2.7,4.8,5.9,6.4,9.5c1.6,3.6,2.3,7.5,2.3,11.6c0,4.1-0.8,7.9-2.3,11.6
		c-1.6,3.6-3.7,6.8-6.4,9.5c-2.7,2.7-5.9,4.8-9.5,6.4c-3.6,1.6-7.5,2.3-11.6,2.3c-4.1,0-7.9-0.8-11.6-2.3c-3.6-1.6-6.8-3.7-9.5-6.4
		c-2.7-2.7-4.8-5.9-6.4-9.5C2.5,50.5,1.7,46.6,1.7,42.5z M9.7,42.5c0,3,0.6,5.8,1.7,8.5c1.1,2.6,2.7,4.9,4.7,6.9
		c2,2,4.3,3.5,6.9,4.7c2.6,1.1,5.5,1.7,8.5,1.7c3,0,5.8-0.6,8.5-1.7c2.6-1.1,4.9-2.7,6.9-4.7c2-2,3.5-4.3,4.7-6.9
		c1.1-2.6,1.7-5.5,1.7-8.5c0-3-0.6-5.8-1.7-8.5c-1.1-2.6-2.7-4.9-4.7-6.9c-2-2-4.3-3.5-6.9-4.7c-2.6-1.1-5.5-1.7-8.5-1.7
		c-3,0-5.8,0.6-8.5,1.7c-2.6,1.1-4.9,2.7-6.9,4.7c-2,2-3.5,4.3-4.7,6.9C10.3,36.7,9.7,39.5,9.7,42.5z M31.5,62.1
		c-2.7,0-5.3-0.5-7.6-1.5s-4.4-2.4-6.2-4.2c-1.8-1.8-3.2-3.9-4.2-6.2c-1-2.4-1.5-4.9-1.5-7.6c0-2.7,0.5-5.3,1.5-7.6
		c1-2.4,2.4-4.4,4.2-6.2c1.8-1.8,3.9-3.2,6.2-4.2s4.9-1.5,7.6-1.5c2.7,0,5.3,0.5,7.6,1.5c2.4,1,4.4,2.4,6.2,4.2
		c1.8,1.8,3.2,3.9,4.2,6.2c1,2.4,1.5,4.9,1.5,7.6c0,2.7-0.5,5.3-1.5,7.6c-1,2.4-2.4,4.4-4.2,6.2c-1.8,1.8-3.9,3.2-6.2,4.2
		C36.7,61.6,34.2,62.1,31.5,62.1z M19.6,42.5c0,1.6,0.3,3.2,0.9,4.6c0.6,1.4,1.5,2.7,2.6,3.8c1.1,1.1,2.3,1.9,3.8,2.6
		c1.4,0.6,3,0.9,4.6,0.9c1.6,0,3.2-0.3,4.6-0.9c1.4-0.6,2.7-1.5,3.8-2.6c1.1-1.1,1.9-2.3,2.5-3.8c0.6-1.4,0.9-3,0.9-4.6
		c0-1.6-0.3-3.2-0.9-4.6c-0.6-1.4-1.5-2.7-2.5-3.8c-1.1-1.1-2.3-1.9-3.8-2.5c-1.4-0.6-3-0.9-4.6-0.9c-1.6,0-3.2,0.3-4.6,0.9
		c-1.4,0.6-2.7,1.5-3.8,2.5c-1.1,1.1-1.9,2.3-2.6,3.8C19.9,39.4,19.6,40.9,19.6,42.5z"/>
	<path class="st0" d="M73.4,29H62.9V14.2h39.6V29H92.1v41.8H73.4V29z M83.8,64V23H96v-2H69.4v2h12.2V64H83.8z"/>
	<path class="st0" d="M105.5,14.2h18.1v19.3h10.1V14.2h18.2v56.7h-18.2v-21h-10.1v21h-18.1V14.2z M116.2,64V42.5h25V64h2.2V21h-2.2
		v19.5h-25V21H114V64H116.2z"/>
	<path class="st0" d="M157.8,14.2h33.4V29h-15.3v6.3h15v14.1h-15V56h15.9v14.9h-34V14.2z M185.6,64v-2h-17V43.4h16.2v-2h-16.2V23h17
		v-2h-19.2V64H185.6z"/>
	<path class="st0" d="M196.9,14.2h19.5c3.6,0,7,0.5,10.1,1.4c3.1,1,5.8,2.4,8,4.2s4,4.2,5.3,6.9c1.3,2.7,1.9,5.9,1.9,9.5
		c0,2.8-0.4,5.2-1.2,7.2c-0.8,2-1.7,3.6-2.6,4.9c-1.1,1.5-2.4,2.7-3.8,3.7l10.6,18.7h-21.2L215,56.5v14.4h-18.1V14.2z M214.6,51.1
		c2.2,0,4.4-0.2,6.5-0.7l8.1,13.6h2.6l-8.5-14.3c3.1-1.1,5.5-2.7,7.3-5c1.8-2.2,2.7-5.1,2.7-8.7c0-2.5-0.5-4.7-1.4-6.5
		c-1-1.9-2.3-3.4-4-4.7c-1.7-1.3-3.6-2.2-5.9-2.9c-2.3-0.7-4.7-1-7.4-1h-9.2V64h2.2V51.1H214.6z M207.7,49.1V23h7
		c5.2,0,9.2,1.1,12.1,3.4c2.9,2.3,4.4,5.5,4.4,9.7c0,4.2-1.5,7.4-4.4,9.6c-2.9,2.2-7,3.4-12.1,3.4H207.7z M215,42h0.9
		c2.2,0,4-0.5,5.5-1.4c1.5-1,2.3-2.6,2.3-4.8c0-2.3-0.8-3.9-2.3-4.8c-1.5-1-3.3-1.4-5.5-1.4H215V42z"/>
	<path class="st0" d="M307.6,35.7c0,3.9-0.7,7.2-2,10c-1.4,2.7-3.2,5-5.6,6.7c-2.4,1.7-5.1,2.9-8.2,3.7c-3.1,0.8-6.5,1.2-10.2,1.2
		v13.5h-18.1V14.2h18.1c3.6,0,7,0.4,10.2,1.2c3.1,0.8,5.9,2,8.2,3.7c2.4,1.7,4.2,3.9,5.6,6.7C306.9,28.5,307.6,31.8,307.6,35.7z
		 M299.4,35.7c0-2.5-0.4-4.8-1.3-6.6c-0.9-1.9-2.1-3.4-3.7-4.6c-1.6-1.2-3.5-2.1-5.7-2.7c-2.2-0.6-4.5-0.9-7.1-0.9H272V64h2.2V50.5
		h7.4c2.5,0,4.9-0.3,7.1-0.9c2.2-0.6,4.1-1.5,5.7-2.7c1.6-1.2,2.8-2.7,3.7-4.6C298.9,40.5,299.4,38.3,299.4,35.7z M297,35.7
		c0,2.4-0.4,4.5-1.3,6.1c-0.8,1.6-2,2.9-3.4,3.9c-1.4,1-3,1.7-4.9,2.1c-1.8,0.4-3.8,0.6-5.8,0.6h-7.4V23h7.4c2,0,4,0.2,5.8,0.6
		c1.8,0.4,3.5,1.1,4.9,2.1c1.4,1,2.5,2.3,3.4,3.9C296.6,31.3,297,33.3,297,35.7z M281.6,42h0.8c2.4,0,4.1-0.6,5.1-1.7
		c1-1.1,1.6-2.6,1.6-4.6c0-2-0.5-3.5-1.6-4.6c-1-1.1-2.8-1.7-5.1-1.7h-0.8V42z"/>
	<path class="st0" d="M310.6,42.5c0-4.1,0.8-7.9,2.3-11.6c1.6-3.6,3.7-6.8,6.4-9.5c2.7-2.7,5.8-4.8,9.5-6.4
		c3.6-1.6,7.5-2.3,11.6-2.3s7.9,0.8,11.6,2.3c3.6,1.6,6.8,3.7,9.5,6.4c2.7,2.7,4.8,5.9,6.4,9.5c1.6,3.6,2.3,7.5,2.3,11.6
		c0,4.1-0.8,7.9-2.3,11.6c-1.6,3.6-3.7,6.8-6.4,9.5c-2.7,2.7-5.9,4.8-9.5,6.4c-3.6,1.6-7.5,2.3-11.6,2.3s-7.9-0.8-11.6-2.3
		c-3.6-1.6-6.8-3.7-9.5-6.4c-2.7-2.7-4.8-5.9-6.4-9.5C311.4,50.5,310.6,46.6,310.6,42.5z M318.6,42.5c0,3,0.6,5.8,1.7,8.5
		c1.1,2.6,2.7,4.9,4.7,6.9c2,2,4.3,3.5,6.9,4.7c2.6,1.1,5.5,1.7,8.5,1.7c3,0,5.8-0.6,8.5-1.7c2.6-1.1,4.9-2.7,6.9-4.7
		c2-2,3.5-4.3,4.7-6.9c1.1-2.6,1.7-5.5,1.7-8.5c0-3-0.6-5.8-1.7-8.5c-1.1-2.6-2.7-4.9-4.7-6.9c-2-2-4.3-3.5-6.9-4.7
		c-2.6-1.1-5.5-1.7-8.5-1.7c-3,0-5.8,0.6-8.5,1.7c-2.6,1.1-4.9,2.7-6.9,4.7c-2,2-3.5,4.3-4.7,6.9C319.1,36.7,318.6,39.5,318.6,42.5z
		 M340.3,62.1c-2.7,0-5.3-0.5-7.6-1.5c-2.4-1-4.4-2.4-6.2-4.2c-1.8-1.8-3.2-3.9-4.2-6.2c-1-2.4-1.5-4.9-1.5-7.6
		c0-2.7,0.5-5.3,1.5-7.6c1-2.4,2.4-4.4,4.2-6.2c1.8-1.8,3.9-3.2,6.2-4.2c2.4-1,4.9-1.5,7.6-1.5s5.3,0.5,7.6,1.5
		c2.4,1,4.4,2.4,6.2,4.2c1.8,1.8,3.2,3.9,4.2,6.2c1,2.4,1.5,4.9,1.5,7.6c0,2.7-0.5,5.3-1.5,7.6c-1,2.4-2.4,4.4-4.2,6.2
		c-1.8,1.8-3.9,3.2-6.2,4.2C345.6,61.6,343.1,62.1,340.3,62.1z M328.4,42.5c0,1.6,0.3,3.2,0.9,4.6c0.6,1.4,1.5,2.7,2.5,3.8
		c1.1,1.1,2.3,1.9,3.8,2.6c1.4,0.6,3,0.9,4.6,0.9c1.6,0,3.2-0.3,4.6-0.9c1.4-0.6,2.7-1.5,3.8-2.6c1.1-1.1,1.9-2.3,2.5-3.8
		c0.6-1.4,0.9-3,0.9-4.6c0-1.6-0.3-3.2-0.9-4.6c-0.6-1.4-1.5-2.7-2.5-3.8c-1.1-1.1-2.3-1.9-3.8-2.5c-1.4-0.6-3-0.9-4.6-0.9
		c-1.6,0-3.2,0.3-4.6,0.9c-1.4,0.6-2.7,1.5-3.8,2.5c-1.1,1.1-1.9,2.3-2.5,3.8C328.7,39.4,328.4,40.9,328.4,42.5z"/>
	<path class="st0" d="M374.8,14.2h19.5c3.6,0,7,0.5,10.1,1.4c3.1,1,5.8,2.4,8,4.2c2.3,1.9,4,4.2,5.3,6.9c1.3,2.7,1.9,5.9,1.9,9.5
		c0,2.8-0.4,5.2-1.2,7.2c-0.8,2-1.7,3.6-2.6,4.9c-1.1,1.5-2.4,2.7-3.8,3.7l10.6,18.7h-21.2l-8.5-14.4v14.4h-18.1V14.2z M392.4,51.1
		c2.2,0,4.4-0.2,6.5-0.7L407,64h2.6l-8.5-14.3c3.1-1.1,5.5-2.7,7.3-5c1.8-2.2,2.7-5.1,2.7-8.7c0-2.5-0.5-4.7-1.4-6.5
		c-1-1.9-2.3-3.4-4-4.7c-1.7-1.3-3.6-2.2-5.9-2.9c-2.3-0.7-4.7-1-7.4-1h-9.2V64h2.2V51.1H392.4z M385.5,49.1V23h7
		c5.2,0,9.2,1.1,12.1,3.4c2.9,2.3,4.4,5.5,4.4,9.7c0,4.2-1.5,7.4-4.4,9.6c-2.9,2.2-7,3.4-12.1,3.4H385.5z M392.9,42h0.9
		c2.2,0,4-0.5,5.5-1.4c1.5-1,2.3-2.6,2.3-4.8c0-2.3-0.8-3.9-2.3-4.8c-1.5-1-3.3-1.4-5.5-1.4h-0.9V42z"/>
	<path class="st0" d="M431.8,29h-10.5V14.2h39.6V29h-10.5v41.8h-18.7V29z M442.2,64V23h12.2v-2h-26.5v2H440V64H442.2z"/>
	<path class="st0" d="M463.9,14.2h33.4V29H482v6.3h15v14.1h-15v21.4h-18.1V14.2z M474.6,64V43.4h16.1v-2h-16.1V23h17v-2h-19.2V64
		H474.6z"/>
	<path class="st0" d="M500.7,42.5c0-4.1,0.8-7.9,2.3-11.6c1.6-3.6,3.7-6.8,6.4-9.5c2.7-2.7,5.9-4.8,9.5-6.4
		c3.6-1.6,7.5-2.3,11.6-2.3c4.1,0,7.9,0.8,11.6,2.3c3.6,1.6,6.8,3.7,9.5,6.4c2.7,2.7,4.8,5.9,6.4,9.5c1.6,3.6,2.3,7.5,2.3,11.6
		c0,4.1-0.8,7.9-2.3,11.6c-1.6,3.6-3.7,6.8-6.4,9.5c-2.7,2.7-5.9,4.8-9.5,6.4c-3.6,1.6-7.5,2.3-11.6,2.3c-4.1,0-7.9-0.8-11.6-2.3
		c-3.6-1.6-6.8-3.7-9.5-6.4c-2.7-2.7-4.8-5.9-6.4-9.5C501.5,50.5,500.7,46.6,500.7,42.5z M508.7,42.5c0,3,0.6,5.8,1.7,8.5
		c1.1,2.6,2.7,4.9,4.7,6.9c2,2,4.3,3.5,6.9,4.7c2.6,1.1,5.5,1.7,8.5,1.7c3,0,5.8-0.6,8.5-1.7c2.6-1.1,4.9-2.7,6.9-4.7
		c2-2,3.5-4.3,4.7-6.9c1.1-2.6,1.7-5.5,1.7-8.5c0-3-0.6-5.8-1.7-8.5c-1.1-2.6-2.7-4.9-4.7-6.9c-2-2-4.3-3.5-6.9-4.7
		c-2.6-1.1-5.5-1.7-8.5-1.7c-3,0-5.8,0.6-8.5,1.7c-2.6,1.1-4.9,2.7-6.9,4.7c-2,2-3.5,4.3-4.7,6.9C509.3,36.7,508.7,39.5,508.7,42.5z
		 M530.5,62.1c-2.7,0-5.3-0.5-7.6-1.5s-4.4-2.4-6.2-4.2c-1.8-1.8-3.2-3.9-4.2-6.2c-1-2.4-1.5-4.9-1.5-7.6c0-2.7,0.5-5.3,1.5-7.6
		c1-2.4,2.4-4.4,4.2-6.2c1.8-1.8,3.9-3.2,6.2-4.2s4.9-1.5,7.6-1.5c2.7,0,5.3,0.5,7.6,1.5c2.4,1,4.4,2.4,6.2,4.2
		c1.8,1.8,3.2,3.9,4.2,6.2c1,2.4,1.5,4.9,1.5,7.6c0,2.7-0.5,5.3-1.5,7.6c-1,2.4-2.4,4.4-4.2,6.2c-1.8,1.8-3.9,3.2-6.2,4.2
		C535.7,61.6,533.2,62.1,530.5,62.1z M518.6,42.5c0,1.6,0.3,3.2,0.9,4.6c0.6,1.4,1.5,2.7,2.6,3.8c1.1,1.1,2.3,1.9,3.8,2.6
		c1.4,0.6,3,0.9,4.6,0.9c1.6,0,3.2-0.3,4.6-0.9c1.4-0.6,2.7-1.5,3.8-2.6c1.1-1.1,1.9-2.3,2.5-3.8c0.6-1.4,0.9-3,0.9-4.6
		c0-1.6-0.3-3.2-0.9-4.6c-0.6-1.4-1.5-2.7-2.5-3.8c-1.1-1.1-2.3-1.9-3.8-2.5c-1.4-0.6-3-0.9-4.6-0.9c-1.6,0-3.2,0.3-4.6,0.9
		c-1.4,0.6-2.7,1.5-3.8,2.5c-1.1,1.1-1.9,2.3-2.6,3.8C518.9,39.4,518.6,40.9,518.6,42.5z"/>
	<path class="st0" d="M564.9,14.2h18.9V56h15.6v14.9h-34.5V14.2z M594.7,64v-2h-19V21h-2.2V64H594.7z"/>
	<path class="st0" d="M602.4,14.2h19.2v56.7h-19.2V14.2z M613.1,64V21h-2.2V64H613.1z"/>
	<path class="st0" d="M626.3,42.5c0-4.1,0.8-7.9,2.3-11.6c1.6-3.6,3.7-6.8,6.4-9.5c2.7-2.7,5.9-4.8,9.5-6.4
		c3.6-1.6,7.5-2.3,11.6-2.3c4.1,0,7.9,0.8,11.6,2.3c3.6,1.6,6.8,3.7,9.5,6.4c2.7,2.7,4.8,5.9,6.4,9.5c1.6,3.6,2.3,7.5,2.3,11.6
		c0,4.1-0.8,7.9-2.3,11.6c-1.6,3.6-3.7,6.8-6.4,9.5c-2.7,2.7-5.9,4.8-9.5,6.4c-3.6,1.6-7.5,2.3-11.6,2.3c-4.1,0-7.9-0.8-11.6-2.3
		c-3.6-1.6-6.8-3.7-9.5-6.4c-2.7-2.7-4.8-5.9-6.4-9.5C627,50.5,626.3,46.6,626.3,42.5z M634.3,42.5c0,3,0.6,5.8,1.7,8.5
		c1.1,2.6,2.7,4.9,4.7,6.9c2,2,4.3,3.5,6.9,4.7c2.6,1.1,5.5,1.7,8.5,1.7c3,0,5.8-0.6,8.5-1.7c2.6-1.1,4.9-2.7,6.9-4.7
		c2-2,3.5-4.3,4.7-6.9c1.1-2.6,1.7-5.5,1.7-8.5c0-3-0.6-5.8-1.7-8.5c-1.1-2.6-2.7-4.9-4.7-6.9c-2-2-4.3-3.5-6.9-4.7
		c-2.6-1.1-5.5-1.7-8.5-1.7c-3,0-5.8,0.6-8.5,1.7c-2.6,1.1-4.9,2.7-6.9,4.7c-2,2-3.5,4.3-4.7,6.9C634.8,36.7,634.3,39.5,634.3,42.5z
		 M656,62.1c-2.7,0-5.3-0.5-7.6-1.5s-4.4-2.4-6.2-4.2c-1.8-1.8-3.2-3.9-4.2-6.2c-1-2.4-1.5-4.9-1.5-7.6c0-2.7,0.5-5.3,1.5-7.6
		c1-2.4,2.4-4.4,4.2-6.2c1.8-1.8,3.9-3.2,6.2-4.2s4.9-1.5,7.6-1.5c2.7,0,5.3,0.5,7.6,1.5c2.4,1,4.4,2.4,6.2,4.2
		c1.8,1.8,3.2,3.9,4.2,6.2c1,2.4,1.5,4.9,1.5,7.6c0,2.7-0.5,5.3-1.5,7.6c-1,2.4-2.4,4.4-4.2,6.2c-1.8,1.8-3.9,3.2-6.2,4.2
		C661.3,61.6,658.7,62.1,656,62.1z M644.1,42.5c0,1.6,0.3,3.2,0.9,4.6c0.6,1.4,1.5,2.7,2.6,3.8c1.1,1.1,2.3,1.9,3.8,2.6
		c1.4,0.6,3,0.9,4.6,0.9c1.6,0,3.2-0.3,4.6-0.9c1.4-0.6,2.7-1.5,3.8-2.6c1.1-1.1,1.9-2.3,2.5-3.8c0.6-1.4,0.9-3,0.9-4.6
		c0-1.6-0.3-3.2-0.9-4.6c-0.6-1.4-1.5-2.7-2.5-3.8c-1.1-1.1-2.3-1.9-3.8-2.5c-1.4-0.6-3-0.9-4.6-0.9c-1.6,0-3.2,0.3-4.6,0.9
		c-1.4,0.6-2.7,1.5-3.8,2.5c-1.1,1.1-1.9,2.3-2.6,3.8C644.4,39.4,644.1,40.9,644.1,42.5z"/>
</g>
<rect x="215.8" y="110.5" class="st0" width="255.9" height="57.1"/>
<g>
	<path class="st1" d="M252.9,127.8c2.6,0,4.6,2.2,4.6,4.8v9.1c0,2.6-2.1,4.8-4.7,4.8h-1c-2.7,0-4.9-2.1-4.9-4.8v-9.1
		c0-2.7,2.2-4.8,4.9-4.8H252.9z M251.8,130.7c-1.1,0-2.1,0.9-2.1,2v9.1c0,1.1,0.9,2,2.1,2h0.9c1.1,0,2-0.9,2-2v-9.1c0-1-0.9-2-1.9-2
		H251.8z M262.8,146.6h-3v-18.7h3V146.6z"/>
	<path class="st1" d="M274.6,127.9v6.6h-5.8v1.5h6.1v2.5H266V132h5.8v-1.4H266v-2.6H274.6z M279,131.4v-3.6h2.8v18.7h-15v-6.1h2.9
		v3.4h9.3V134h-3.2v-2.6H279z"/>
	<path class="st1" d="M299,127.9v2.7l-0.9,7.9h-2.9l0.9-7.9h-5.3v-2.7H299z M302.2,139.8l5.4,6.8H304l-3.6-4.3l-3.7,4.3H293l5.6-6.8
		H302.2z M307.2,138.5h-2.9v-4.1h-4.1v-2.5h4.1v-4h2.9V138.5z"/>
	<path class="st1" d="M316.9,144v-5.4h-6.1v-10.6H326v2.6h-12.2v5.4H326v2.6h-6.1v5.4h7v2.6h-17V144H316.9z"/>
	<path class="st1" d="M342,128.5h3.6v2.1H344c0.7,0.6,1.1,1.4,1.1,2.3v1.2c0,2-2.1,3.6-4.5,3.6c-2.4,0-4.4-1.6-4.4-3.6V133
		c0-0.9,0.4-1.7,1.1-2.4h-1.7v-2.1h3.6v-1.4h2.8V128.5z M351,132.4h2v2.7h-2v8.5h-11.2v1H351v2.1h-14v-4.8h11.2v-0.9h-11.2v-2.1
		h11.2v-10.9h2.7V132.4z M342.5,133.5c0-0.9-0.8-1.7-1.9-1.7s-1.9,0.8-1.9,1.7v0.3c0,0.9,0.8,1.7,1.9,1.7s1.9-0.8,1.9-1.7V133.5z"/>
	<path class="st1" d="M376.5,143.5h-12.2v0.9h12.2v2.2h-14.7v-5.2h12.2v-0.9h-12.2v-2.1h6v-1.1h-7.1v-2.1h17v2.1h-7.1v1.1h6V143.5z
		 M368.6,130.2h-6.9v-2.3h14.9v2.3l-3.7,1.1l3.7,1v2.2l-7.4-2.1l-7.4,2.1v-2.3L368.6,130.2z"/>
	<path class="st1" d="M392.8,127.9c2,0,3.6,1.4,3.6,3.4v1.8c0,2.1-1.6,3.4-3.6,3.4h-2.8c-2,0-3.6-1.4-3.6-3.4v-1.8
		c0-2.1,1.6-3.4,3.6-3.4H392.8z M399,137.8v-10h2.7v2.5h2v2.7h-2v10.2h-11.7v1h11.7v2.3h-14.5v-5.5h11.7v-1h-11.7v-2.3H399z
		 M393.6,132c0-0.9-0.6-1.5-1.6-1.5h-1.2c-1,0-1.6,0.6-1.6,1.5v0.7c0,0.9,0.6,1.5,1.6,1.5h1.2c1,0,1.6-0.6,1.6-1.5V132z"/>
	<path class="st1" d="M415.2,132.6v9.2c0,2.7-2.2,4.8-4.9,4.8c-2.7,0-4.9-2.1-4.9-4.8v-9.2c0-2.7,2.2-4.8,4.9-4.8
		C413,127.8,415.2,129.9,415.2,132.6z M408.3,132.6v9.2c0,1.1,0.9,2,2.1,2c1.1,0,2.1-0.9,2.1-2v-9.2c0-1.1-0.9-2-2.1-2
		C409.2,130.6,408.3,131.5,408.3,132.6z M420.8,135.6h2v2.7h-2v8.3H418v-18.7h2.8V135.6z"/>
	<path class="st1" d="M427.7,143.9v-5.5c-1.9-0.5-3.2-2.2-3.2-4.2v-2c0-2.4,1.9-4.3,4.3-4.3h7.4c2.4,0,4.3,1.9,4.3,4.3v2
		c0,2-1.3,3.7-3.1,4.2v5.5h3.7v2.7h-17v-2.7H427.7z M435.8,135.9c1.2,0,1.9-1,1.9-2.1v-1c0-1.2-0.8-2.1-1.9-2.1h-6.6
		c-1.2,0-1.9,1-1.9,2.1v1c0,1.2,0.8,2.1,1.9,2.1H435.8z M430.6,143.9h3.9v-5.3h-3.9V143.9z"/>
</g>
</svg>
